<mxfile host="app.diagrams.net" modified="2023-04-26T12:41:29.713Z" agent="Mozilla/5.0 (Macintosh; Intel Mac OS X 10_15_7) AppleWebKit/605.1.15 (KHTML, like Gecko) Version/16.4 Safari/605.1.15" etag="TMlPTzBIJ2Jj6fExqhld" version="21.2.2" type="device">
  <diagram name="Pagina-1" id="Yyf8JL4ORD5fPhBH_V9R">
    <mxGraphModel dx="699" dy="659" grid="1" gridSize="10" guides="1" tooltips="1" connect="1" arrows="1" fold="1" page="1" pageScale="1" pageWidth="1169" pageHeight="827" math="0" shadow="0">
      <root>
        <mxCell id="0" />
        <mxCell id="1" parent="0" />
        <mxCell id="MfFnP2DkGf9KAdTDlPXh-4" value="" style="rounded=0;whiteSpace=wrap;html=1;fillColor=none;strokeWidth=4;strokeColor=#CC0000;dashed=1;" parent="1" vertex="1">
          <mxGeometry x="770" y="170" width="240" height="310" as="geometry" />
        </mxCell>
        <mxCell id="MfFnP2DkGf9KAdTDlPXh-2" value="" style="rounded=0;whiteSpace=wrap;html=1;fillColor=none;strokeWidth=4;strokeColor=#66CC00;dashed=1;" parent="1" vertex="1">
          <mxGeometry x="380" y="170" width="380" height="310" as="geometry" />
        </mxCell>
        <mxCell id="MfFnP2DkGf9KAdTDlPXh-1" value="" style="shape=image;verticalLabelPosition=bottom;labelBackgroundColor=default;verticalAlign=top;aspect=fixed;imageAspect=0;image=data:image/png,iVBORw0KGgoAAAANSUhEUgAABNkAAAFDCAYAAAAH7dhlAAAAAXNSR0IArs4c6QAAAERlWElmTU0AKgAAAAgAAYdpAAQAAAABAAAAGgAAAAAAA6ABAAMAAAABAAEAAKACAAQAAAABAAAE2aADAAQAAAABAAABQwAAAAANbuqLAABAAElEQVR4AexdB5wdVdU/k2zf7G42vTfSCCUEEpqhKVFUEEVBFERErIgfKoqgKCCofFg+ewEFC6KIIChShQChl0BIL6T3tpvtm9293/+82dk3c+fOvHlv39t95Zzfb3Zmbpt7//Pmv3PPnHuORSL9hoBSqgQXr+3ehmj7GpwPxCYiCAgCRJ0AoR7bfmz7tP1+y7LakSbiQkD4xQWGHAoC4QgIv4Tj48sVfvFBIgmCQBACwi9ByASkC78EACPJgoAfAeEXPyZZkWJlRS8KpBP4pzENQz0Z23xsJ2Cbjk3uAUAQEQR6gYBC3dXYnse2CNvTULqtwb6gRPiloG63DLbvEBB+AdbCL333g5MrFRQCwi/CLwX1g5fB9ikCwi99Crf3YqLg8eKR1jO8lFaiwXdgeze292CbgE1EEBAEMo/AJlziP93bE1C6NWX+kn17hW5+eTuuytwi/NK38MvVChsBh18eAgz/FX4p7B+DjF4QSDMCwi9pBlSaEwQEgR4E8p5fekbazweiZEvzDcDElzE9Bdsl2D6IrQKbiCAgCPQfAs249D+w/R7bU5gQ85ednBThl5y8bdLp/EZA+CW/76+MThDoTwSEX/oTfbm2IJDfCOQNv2TjbRIlW5ruCia/7D/tPGzfwHZYmpqVZgQBQSC9CCxDczdhuxvKNvZjkBMi/JITt0k6KQgIv8hvQBAQBDKFgPBLppCVdgUBQSAn+SWbb5so2Xp5d7otSz6EZq7Hdmgvm5PqgoAg0DcIrMBlvo3tnmy2bBN+6Zsfg1xFEEgzAsIvaQZUmhMEBIEeBIRfeqCQA0FAEEgzAjnBL2kec0aaEyVbL2DFBPhUVL8F29xeNCNVBQFBoP8QeAWX/ioUbQv7rwvmKwu/mHGRVEEghxAQfsmhmyVdFQRyDAHhlxy7YdJdQSCHEMhafskVDEXJlsKdwuSXAxj8EBtbsIkIAoJA7iNwD4bwFSjb2CFov4rwS7/CLxcXBDKBgPBLJlCVNgUBQYAREH6R34EgIAhkCoGs4ZdMDTBT7YqSLQlkMfllv2tfwHYjtkFJVA0oCv/rXY1EHfuJOrF17LP3fNxZjzpdAfUkWRAoNAQGEA2swVZrb0VDuvc4H8CPYlqoDA8jfRPbz/vDX1tG+KWzgejg3vjW0X3cUYdhCr8ABBFBAAiAX4oGExUPxR4b751tYBXyhV/8PxO8v3SAX9rBKfp2UPjFj5ekFC4C4Jdi8EsJeEXfioRfzL8L8Es7+KUN/NKKzdnzcTv4Rcn7ixk3SS04BCzwSwn4pQz8wlupa1+SH/ySq/c0LW+OuTr4ZPqNCfAklP8jtpOSqecr276eqPE5Uk3PYf8UXlL3+IpIgiAgCCSBQNEwqLxPIavyROyxlUxOorKx6DNI/TgUbXhY+0bSxi8ta4nqFmIDt+x/DMq1XX0zALmKIJCvCBSPIKpdQDT4FGynEpVP7e1ImV8uAr9s6G1DUeuDX5gU/4Ctd+8vTeCXPQuxgV92g1/ahF+i3gMpJwgYESgFvwwHvwwDvww7laiygPnlAPhl20JS2Ggr+KVF+IVEBIHeIFAOfhm7gKwxpxLxVp17/NKb4fd3Xau/O5AL18cL6vvRzzuwwZQmWVFEza+TOvAg0YH/4KX0rWQbkPKCgCCQDAKlU/CP5D1kVb+XqOIo1EyJ5tiU9GJMhP+ZzKVTKdtrfml4GRPe+zDxvRcvpWtS6YLUEQQEgagIlE/DZPgcTIw/QFQ1D7XynF/2g1+2g1+2gV+ahF+i/kyknCCQEgKV4Jcx4JfR4JfaAuCXXS+T2gBuWY+tXvglpd+MVBIEoiJQA36ZfA5Zk8AxI7KfX6IOK1vLpfR2mK2DSXe/MPllfHj52PXYksNKtRHtu4vU3luhWFuX7q5Je4KAIBAFgdJDyBr6KaIhH8ETXBqlhrsMNOSxCKQ3QtnGx2mVXvFLVyvRjtvxtfenUOKvSmu/pDFBQBCIiEDFDHwl/iLRqE9gxWlZxEo9xbKbXzaCX94CvzQKv/TcMTkQBPoSgUHglyngl4l5xi+deH9ZdTuppT+B1b3wS1/+pORagkAPAoNnkHX4/xDNAL8MzK73l54+5vhBcoqjHB9sMt3HBBiLnOmX2D6TTD1SB6Fcu5PUbvzzOLg9qapSWBAQBDKEQPFosobjn8mQC6BsK072Ir9Bhc9D0ZY2JyCp80s7rEp+R7Tpe1Deb0l2HFJeEBAEMoFA6TiiCVfD+uST4JeSZK+QPfzSBX7ZCH5ZA35pEX5J9kZKeUEgIwiUg1+mgV8mgl8G5Di/rPwdqcXfhVWs8EtGfivSqCCQLAKV48iacw3RzOzgl2S7n83lRckWcHcwCWYF2+cCsg3J+Chd/29SO26CU84NhnxJEgQEgX5HoGQSWaO+gYXfZ6IrSdHfr6Bk+3y6+p8Sv+y+B0sq8I+wRSxj03UfpB1BIK0IlB+CpRiYQA7nwOM5xi/bwC/LwS9Nwi9p/U1IY4JAuhCoBL/MAr+MyUF+eeseUi9BUXhA+CVdPwdpRxBIKwLVWPlzLD6wTelffknrmPq5saTeAvu5r312eUyAoSkjvG1GlLbVpLZehZfT5yNWkGKCgCDQrwhUnkDW2JsRhWd6Mt34LhRt0ND1TpLml+blsCy5zA5m0LtLS21BQBDoCwQ4SMK0X8An5KxkrtY//NIAflkCfuFgBiKCgCCQ/QhwkIQjwS9VOcAv+5eTWoTvk9uFX7L/hyU9FASAwGgEkpsPO6PavueXfMNflGzaHcUEGGvK6P+0ZPMpLw3d/TNSu36McNI4FhEEBIHcQQDLRq0RX4LVyeUwOom8hPQKKNqwFjw1SZpfNn0fy7eg81ftqV1QagkCgkD/IMDLRidCJz/h69nJL114Z1kDflkNfuFloiKCgCCQOwjwstHp4Jdp4JcBWfj+wvzy+vdJvXaj8Evu/Kqkp4KAjQD4xToaLumP6jt+yUfoRcnmuquYACPcBv0dG/tjC5eDW0ht+gycjr8aXk5yBQFBILsRqDiGrAlwi1QMvyeJhf2ynQtFG0JhJSdJ8UvrRqIVH8HSiheSu4iUFgQEgexCoPp4okPvIiqbGKVffcMvzeCXV8Av+4VfotwUKSMIZC0CteCXueCXiizil8aNpB4/n2iX8EvW/m6kY4JAFARGHE/W6X8lGpRZfonSlVwsI0q27ruGCfAcHC7CVpHwRja9AAXbJUQd+xIWlQKCgCCQAwgUDYGi7fdElXhhTSzNKDIfirbFiYvaJZLil/qniZbBJ8LBPVGbl3KCgCCQzQgUDyM6DD7Pak6O0svM8ste8MtL4Jd24ZcoN0PKCAJZj0AJ+OVY8MvQLOCX7U+TeuyDRK3CL1n/u5EOCgJRECgbRtaCf2AZaWb4JUoXcrWMKNlw5zABHoodm6QlVtUeeAQKtk/J8q1c/cVLvwWBIASwvMuacCtR9buCSrjTYQpCx0DRttedaDpOil/2PgDn4x/G8oo2U1OSJggIArmKwIBSOC3/GybC74sygszwyw7wy8vCL1FugJQRBHIKAeaXeeCXUf3ILxsfgAXbeUSd8v6SU78d6awgkAiBgaWwaLsbWpL08kuiy+Z6fuJlkbk+wgT9xwSYFY1/xJZYwdbwJBRsl4qCLQGmki0I5CQC8HsWe77xnEcQ5os/dvNHYPGk+GXfI7BgwwuqKNgC8ZQMQSBnEeDnmp9vfs4TS/r5ZReu+7LwS2LopYQgkIMIML/w883PeWJJP79sgQHCY+eKgi0x9lJCEMg9BKA4jz3feM4jSCR+idBOzhcpeCUb7iAHOnhPwjsJ32tq0yehYIMzTxFBQBDITwTwfMee82i+Fpk3mD/CJBq/sO+15VjCJQEOwrCUPEEgtxHg55uf82i+FtPHL+x7jZeISoCD3P79SO8FgTAE+Pnm5zyar8X08Qt8r6lHsURU+CXs7kieIJDbCOD5jj3n0XwtRuGX3MYjQu8LerkorExmAiP2q1QWilXbW6TWvRdfaPaHFpNMQUAQyBMEBtaSdciDRKVTEg2oFQXmYNnoSr1gZH5pWQMWOhE+2BKuPNUvIeeCgCCQiwgUw0PFnOeIyqcl6n3v+aUJ/PI0+KVd+CUR2JIvCOQFAiXgl5PBL5V9wC/1a0jdfwJ8sAm/5MVvRwYhCCRCoGwoWWc/Dx+zqfNLokvkS37BWrJ1L+OCA6YECrbOelIbPyYKtnz5xcs4BIEoCEChbj/39YlKs4L+1m4+6SkbmV86oLh/8yxRsPUgJweCQAEgwAp1fu75+Q+X3vHLQbT/Aq4jCrZwlCVXEMgnBPh55+een/9w6R2/tOE96eEzRcEWjrHkCgL5hQAU6rHnHs9/AjHyS4I6eZVdsEo23MWLsc0Pv5tdpDZfRtS2LryY5AoCgkD+IYDnPvb8U1eisTGPXKwV4vOE/EIrLyJqWa1VlVNBQBDIewT4uefnP1P8osBbr6L9RuGXvP8tyQAFAR0Bfu75+WceCJfU3l/QrnoSBgj1wi/h8EquIJCHCOC5jz3/qfFLHgJiHlJBKtlgZTIIcNxkhsSVuvuXRA2PuxLkUBAQBAoKAX7+mQcSy03dvMLRiqPxy+ZbiPZiSaqIICAIFCYC/PwzDySW5PllLdrdKfySGFopIQjkKQL8/DMPJJbk+eUNtLtJ+CUxtFJCEMhTBPj5Zx5ILD38krhofpUoSCUbbuH/YBsdeitb3iS18+bQIpIpCAgC+Y9AjAfABwmE+YR5hSUxvzQuJlr/Lbu0/BUEBIHCRYB5gPkgXJLjl3q0t1L4JRxSyRUECgAB5gHmg3BJjl/2LCb1yrXhLUquICAI5D0CMR4AHyQQN78kKJpf2QUX+KDbymQDbiM8gwaI6iC19gz4GVgaUECSBQFBoKAQKDucrKkPE1lFYcOGIxQ6DNsybKH8Qq8di4n162FtSZ4gIAgUCgKDjiI6+qX08ctT4Jf6LOGX8RcSTbk8+p08WAduRLCGJrjpqHsF1r7PRK8rJXMfgdNx70uHe8ex7sdQGl/vTZOz6AjUgF9OSRO/dGF+dN88PJdZwi/TLiTr8C9Gx6IN/HIAwRrq12KVAvhlh/BLdPByv6R1Pu57mcYvb/6Y1KvX5f7g+msEQ48i6wMvEw1IOD+ahCBxjf3Vzf64bigi/dGhPrjmJ3CN4Akwd2Dv70TB1gc3Qi4hCOQMAqxwZ14Y9pmwLjOv/BxbOL9s/Zko2MJQlDxBoNAQYIU788K4L4WNPBq/vIV2skXBxqMZNJ1oMCblycjwBfHSu7Fkf9lXMaY34mmFfDSwkqhWw7OrnWgfoklmqyTT5zIYPQys8I6kZJj3XM6SQ4D5gHnhkDTwyzK0ky0KNqBg1cwgGq49DwnRWUA9FiZbHyf1wpUYk/BLDLYi8MsIDc9O8MvOLOaXZPpcAX4p0vilTPgl4SMTVoD5gHnhiIT8wvoXFCwcKSglG6zYmFc/H3p7O+tI7fpRaBHJFAQEgcJDgHnBqv0wJgCDwwb/vrBM6thHtPE7oUUkUxAQBAoQAeaFUR/HBGBI2ODD+aUd/LIqz/hl+OmwwnmV6JWPEG37exg2hZE36kyiuXf5x/rQ8OyNIpuLffYjnNspzAvjwS8lveCXtn2w+Lkht3HQez/2dLLOeY3Uf8+HIlL4hSaeSdY7/qqjROqPUEQhqmRWSi72OSuBTL1TzAvWdPBLaSi/fB56mJ/Dmk2lfqXcqlloPtlOxu2ZGXaLFDs576wPKyJ5goAgUIgIgBdi/BA+9pLQ7M0/JOqoCy0imYKAIFCACDAvMD+ESzi/rEV9Xm6Zb2LhVXU23s1KR+XbyGQ8gkDfIMC8wPwQLqH8ot74ARS5+ckv1vxfEVUIv4T/PCRXEAhAALwQ44eA7O5k1r+wHqZgpNCUbBeH3tmuBpgM3x5aRDIFAUGggBFgfmCeSEU6D2BJ2C9SqSl1BAFBoBAQYH5gnkhFOlBvfR7zS8lQoiN/mgoyUieXEFCd/t6a0vylJCURAswPzBOpSDvqLc9jfikbStaJBbWSLZVfQe7XMXGJKS33R9r3I2B+YJ4Il4vDs/Mrt2CWi8JEsQy37pzQ27f/7tQn0KENS6YgIAjkBQKsYGOeGPrJ5Iez4w+pT6CTv5rUEAQEgVxDgBVszBNjL0++55tQL9UJdPJX632NFd+En58HXe3gm2/ZGKIhJyBQwhewbLbaldd9yEtHRfIbgScO8/tka92e32Puq9ExPzBPJBOIxOnbatRLPIF2Svf7Xr38DYzVxS9sDVsxhqyRJyI8FfilxMAv44Rf+v3GZbgD6u5Zfp9szcIvaYGd+YF54vDQ95dzoI/5HJaMtqblmlneSMEo2XAf3oXNwKrxO6T2/Sl+IkeCgCAgCBgQYJ6wUlGybb/V0JokCQKCgCDgQoB5IhUl28Yc45eG5f5gBvWLbcXbVnzI4GiIA7TVa8WD7SWjbTtcgLkOB5TiLe9IoprZ2B+ByVQVNjjyZiUNB07YcT8UBftcFbTDQTP8Cp6Gpfj4ehDXHUE05jwEcjgE3tYHoiIm7RwBlfu8Z6HWUMBpb/o3sBzXLTYrH/lyxTV2P6kLytbGeAcGz/XiqJC//0Xkwy0OBxkYCz+jldNwjvTNdyLvhXhdPuKgA1WHYtxY6cNBLComYEkyJlOtW4lasO1+lKh5o7eOc5ZKn4tr7fvmtMH7g3Dh0pHAgrxyave9x33ne1+B+9S+C5Ek38SGe8h7/g2oDnfL3uNM33/v1frnjHkiBSWbWvnb/ulvqlfdD37xBTNYTIoVb+v+Bj9sL3ufC75OCfiFl4w2B/DLQPDLEPDL0Nlk8b6km1+gpFHs/H0D+AV+6wJlMPhFd7q/D79N5pdy8MuU8xDIAb9j5hcoBWMRUPeCX7YtDGzSk9Gb/hWBXwYUg0eqPU32nJR08wvzx8HGnmQaPteLI+fv6uYXDjJwyIcxJvAG0tWaPyNP4xcOOjAY/DJ4JlmMzyDwCytrmreSatxCtAX80hjAL6n0uRT8Uoz75pZ28MvBBPxSjfsy9Ej7vg9hjgG/tIBf9r1JChvvaR/4BdF3AyXT9z/wwn2XwTxhhSvZ+Af2Lmx4WPJfivJ/iD0jPLvnyHTQgoejdaUpR9IEAUFAEIgjwDzBfFE+O56W6KjhFUzI8DIlIggIAoJAGALME8wXVZi8RJU6lGdFQr7IgSVE2++zFUD6mKqg7DEp2WqPIzoaX9FZERQk6jcIPHMbIqFdZVbavB0YxhRorgZefD+UdnOIpn3Vr4Bziu1dhDavhIIKisEg6W3/Fqy3FX1B7Z++1s7hSe7DUBS074ESYKitrNTrPHE4IjIuIJp1I8YEJaQjPA5HycY4TP8m0YxvAJOwqQKUdVxv9fcwgX7Yacnep9Lnk5/z9olbWv9zoiVf9LbtnA0oQ1S7HxNN+oyT4t27I9XWQbHy8vmYwANLk2Ty/puu1x9pzBPMF6x8jSq7UZ6VQfki+8Av68EvUAD5BMoeo5JtxHFknfZHcIGZXyxu6CQoWFbeRurFrxmVNta5y3z8oh45G1Hr55A1G3U0BVysTW53xyJEQP0Knq8Qfull/6yPbLAVfXw9g1jn44MCCyvL/jQS82XwCy+x/QCeKU3U3w8DdyOC67E3YUwuftnxTFzJxvxy9DfJmgOOGWDmF3v84Bce/+Lv4iOAl19S6bP1/ue9feK+L/s5qWcv10bRfTqwDMuI/4/o0AB+GeeKVLv7ZVKP4zfVYOaXjN5/c+/7PpV5gvmCla/Bgh99YSjZ8Cku/6U7qugZYSNVdf8My5Y8QUAQEAR6EEiaL3b9raeuHAgCgoAgEIpAsnyxNQ/5ha07TKIrfHiyduh3MMGFoidMwcZtcd1JnyU6DVYnZWP9rfOSMl1mYaI489vBCjYuP3Q+0YmPwQpmkl7bnlSno39sBRdFeAxskRKTnmm6t+bES2zFlFvB5i5RDmuSkzAh5nHreLvLOdcYehLR8Q/A0u9cb27a+hwwDrY8O+WFYAWbtzdQLM0jOvU19PODeo59non7b75S/6YmyRdq3V/7t7+ZuHoS/GLNu5Gss58NVLD1dI+VRbM+S9aH8BG2Mhq/WMd+l6xjrvMp2Hra5INR88l67+P48DLJkxw7Af+lpX9sBRdFIvCLNeOTtmLKrWBztw1rNevsRfa4AxRs8eJ49kedRNa7/gVLP41f0tbnAH6B5Zn1AVjlBSnY4p20j4bPI+uDi4kmR+eXXt9/vQ9ZcB6BL87o1stkQW8z2wXDG0VmL9hPrcMWlWC3GiIH/hOSKVmCgCAgCLgQSJYv9uCrqYggIAgIAlEQSJYv2Oor38Sk8OAx8pJRt7DSbPo3fBYi7iK+44rJUArdH644cypVwSojivDS1Dm3+0tmun/+KyZOOeTL4WVm/4Ko9vjwMnouK+Pm/qV76amemYFzttJjqzdeHpyM8LLaeX/HxP190Wr19v5Hu0rflkqWLzYUEL+UavwCpRnNSZJfqiZDKQSls2aZZrzJtRH5BUscrVPv8DeR6f75r5g45chwfrHm/5JoRJL8AmWc9Y67oOiclvj66SjBVnpnP28vD06mPSyrtRbcQzQxIr/09v4n07e+KpuYL1gfw3qZvJdCUbLhM1uItK2Faf3GkAKSJQgIAoKACwHmC+aNKNK8Eqb1b0UpKWUEAUFAELD5gnkjijSiXFOe8UvlFHwWPds8ercTfFa0zLzeXC5Ras3RROMvSlQqufxhp9h+zpxa6exfZ7PTaviefY51tYeXCcvlZYQj32suwUtR3f7e9FJsVTjkxHhqJvs845tQuNbGr5Xs0WHfj2Cll2Sj+v1PsnqfFWe+YN6IInUodyDP+KUa/DIpgF+at8dRYUXL3Bvi58kcDQO/TE8zv4wGv7CfM0fS2b+OiPzCPsd6wy+8jHBCCL+4/b0543T2zC8cuMKRDPbZOvpaLM9PnV+s424OXAbrdD/pvX7/k26gjyowXzBvhEu4Xia8bs7kFoqS7bjQO9IIs3gRQUAQEASSQSAqb9T9N5lWpawgIAgIAnhJjcgbuyOWy3ZM2XKNlymOvxBLLx/3++Xi/ne22P6knLHwMsySIc5ZfM++txZikvsArKsenYgog3fE89xH4z/mPgs+ZsXV8mvQ5jFEj88gWnFtcFlewuhIOvv36HiMB8tAXwU+JmE/bJz/rzJ8NN5rKhGcxoqzNjjxbtuJpa8nm8tt+C3Rf2Dl82A1fL6NIVoF7E1SiyWZjmSqz5WHQEnyOecq3v2OfxM9ORtYlBA9BmXK6huRr7xl+IwDOUy81J9uSkn1/pvaypa0qLyxNY/4hZ3qT7sQSy8xJtNSxg7wC/uT6hZrLn47pQZ+Yd9b/5hD6taBpP6CNlff4VTx7K1pF3nOA0+guFIvXU3q3qNJ/W06qZe/GViU2Hl+t6Szf+rOcRhPEaknLnCa9+zZD1ss/3el+AiUJL+w4oyDBLSAX0YH8MuK35K6o4bU7VWk/gxF4mtmfrFGHNvTr4z1mYMazArgl03/JnXPkaRuKyZ1FyyiXwvgF/btNzMiv6R4/3uAyMaDxLwRrpfJxjGl0KeiFOrkYpU5YZ1WzSHOJMMqSp4gIAgULALMG9bQTyQefz2WtIgIAoKAIJAMAswbYy5LXGNfjvLLsfcmHpteYv/zsKJoi6ealGTsa+kFWKk4wRFaNhMtvgST6kHA80Pxunw05AR7eWPTGm+6fvbml+AoHUsoHVl9EyzWoNSabLg/7Bduz0K7ZDr7x1ZkLKrT3ut/OT0oTy/L56w4Wnolork+BEvItZxglzJZ9x3cj7LAgJWcLIzt6u/CUudqvzUYL8V1JN19dto95ApvREMnfctdmPR+DEPpxqp5AxSi38LkfhvRbCxR02Xa1xAR8td6qv881fvvbyl7Upg3TL9frYdq57NaSm6cWu+8L/mO7gK/dLr4ZTp+S7qAX9QjWAroRCBt3Exq4SfguhD8MkXjl5HgF17eWB/OL+p5/J6XufhlMfiFLdYOM/ALB17YttDuVTr75zwzQRySLL+w4oiDNWwGv9TH+cWa/nEdUfDJfophwEpOFmCrgIF1FPhF99mGpbg9ku4+dzdsHQGu0yNbc97au0g9eWGcXxo2kHrlWvR3K1nzf9XTLefAmn0VqeWJ+SXl++9cKAv3zBuW6fcb7+uc+GH+HuW9JRuc6w3E7YNKOUQ4UqCIICAICALJIBCVNzhSoIggIAgIAskgEJU39hcQv6z7aRzBMkxCTY77d/wzrmCLl4blFVscGGT8Rw2JriSOROlWsDlZe59xjrz7ohr7vK/65716tDOenL50LtFbwDOmYOxWsHFtHusbsOJwb68AI0fBxr7XeKnt4bf4FWxc37L4b2alera/fVYCrIRCzZl4u0tsvNW8pLpiEpSvsMwLk1Tvf1ib2ZAXlTdcll3Z0O1M9kG9+ZN486zkMlm7bQC/OAq2eGlSQZZXUy9wlTIcciRKt4Ktu4ja/rShMJLg8ysmfdU/cy/CU/EMqsehcFwKfokpGOP8opYikuczn/Vu//0IlqF3K9hYqYalttbxP/Ar2GJX7QN+GWrml5hCzcQvK8AvpiXVVZNwvxLwS6r3P/wO9H9uYt6Y2a2f6f++ZrAHhWDJNg74lQVi2IUHu21DYLZkCAKCgCBgRIB5o6sVLwLB9EJd8HPRus5YXRIFAUFAEAhEgHmD308GlAcWIfZ51Vwg/LLux0Q7HohjUQkLEZNwhMuT+LVPE90iwsmumuUcmfcHlpnTG5ab053Uvuqfc71k9mwRuON+c426V7EkFxsLL+Hl5aMj321bPbGvPLZUGxjym7RrZvZvleG7+T5YXDUFPAusgNtyJ9GMa/394rb2h6xmSfX++6+UXSnMG6w4DbuX7PPqQACm2TWa3vfmTfDLRhe/BDnYR4RL62xYAeoSxC+1CfhlfwC/1CXgl77qnz7OKOc7wS8bAvhlD7iFNxbml9EnkzX+PVDafwHRU8EvbKlW1M/8wks9ddkBfgl6Fphf1oJf2I+bLtzWrhB+SfX+69fJtnPGivkjOPhHGbrM/6g3ZlvX09mfQlCyTQwFrB1fEagrtIhkCgKCgCDgRwC80bEDX6om+bOclJa15i/rTr7sBQFBQBAwIcBfzNuxzK0M/mGChJf5mb6sB5XPxXRe7slLEzf+ztv7yqnec/cZLwONKomc5zcETII7msKv0Ff9C++FOXcfJsFhwoqXmTfAPx6scEqxLDabhINJlAzz94gtzsKkOWAux77ZwpRsqd7/sL5kQx7zRiv4hf3bBcmBAuAXXu7JyzNXafxSHcIvvAw0qiRynr8vgF8OJuCXvupf1HG6y/Gy2zCBEs2a+x0itvKryDJ+QTAJKjPwC1uchYjC0lHLlJ9IyZbq/TddK5vSmF+YP4YcGdYr1s8EEHNYtdzJKwQlG2x+Q6R9S0imZAkCgoAgEIJA54GQTGS15vX/j/CxS64gIAj0DoGDdWF2+LBiy3F+6dD4Mzbx345xbbC3+tfg0+dP+A7a7sexfKw/LZUUXv4YJu37wnKD8/qqf8E9CM4JG1NRFdH8hVgSOie4fn/mlI40X719vzndSWW/cqlIGFaptJdNdZhfwqQhx/mlXeMXNqjg6KFQiPCm2KJqdQC/VPYNv6i2vWF3IDivj/oX3IHgHBUWGKG4iqyznsKS0Czll/IAfoHfuFBJlB9QOeX7H9BeViUzf4Qr2cL1M1k1mNQ6k+DtIrVGs6wW1NIh0rE7JFOyBAFBQBAIQcDthNtUrH2nKVXSBAFBQBBIjEAifuFokLkqL51DtB3+jVKVdI39YIpKtET9zub+dYZYyRx6Y7iCjSORHniDaO8iLPaBJUr5OC8SSnnP033Glo0mKR1hSo2nBeWbFLjxWvl9lIhfOBpkjop69ANYstgLfknX2NsyxC/Z3L8QK19rHqwGwxRsHIl0L/hlB/hlGvilUuMXJ0BLpn6XsGw0SnkCfgnK7zR8IDJeIA8TE/9Gw/UzeQBJISjZ8FkuRLrqQzIlSxAQBASBMAQ6wjKxnDTBl+Lw2pIrCAgCBY1AAn5JZImSz9g1rjKP7rkFRMlEXOVopJmQbO9f0JhNEVG57PqfY2HP76FgWxJfojwSvpR0JVtQu+lK72iwlzmWjfG2OGia91w/C1oW2bhSL1k45xxhNkzaC/j9pc7ML+rB0xGR1+CTLQjHTPFLtvcvCA9TRFQuuwwBEVZiye6+OL9YE8AvPiVbUMNpSj8IfmnGMuoKjV+CfOB1X9aqmWruQF0B80ti/gjXz5gRzalUeB3MeykNHSE7LhcRBAQBQSAlBBJ8tWfH5SKCgCAgCKSCQCKrICfiYypt53qdBvMkmKqPtB26MzaeDe96HKRG3zKFQ7b3zzTu8glExYP9Oet+RLTki4gU+HpcwTagmGjQDH/ZvogualKMDZ5nRz3198h27j/+IkMO/n83rjakF0hSIn5xIj4WCByeYdYH8Asvf2NcfBv4ZSD4Rd88jabxJNv7ZxrqIPBLiYFflvyI1LOXw4JN45fBBn4xez4zXS31NJNibDj4BVFPjcKBGqYF8Et9AfNLYv4I188Ywc6txEKwZAtVJKp8dxqc6d+jVQLSZOKE/0JsVtFIUrwElwNKxDaY3qoMfSnO9NikfUGgtwgIv/QWQakvCAgCQQgUMr+0IegM+3QrqvaiM/0aO3Jm01ve9KlXEh12szeNz5ZcBiutX/nTe5vS1/0bgHex3oopaie3aYraOeY8KCx7ec1U63P002Fv94/28P8leuF9UK4iqp1bOKqoabloA6xM9LLuegV+rDhqYqFKM/iFfbqVePnFmvMNUhvvh0Wnxi+zryTrOPz+NFGLPk+0PAP80tf9S/VZdePBQQAMothBvi5T+pFfdoNfxvj5xTr+FlIPn4X/O15+sY7+Fix6R+gjQJRm8ItW1l8of1OYP6zw4YXqZ8Kr5kZuISjZQu8Ef3RLYIsSWr9gM6FYs0biZXbw2YDA+xh5zrqwvn7Pb+Fg9Dd4mZGluQX7eynUgXsehkIFIQ3jnvJ9cM1paWjI1cSqSzB5XEZ06F/w9bnKlYHDbVgate8Rb5qcCQJ9jUAi/kiU39f97evr7cIzOuZc71U5+uQJDxGt+xnRrv8QHcR7x8RLES3zem8554wVNpmSvuzfKEz+tv0Dk7omBIqAVU0qErT8mDHegHc4R6nL15odoDiwBka/cqp9Xvtjokmfg4J1kPdarHg76VlEivwOlnxBCVIyHPcePD/2w95yztmqgN+Ek5/v+wT8YeHdvqDnR1vAL1M0fkH0SevdD5Na+lMEZQG/tINfZl5K1twbzL8WDq6QKenL/k3EM78e/MJRTztT5JeA5YMWFGpqhYtfcC3rpF+bUUuGX1Lss3rzR2TNAr8Ua/wCxZt19nOkXsO9ZiVr+XCyZnyS6BAzv6hXrjOPoUBSmT8KXQpeyVboP4Ckx28VkzUKyrWheGnFcUIZAJIa8WWyhn6S1C68GO0JIM6EDfVzgQEVINSjvJ1gC73ml71pciYICALpR2DQMURV89LbbsloW8k2gl+QtJeB+qdFyaajPbDSfw/YafiB5/SSci4I9A0CvISRFSusWHNLJfxzHYlJMPEWIvugkNmfwf/hmehfkB+t2Xi34o0VbI9MwOR/T8jAA7IOLEMGq1U0Phx2KtE7sSqh7iX4SAK2VbMCGuCqhvfCdPeZrQTX/gDKjev8/aiZTXTsPf50PWX/i0Rb79ZT5VwQ6EGAlzBabNEExZpH4J/LehuU+MRbiOwAv+zKHL9kpH9dZj991klQgvEGBZu6czz8IqbAL/sC+GXMqWRdsAVYgV/Y91ltCL/wMnVd0t1nWAmqN26B4vR6/UqY+84mawGUjYlkF/jlLeGXRDDle/6AfB+gjC+9CFijQTrDoOE3vUiFXWpgDVmjr0M434vCSmVvXtUCsqbc690O+RcsYGqzt8/SM0FAEBAE0oXAkDMxiX/Cu81ZhK+92gQkXdeTdgSBRAhwBE9e7pmKsIXbq/w+kkFbnUz0r3lj+GhjPucME9HwWnYuRx3dC8WAScrwUWIUVi6EKdi4nslPWyb6vPaH+Mi5wdTTxGnsjH4plg+LCAJhCCA6Ymy5Z1iZoDxYuKknP4bcDPJLJvrXmIBf2OecSdEVhIM7na1sWfFokgrwyyTwS5iCjeuZ/LRlos9LwC8NG0w9TZwGflEvfCVxOSmR9wiIki3vb3EaB1gDXxdDL+lVg9aYm/Al9MRetSGVBQFBQBAQBAQBQUAQiFkjLb86Od9ada8QPX0clDTrMw8gW0uls38cfKCBLUIyJIvxjtcBNx+JpG0XViYs9JdiZdy0r3vTM9FnVgg+NQ+TdnzsTEbYv9wzb4OlcsBkP5m2pGz+IwBrJPUSfs/J+Nba/Qqp+47Fc9oH/JLu/nHwgf2Z4xe18BNYchqBX1rAL9sW+n9frIw7SuOXTPQZCkF131xEVE6SXw6sI3U/5rhBykT/iCQljxEQJVse39x0D80a+dXgJpvwwrLnVnwFvQMvrq/h402buSwvNx37A3OepAoCgoAgIAgIAoJA/iAQNDllq4Z0yZqbif57aOLlf7xscc33bCWLKaqkSbnEyhyTdOEdx+QYvtMwgUxX/7gfPIZnF2Ac37f9zZn65qTxcm7edDGN0ynTBCfkz52OpaEhy9x2P24ruNbe4tTy7oee5D1Pps+mvgX9Vtr3Er0I65elX4aStcV7Tf2M/cltuYto4TEYG5SsJjFdOx3333QtSUsLAirotxGUnspVX7+Z1N0zEy//42WLr3/PVrKYokqalEvs48wknQH8YmojXf3jfmAM6kE8/6+DX9jfXJgE8Yupj047CHKgHnwH0e4Qftn6eEzBpd74X6eWZ2+NPtlznlSfTX0L+q207iX1yPtIPf8lKFkj8Mvau0jdezTGFsAvpmun4/570ZCzLELAyqK+ZKQrSqnr0PC3Axvf9QNSO0XpE4iPk4Goodahbzhn8X0HzKnXfxTr85fF0/iIlWm8tDTA8k2tOAKktdtbJ5vPas4ma8JvfD1Uy/Fi37nfly4JhYEALyEOtczciGdgAzaR3iFQMQPR4SaY26jAy+/Un/jzWlZjInq5P91JYb9rPFE+pRMp2r/Ct66CU+OACaRTv9D2wz9MNAuTVF2eG47JPia7IulH4Kgn4aPmlOB22XH7SuEXD0BsSVWN94uqw7F0cRreMw7Ab+BSbG/CsmSF/cx7KvTxSTr7x34SK6d0+6TDN3P2x8bKJh5rkB+0yMMFJw7Db6/qMPsavMSyZRM+puI3yTimKpnqMztEr5xq3/tq9HngINA6xsB+5mL3fnly1o6pji+X6s3HvRwawi+vXk/q1etyaUSZ7ytbUg0Bvww5nKya6bEIpGofnjfe6vBcsHKsPyWd/SsCv1SDX2I+6cAvHPCA+YXHGuAHLfrQ8WyOwW+v9jCyqg9Be1hi2bAR1mv4TTKOqUqm+sz8UgN+wb23avG/JRYUAYFB9uN/C+OxH/wS9EEp1bHkeD3rmOuIjvl22CiutywLhfJXivJ3aDKytCIw6ERjc2rrV/0KNi6JoABq2zVkDRyMNfTn+OtWzMOLz3/s9FIQl8m3WQvMljm4gElKQfwDh2o5+IrUvFhLw2nxWLxsn0wW1ymZjIhUqNeBSeHBbWh+O14YHyVqwxICk7B/EyrGtapMuUiv7n6ZxVfSriZ/GQsh7stmIWgC/pHwngNBcBAFVk628Iv/w/inVeev504pgyLPcj2qSnVjjj2PqeodZJVMQrvoI7fbtoao/gH7hdvdTjFeDiqOJatiNtorRzkoIRhjE2buenIsCPQ3As2r8DvFZpK2raZUPCOb8OLzmDkvaioHR6gB91UdB94Al7GFbiM+NjSCZxpgsRvmb6VqLp4zPP89Ao448KJdh9vlgAvlUAIQ0nfeibwXekrGDgaUYtJ4JLgLz2slXuqZg3iC2g7O4j7suR/P+z5vnbCz4mF4/sElrJSswOSAlZadUEAwfrztBw+24iVXlwHlGEcxxg+uMwn8bfILcmwcJiseUx1JEwQyhUArng/eduH3nI2Szv6xlRUrkDIieL/Ys9De0tl+pvrMVoWN+B/B27Z70tljaUsQiCPQDG7hbcujYf/94+X7+iid/WMLL1YgZUTAL9sWxjYcpU8y1WfmlzpwCzZFwi/pu2H53ZJr5p7fA5XR9RKBIkzQTHJwpym1J03V3UeWQclmlR9BqlvJZk28HRO+aT11nAO14QJMZP/rnHr21oRbobzC10pN1PIZmDjW26kDKska/kWi4Z/FJLFUK2mf4lsK0ehv48XsGUQ//QGiDfIkOC7WjFcwuQwYO4pZM5zyXQhBfbh30ltxNFnjfoax4SuNQWLX5q/N++8ktf07mKM2+ktBMWZNe9KXrt6CZd3gc/EV6CPoBL6wuCTW7qjrSG28EC8DrwEnfHGb8Ev0AxNrl8TK8fl++JzY9jVcH1+pRAQBQQDPFP41TrqBaMLX7WMTJnuhyF5xka2o0vM5GMDRL+mpRC+DI2oXEE2+0VaYOSXqFuHIpWSrhlJv5h+ghPM+s07x2H76b4i234YlLFehDw2eLM8J88OEbxJN/EbwWGIV8Kpbj35s+h5erKH8d+T49fjOMMI58++PW9udBmXhc6Pw8WKPv4ykCAKCgCAgCAgCgoAgIAgIAgWCAGYSIoJABATY4ssg1oivkNp0KQw62g25SGp8Gsqei/15LUviaQ2PGZVsFiJ6KpOSDUtXTQo2aoZCrEfBVkHW1Id8iqX4RbWjQSfBwmsulr5CccXtOOKxRHESTfsBSIS1BwsmtdaIr0K5d3ns2E4M+MuT+SEfJ2vQacSKMwrAWa9tjfsprPIm6snx86IhZI3/FaktXyRr0t9g5VYWz9OPas+DYRuUnuveC0Vbs54r54JA4SEw+abEYx76PpjCQ5G25D2wnHlLK9+jwvamj76EaNyXvWnuM1aITbqOaDwr97zKc3ex2DFzxxh8QBjyLvhPOdm2RtMLsbXarL9iycfxeo7hHH2uOYno8BOgPMQHjt1/t8sEfKDwNwAOZIs3EUFAEBAEBAFBQBAQBAQBQaCAEWDNgIggkBiBFixPMkn1O8ma+TJZo67Fkqa3+SdZvLyKl0TqG5ZqOsLWbkaphsWHSapONaWSqru3J90a8/3oCjanFpZFWZP+DMs1KPF6I0MuwlKwKxJPkt3XKJlA1kRYrvDSrCgSpmBz6qOMNQVLysIUbE5ZXpJae75zJntBQBCIggBbmrFSLKqEKdi4jdFQmk1gi7MECjb39comQzHGz3mFO9U+nvaLiAo2V1VW3h36l+6lrK50ORQEBAFBQBAQBAQBQUAQEAQEgYQIiJItIURSIIZA+2ZYiQX4DmOl1PDLoND5B1mz1th7jkQK6zDjxE+HtAVr/tucJUeuTPalxn7MNGGrL5/wenn2Q8ZSNhMKo/PsY/df9u/W8ATW1EMZ1/yyOyd+zD7k4OOsR1RLz2HoAS/7ZGs++JazRl4VWjQws/xI+K8z9DuwQnozrGGfQoOwZhERBASB6AiMwDNbMip6+aCSvMR08vVBueHpg44mGgXlvlvYJ9xQWKcapQt8blie7pRlJV/1ifZZVOtWhwOdNmQvCAgCgoAgIAgIAoKAICAIFCAComQrwJue6pDVntsSV2WrKbZowzJSa/LfoXRbDaUbrCyGXgoLsSGB9d1WaJ5CVad7TqG1gxLsFC0Np02L4A+t2xdQxTH+fKSoDR/D9lFSmz+PpZFn4Rj+zNjpuCaWy1JOrZhDaunYWB2tWOyU/bDF8pdOwKR1Pyz6vg5FGxR1uiDAgFpzOqk3x5BaiQnxfizhNIhVi+WqUQVLbtXmyzGOC4n23hFeC0pFtelTWA4LhUDdP8xlOShEcRqUBebWJVUQyC0EWCm/7kq4SsOy7OdHw/fZ1eb+85JyVnKlIqzoOrgL205YxH3HzJEN+CDwKtp/GhZm3Jcdd5ivNPJj3vSak73nztn23xItAkctqsa4xhBtxHVNUj3PTn1hPK6NZaArwDMmYT9snP8MuF+ijJoQkjRBQBAQBAQBQUAQEAQEgQJCQJRsBXSzez1UDgzgWpIZqT1eelR5HFljbsSy0tdh5fU1GEthUqpLwJJRS18yypExDZFI3Uo6C47+jVKMCaVbGp6Ecu55d4p97AlUACUcW8nxZpKevG5lHQcj0IUjrW64CH6bliIH5Tiq6Zb/geXdv/WSiPo3F8tcp/jT9RRYFqq3Poj7Ab9JDY8jcAGUe0H3pn29rYir/5ftIw+KOWp+VW/RPh8YrAg1V5BUQSBPEVj5CUQQ+xGsbDcjoieUYJtvRsRCLKM0CVuhRRW2+Fp7BdFLM6DoqrGDBdQtJNKVZNweK/qWno3n9nUcgzu4L6sugb+0e/xXqz7Bu8Sz0sCDHftx7S/FrdjadyDQwXfRNvqkCy9DZeHr9vCcneT9282PXE5EEBAEBAFBQBAQBAQBQUAQKHAEoAEREQSiI6C2XEEWBxcYcoFZWRbWFCvXRnwZOrbxMQssT1Eogqh5MZRMczzJxFZpbAHXsc9OH/R2bz6f8TLNAw/F0wOWeFrjMGEe9hlMWJ8gxcq1ppdg2XU+xgErDLeYJpzu/KBjXjZr8ovE/ug6YK2iidr1I7JqztRS0R1EY1U7f+BL9yTwcteuBk+SAgamSK5U/x9MqnHPegSTYR6/yeJPx6KnjhwIAgWEQMsaKLL+6h9w/bPgsI/6000fDvylkIJnbzkU8Xvu9+aWwFJuYKU3jc/2/BMKPijCdNl4I5bof0hPhaIOfdvQveR02y/Aiy96y7RtQBe6l8DHPoAciWWmF4N0TK8ClreunAkCgoAgIAgIAoKAICAICAKCQEIETG/WCStJgQJGAAottQ3Lpnb/FJHo3kdWFZRelbCgiDzJBHZs7cWWVHvv8ACp6u9FhE9NycbLQwe9w7bYQmmr6jRPndgJLLmo80BPumpdFexZrAzWI9isYZ9DeQXLkHWYiD6CoAn/gKXZ8p42Ujoo7bb80CvXnEXWIQarNePEFpVL0ccEotpW+Ut07PWnIUW1LvOlq4NbzBhZMrH2gSUJhYfAgefw4BgssxoCLECDnmUduXoot3UFG5cpn6aXtM+HgyvnjPPnBV2vwuXDkvvq9NcCj/Ly0SHvRkTSy3C9KeBB8FXUQCv+HkiKICAICAKCgCAgCAgCgoAgIAgYEBAlmwEUSYqAwMHtmCz+hhS2mPUW/LBZWBYaW+5YfhTSykIbsUZeTUpTslEdrDtGXQdN2kBPXasavsx4WeRALK0q15VwmAvryyQPPGpbjhWN8LTjP4FCqXQqLEKmkoXADdT0LJZxfgmWI5v8RaOksE+zIOFloFGFx5lITE7L2aLPJPAV5xMFBaOIICAImBFoDeAA03PHLURVTh+Aks0k5eChIOFloFGlqNZbkpVok2+A9R0sj9MRnMHbupwJAoKAICAICAKCgCAgCAgCgoCGwADtXE4FgeQR4OhzDY+R2nEj/IS9n9TyGbaDfVaiOUuT9FZZkVSsWWjwkkoounwy6FRMYqEPHgRLDE0BR12NMZ9knjpQKqlNsFRjRWAyworCafDTVnZYMrXiZYtHx497cxRkpdKbNqPWFeVbVKSkXD4jEKRM6+2YnWXvejulY/WU1M7d3DGwClZwi4jGfUUUbKmhKbUEAUFAEBAEBAFBQBAQBASBpBEQJVvSkBVoBbZSq/2wd6s+wwyGarMd7MMZv1p9IpZkvmUuV36EL91nlcYlWCFXcay9NFWvwb7Yulr1VNsqDddWO/8XS0nr/PlBKQMqyRr/M1upF1QmKL1jd1BOcukmy7PkWuhFabFw6wV4UlUQCEegs8mcz4EV0iFuJd7kG/Fhwm/523MZViSyjzkO6NC2pSc5fiBcEMdCjgQBQUAQEAQEAUFAEBAEBIFoCMA8SEQQSIyANepaeymouyiUW2o5fAlxBLwggTWZ2vcHskZf7y9RPNKfdgBO+hUUY5qPt1iUUbZo08SolHPKsBUdgguo3T/pVtLBtxv7jyufHa5EK4Nfo7JDiVredFqKtm9bayyn1rMPupeNecbEVAMvGBuTREFAEMh6BFpWmbu4ZAEUYfAPF1XcXGyKVsrtbP050Y7f40PEkrjfuSHvwdJ5zbI46jWlnCAgCAgCgoAgIAgIAoKAICAI9CAgSrYeKOQgFAF2nq/7FWO/a2zNVv+v0KpW6RRzfofBVxgHMMDSU6p+r7dOLFCBNykWcbTxGW8iomNaI7/mU6KpA4/HlrPGCg8YBAsPLA2txsRy8PtRttTbBp+xoi1pJRuCKJiE29L7GSsHn3ADq/01+lXJJtYr/hsiKYJAhhFoDlCyVSL65/7/Gi4O7iga7E/v7P7gUTrBnL/lR0TrrvTW44jCFTO8abEzXENEEBAEBAFBQBAQBAQBQUAQEASSQkCUbEnBVbiFVcsSYzRKa8xNpFgx1viUGZzqdyGq3QcMeV2wpFhkSOdABvdBAaYp2Uwl6x9A4Q5vDiuthl/uTcOZVX4k/MVhaRQL+3HjiKLYqH09lHJft9PdfwdUuM+Cj90Wd+xTrqsBQR/gC8kl1ogrcK2Hca2NrlQcDv8cWaO+5U3DmcIyWz3yqq9QxhJEyZYxaKVhQSAIgfYddoRkXek+4Ro7GmnrW96a46Eom4JlnrqsuYxo26+gNJup59jnLYYPAcPPA0GWmMtHSe1N3SjtSxlBQBAQBAQBQUAQEAQEAUEghxAQJVsO3ax+7Wrzq+bLI4KnNflvUFo9SKr5DQQb2BSzDLNKJmJZJqwwqk431+P2Ovaa8w7Aks2grNILq/r79CS7zYPbEFRhjDevEr7hhn0ayqvbocXqtvaARZtVNNxbzjlr3+Ache+r3wlLvn+jvwj+wL7oGhZCqXiWt87AWrIm3YVoqrchH1YprJQccgGUe1d5yzlnLcBRRBAQBAoLgX1Q+g/H0nK3FA8lOvIhLPH8GbgLS+k76xGB+VJEDL3eXSp+3NDN0x0Bfii5/e2/AVfhIwfLUHDVdCjlTKIHmTGV4TRuY88/0Lcm8KDBP2ZQPUkXBPoSgVnfx/N1Wnqv+Nol+J++LL1t9kdrp6/BcvHh3iuv+zHRygCe8ZaUM0Gg4BGwjsNHrzHp5Re18BOwZM99frHOhyudMo1f3vwxqVevK/jfjQCQ3wiIki2/72/6Rte6kmj3L/CSCksJk8DyLJL1WayuIrXrp6ZW7DRWVtVjYlkLC4sgYUVa00vmXE7nZaAeseAX7gYiVmxxXV4iWjIeJSxPqdgJW7o1LtLSO7Vz+9QaewsRb+izWjkHVmjXkDVoPpaB1nrLY8msNea73jTTWTP63vy6KUfSBAFBIJ8RWPtF8Nbb8YEAijW3lMPv5VTwJW9hwkEMGl62SzTzizlbpWr8NvhUouM346MIeKYC7VbMssub/vIyUo9oVsNO3vRfQ1GHjRVsL0wAv+5xcmQvCGQPAoOPwfM1L739KRudnUq2gZV4f9LG2tVOtO858/h5HAMrvHklw7znciYICALBCAwDvwzXnrng0tFyKvBcZqOSrQj8MkIbayf4ZWcAv/A4ijR+KRN+ifYjkFK5jIAo2XL57vVx39XO72LZ5RHwZ3Zyr66sduKLD/tdCxEOaGCFKdnq/ona5qWNasf1UHShj0VD/FdA9FAqxeQyRNRuTBgdazenXDsmpmES8+uGSWnHTlJbryJrwm/DSpvzYOGmNn8BeeZxmSulOVX147XTPBRpThDIKQQ4wigv95z11+S73QELt5UXoV7388tWZax0q4HCX5cSvPAOO1tP9Z/rftpaN/rLuFPYR6dPMecuIMeCgCDQJwiMOpNo7l3+Sz00HG4r9vrTJUUQEAQEgagITDyTrHf431PUH6E4axV+gHoZwgAAQABJREFUiQqjlMt/BAbk/xBlhGlDQHWS2vQZe3mkM5lLpnEsqVQ7f4CIn/+XuFYTAhp07A4sZ1wq6pTmiKZboKzSFWVOftiel37u+qG/BAd+aF3lTzelwFec2nEjLDtaTLnmNCwRVevejRfgTeb8PksVJVufQS0XEgR0BHbfTfTW1fbycz0v6LzhFaLXjgM/rfeWWHUJlnA2etNMZwd3EdUt9OewMm7C1+PpjbCwbQIPiggCgoAgIAgIAoKAICAICAKCQCAComQLhEYyjAh07oei7VJSa94e88PWYzlhLNydyMEJ9t5BatXxUGBByRZFoNAjDmxgkra1iSN/NjxBavVJsQAHpiZ8aVCiqY2XYGyfQpZB0YQxqPXnYsksfCOxT7VEsvvnuP7bgsfg1Gdsdv8UCrYzidrWOanxvYIJth7cgXO7muJlnKMgpR5btejCPuREBIF8QCD2u+/yj8T0u/eXMiuiguoGXktTZvHSLH52dYmi9NoMS9+XDgUvQOEWJswLm75HtBg807LaX7IFPPnG6fElpP4SWIryONGr84g232LKhSUcONQRvt6SBbjm9/EBBJZzIoKAIJAfCPD7li6mNL2MnAsCgoAgkAgBE5eY0hK1I/mCQI4hIMtFc+yGZU13W1dAKfVJLMkcgeWXk+FHaAJ8nE1AIAH2J9QFvdA+O5omR9Rk5RGUc8mKanyarKG4hiaq7h4tJeC0fQP6+HH0EX0qPwrbHKxmGo4lTeXoYiMM3bagj1vtYA0xP2gG5Zq7aUQPVTtugqIQDoE5sAP7XbOgp+5qw4Qa/og6NTNp+H5Tmz6N618Lp5+YNJfNhCu4KbFJvQJ+xFsbJsemybhzXQSHUEvHOWfhe1YUvjkqvIyTW/d3RHH9u3Mme0EgdxFgC66nevGvbFFN9LFHvRYr4p/G8slUpQ3L05efD575ElHlEdgOt32odaDdpqXY3oTvRvAHc0+YNLwEKzd83Bh8CuofBg4E/7CFb+smWK89abfB9fl6T4HLEglHQV1/DRRt4MEytBXzH4d67I+NFZAHg62PEzUt+YJARhFY8gX8/vGeYpKqmURH/MSf04j/z0su96c7KXufcY5ye/8EuEH3yda6PbfHJL0XBPoQAfXsZXClE8Avg/Huf+JP/b2pX03qWfBSkOzID35Rd8/CPKjCO8pm4RcvIHKWjwj0YmaSj3DImJJGAIon4o1ejFVVSTcQXMGqmGvIxBX2R1SyObU5iilH9cSWlv6xFRgryKIK/LRRI28L03P9qNeVcoKAIJDbCLTjRZS3/Y/2YhxgPV4Oylu6hC39WNEnIgjkCgKNq/A/GJtJWvGxzSQtUEbvDvcfG6s2oJSoGtHUa2ZjD6V4URW2Srwn4Nmtf4Nox/14jvHhMaqwMnD46Zi0T4WCHVsJPg6274HFKpTh3Ncd/zaPZWC57RexqNp8pWJ8UOiCkh0fQqnDZX1bXGv32V3rYD3KNLhT0J8ZfmVcA5T+3GYpPriOOQ9lDkEfBqIelO9N+MBavxjRhxd62wk6G1CMiPTAr/ZY4Hg4SqGfLcDwAJaq73oEHwhwXgWFII/DLQeWeMfjzpNjQaAvEKgDt/BmkqYAfmkEv2yJwC8DwS9DwC9DZ5PF+5JufoGiSu3Fs7EB/NKWBL+wMnDs6WTVTMNzBn4pB7+0gl8aN5Nq2oKPaOAX01iKwC/8jBYH8EtJN7/wc3rQxS+l4Jdi9Nkt7eCXgxq/DAa/6Mq4fd38Ug5+mXIe+oz+Mr/AwEHVw1p/L/hl20J3y8HH3Pch4JcRxwJH7NFP1bQNbQDDLd38Ugt+4XG4ZR/4xT0ed54cCwIhCBSF5EmWINAPCODFjB1oV58B59yf9V+/8RmQHf4JiAgCgoAgIAgIAoKAINCfCNQeR3T0H6Bcmh7cC/Uboo23ES27yq+4ctcqGkQ07euIJPxl+z3Inec+PuwWKP/w4XDVDZgg4p3IkQXrbWWXc67vT8eklIUnwQ+PshV3fH4yogJyRFK3rP85rPi+6E4hejsmvDEFmiv5xfdDuTgH/f6qXwHnFNu7CGO/Eh8LXnJS/PshbyM69l70HxN+k+x/EVa5FxPNX4hJ8FBviTc+B0UDMBYRBPINgRHHkXXaH/GMmfnF4vGe1IHAR7eRevFrfsWVG4/iQWQddTXRkeCXgZhnGSTW3vE/INoKo4RXr4dCP84v1kc2QCEHZVeAWOdDqc7Cyqs/jbQVdzi13v+8/dEhltn9Zxlc6jx7uTuFrHOX+fhFPXI25oJYhTQbY9MUcLG+cgs7FpF64StQxIfwy6i3kfXO+2CB7+WXnjZ2vUhq4cfJOusplPHyi3oGc9EVwi+emyUnkRAQJVskmKRQnyBQcQxZU/BFxgr+Waq9f+iTrshFBAFBQBAQBAQBQUAQMCLAyqaZ19lKMV3xpFfgd5pJmKiNeBfRMyfb1mh6GVZynfwCLLVm6Tnm8+HvgFXGCUTPLSDah0ksC1vURRF2c8FWHT3SM9XsScGLmOu4+5Dr6TLrJtu6TE93nw+dT3QiLHaenI0l6hvcOfbx+AuJjro1vP+szDzhIb+CLdaCoa/+q0iKIJA7CIBTrLnX47mA0j0RvwwAv8z6LFnj30XqgZNgQbrVP05Y1lrvh6K6NiK/jH0HWSNPIPXg6UQ7u/mFLeqiSBr5xTr2u+gzrMvCZNR8st77OKl7jsSKpQ3+ktMuJOvk26BYDOk/KzPf/bBPwRZrzBJ+8YMqKVEQMPzHjFJNyggCGUBgQFWogo3a8ZW2ASQoIggIAoKAICAICAKCQH8hwEqz6d9IPAF2969iMtHx+JCo+z/jMrN/EV3B5rTJ7Rz3L0wMRzspfb/n5ZtRhJfQzrndX5KXxR4NS50oCsKKSf76kiII5CMCUJrRnCT5pWoyWe96wGfxxfBY838ZXcHm4AnLMeuMf8Ofaz/ySyIFm9NXLEe1Tr3DOYvveVnsaX8KV7A5pasmOUeyFwTSgoAo2dICozTSFwionTfDDLmzLy4l1xAEBAFBQBAQBAQBQcCPAC9XnAkrk1Sk5mii8Rd5a7L/MT2NS7Cvs52w3tryF1irYUmnSUqGEI18j53T2Wwq4U/jSMEcAbmvZdgpfoXgjG/1dS/keoJAdiOA5YrW3BtS6+Mw8Mt0jV+GgF/0NG6d+WUz+GUt+GVnAL+Ugl8mdPNLR0R+6eonfhkNftEUgtYx304NR6klCKQBAdiYiggCWY4AAg2oXT+EI85/ZnlHpXuCgCAgCAgCgoAgkNcIHPodLFvE5FOXupeJXv8MHPUvgTJprK2Im3CxXgoKtY/Bh9iv4+m1x8eP3UcvngU/Q66gJyPOgCUcLEv0ZZvDF8Dn2++IHh2P2ljaNPbDRMf82d2SfRzzw7YXx8r2y+YvkVoKK+1WQFnGwQk4oMLY84gYI5Nw8AQncumw0+DMfb6plO2/bTt8KPHy0tp5cHoO/3AhrkTMjUiqIJB7CFhzb4RvQgO/7H6Z1NOfhsId/FI51lbETb/YN0Br2kWklrv4ZYSZX9TDZ0KB7+KX8WfAcu1BH79Y495JauXvSN05DtcCvxzyYbLefqfvurYftgzwC5R26pVr7eAEHICAAyDMA0Ym4eAJTuTSMeAXLCU1Cvy3qQ3wAdmwgazhxxIdDn7hZbcigkAaEZBfVBrBlKZ6iUD7W3hJgzLN4nXzcJx5cAeceG4FYS7Gi9uuXjYu1QUBQUAQEAQEAUFAEOglAqwk04WtQl44G1H+8N7CwpFAF1+CpVuDEHXzQ3aa85d9qVVOg++kNXYKRyU1STkrzVyy62EEOngKjsAxeXQLK65YOKBBbN9p7/W/vBIgE6sB3vwS0Xosd3Vk9U1QMo4imnyZkxLfc4CIPQvt80mfiae7jzhAwqKT49Z2W/8G5+aY/J8IJZ4o2txIyXE+IjDdzC/qkfdhPtTNLxwJdOEn8DiAX6Zo/AJfasSRQ+ttfrGGHmVGaZDGL5vBL9vBL6yccktN//KLev4KBE5x8cti8AtbrB1m4BcOELFtYaz3Fi+5NQkr2Nh3Xbc1r1oHfkFEVes9UDiKos2EmKSliIAo2VIETqplAIH2TaR23pKBhqVJQUAQEAQEAUFAEBAEeokA+z/TI3Fykztgae8o2NyXWAWLC13JxvnjP4qIgNfbJTtb3DXixxwM4BBMMHeycu1pWLA8S/T8u6FoKo6X4SO2JOsvaV7vVbA5/eCopyYlW1GNUwIRWbsn7/EUTHyhrHwFlnj6ctY9T2Jp25+wdO0T7tJyLAjkFwKsPEKQAp9sAL84CjZXpnrtO2TpSjbkW1MvQHTQ6+ySAfwSCwZwBBTkUK4pVq7teJbUf86AoimL+KUB/OJWsHWPXW1/miyTkq3ExS+OcrC7TmwHflGPw9JW55dt4Jc14JcZwi9uuOS4dwiIkq13+EltQUAQEAQEAUFAEBAEBIFCQIAt0Ewy5lyik3g5lSZBlhHuKKINy7VKrlMOLMDb1K8gURE1roK1yQO2nzZeltrfcmCZuQdhY3JqVB7iHMX3bN3XvDF+7j7iJbGiZHMjIsf5hgBboJlkyrlknW3wmxbEL64oomrfMlOsYPsqHFgAm3VkN7/UgV82PkBqzZ32slRTX/oybX8Av9SFcKbTv2oDv7B1X6OZX9TK28gSJZuDnuzTgIAo2dIAojQhCAgCgoAgIAgIAoKAIJDnCFRODR4gLwONKsW18ZI7ECGUreBKscQyVCxYf80kmsbb17DsEtYXiy+FUgrWHv0lDQGT4I6m8B6VjrCX0uqlGlboKfHzJrgUEREE8hmB6hB+4WWgUaXUxS+bwC9sBVcRgV8Gg1uwWbPBL7DuUk99En7L+pFfoCA0ysEE/FIOfinGUlpd6kL4pUH4RYdLznuHgEQX7R1+UlsQEAQEAUFAEBAEBAFBoBAQKB+bnlG6fYu1w1n4KxcgIMDW5Npm32ynvQH/SwE+3ZJrLbXS7ftSq1cyzFyvbac5nVMP1gXnSY4gkA8IIKBBWsTNL617ST2B5elNSfILfLNZH4K17ND+4xfVxoEUUpCyAH5pCeGXNuGXFJCWKiEIiJItBBzJEgQEAUFAEBAEBAFBQBAQBGIIhCmBkoHooKacYqu0x+GjbOW3iZJRXLHj86P/kHsBAZwIozpmYZaC5YbluHp9ORcEchmBMCVQMuNq0/iFrdL+Nh1ROr8Fq1ktL6xdWINZp/0x9wICOBFG9bGFWQpWCr/ocMl57xCQ5aK9w09qCwKCgCAgCAgCgoAgIAgUAgLsE80kzy2ADyODzyRTWU5jB/+6dDYTrfoO0ervwnpkPtGIMxBJ9BQs35obrkSrPpKIt/rX9Baz9/zgfluZWDLE28eao7zn7rOwPHc5ORYEchUB9olmEPXg6QiA0kt+6QC/IFCCWgx+GTWfrPEIojIG/DIM/BLk2437MgTcwtueHOKXNvALKxNLNX4JirTK4xwWwj2cLyIIJImAKNmSBEyKCwKCgCAgCAgCgoAgIAgUIAIN5klwTMm1+78GQOBHrXiwP91RsnEkv5nX+yOG7vwP0fKr7XpFVZgAYmno6PcTjTsfE+Iyf3s1mATnkpKNR9C0lqjkWO9Y2FfbhIuJNt3hTWfX7dOv0dLkVBDIMwTqA/iFlVxbA/ilNJxfrLk3+CKGqk0Pknrp6zZ4xeAXXho6+QOIZgx+GWjgl1xTsvHI6sEvIzR+YV9t0y/Gh4w7uIRLLLLmfMN1LoeCQO8RECVb7zGUFgQBQUAQEAQEAUFAEBAE8h0BDlDQcQBO+6u9I2UF0I77oTjSnGdPvZLosJu9ZflsyWVE639lK+CmdU923aUGH20HNuC0jga0/YC9Na0jOhTWbroMrNRT/OcDSvxp/ZnCQRNqtUkw92f2L20c9z5t947HNvsX8D0nlib9ebvk2n2AAAcoaAe/lHj5hRVAaiP45YDGL7OvJOu4//V1TC36PJT04JcSKOCO8vOLNexoUlhCGpOD4BeOKIqNFVPWvBt97VFxDvILRybVlWwYmXXSr0hxkIPt3fxSVEnWfHBOmJWbHxFJEQQSIiBKtoQQ5V8BaxReBgedHDgwdeBxol0/CMwnq4SsKf8EUw0wl1GK1GYQfPt6c36/pOIrxaQ78TWnwnN1te+PRHX3etLSeWJNvB0v0aM9Taq9uOb+v3jSrBkv4KV9qCeN9vyG1M6Q++AtLWeCQHYgMPkmTJxOD+7L3v/ghQ6WG0EyoBQTqoXB/EKKaMWFRC34Spk1AiuLIx7EF2Avv9C234JLvc96Wrt8GLirVHOUzNfc8TvvZY5dg5ft4d60LT8m2hByH7yl5UwQEAQcBHY9AsuPc50ze1+C/98nPES07md45sFxB+uJJl5qW6l5S9pnda/a+7bd4LLNROXjvaWGnQqrkiugiPtFfGkpW7SxpZdJ2CoskYw6CxED/wGlXRPabE1UOvP5a/F+M/4icP1A77XYUm/+QuCyhaiz0eYuxldEECgEBLaAX6Zo/FI2lKx3P0xq6U+JNoNf2sEvMy+lmJWaCZM93fzSCn5pBL8M0vhlzKl4ZwG/LHPxCyzarPKRptZsqzBzTjx1IvhlPfiFI3929j+/qDduIWu6gV9gqWed9RQU+eCXg+CXsuHYhF/iN1KO0oVAUboaknZyCIGyI/BCd1Rghy0oolSYko3rVhwdWD+WUQTSyiYlGysEq97u67PV/BJP2TMnlcdj4l3rad8qe85/zSL8YxtQ7ilHA4X0vYDIWU4gMAjcUDUvuKtslRCmZKuCf5Dq44Lrc04JnpdsUrIxvww5w9/n+mf9aelMqTkJSnyNJyrw8qhLKRT92gcGKh6ml5JzQUAQiILAki9i+SbeJ3TFT+U0oiMxCSbeQmQfeGH/y/ECfD72/Ph57AiK+8N/hIn0DbYSjpdwVUxCDtJ1YUs3DpzgiOpwjrz72b/GBwxsrGB7ZALe0fZ48/v6rGEFloX+HsrIT5mvLIEOzLhIal4joJ69nKwx4Bdd8VMzjay3/Qxj5y1EdoBPdrn4ZSfOB/n5xToBH9rmwiq2CUo45peqSWjUwC9s6eZYvfFlu8z8Yp30GyLeoGBTd0Kp19rP/FIHflkFfpkZwC8S6IDvpkgGEcDMQEQQ0BAonQbCHawluk4rQybQrmJyKAgIAoKAD4GKQ2G1OcSX3JNQ/baeQzkQBAQBQSDrEOAIo7zcMxVhC7dXYV3h/tS29KvBCi+OHloFzqyYjDqGCTD3YS2UcV3tfGRL80bnyLxnSzH2BZcNsvJ6W4mYDX2RPggC2YAAIozGlnum0hdYuKknP4aacfMB9cKVwQovRA+lweCXqmB+UUt+6OWXxgT8wgq7LOEX9cp1tiVfKlhKHUGglwiIkq2XAOZndQsvdMGKNKvi2PwctoxKEBAE+gAB8EvNicHXCcsLriU5goAgIAj0HQJb77YDE3BE0KhS9wrR07DSbV7vrdG6FVH/Pu6dyHpLBJ/x8s9VsHZzS/3rROzvLBekdRvRQlg/73wocW/X3pK4jJQQBPIBgbfutgMTcETQqLL7FVL3YX7WoPFL01Yo3qDYdyvio7bJyz9f1fhlL/iF/Z3lgjRvI3XvHCyxjcAvWF4qIgikEwFRsqUTzTxqy6oMUaSFKODyCII+Hkqn4XqmNEMxSRIEcg2B6hAlW1hero0zW/qrDFxiSsuW/ko/BIG+RKCzBYYfXf4rdjb509wpa24m+i+sQFjhFia8fHPN94iegZVu42pzSVYyPXGYHdzAXMKbWv8G0UsfJHr5PKTHrVZihfh6zy7ANb9v+4bz1vSfdcAvkS7st00XU7kgjLra0C0D77CPNV3a9xK9cCbR658Bln/txqh7TO37iHY/TvTcO+Hv6Zd6Tfvc1Ka5pKQKAn2PQEcAv7DvsjB5/WZSd88kgsItVHj55uvfI3U/3qvqA/gFSiZ196xYgIPQtpzMvW+QevQcUo+dixSNX3A99eDpuCb4hX3DJRL2e6aLiV9M5YIw6gzgF1MbrXtJPfReUk9/Gj4zwS8xjLrH1AZ+2fo4xrOAFPunM4mpTVM5SRMENATEJ5sGiJx2IxCkSCs9JHyplwCYEgJq9Ul+n0kHd6bUllQSBLIegZqAJaHl0+FjbFjWdz/nOvgyJu+6T7b27Tk3DOmwIJARBNiy7IEUX4c5aMEr8He09EvwJXkEll0dDv9HcLnBEUgPLMX2JixLVsCKBJPCRMKRQ198P4IbDMcSrnn2VjYS7jvK7QijzbhWyybbEi7m002b/Lrb5yioy6+BldtNRJVTuv3H4bs6+2NjpSIHXHDk4VHOUfj+wZrwfHcuW6g9UOxOSXCMsWy81d64JPvuZF+X7G/OkZHvdo68+1aMVUQQyFYEYFmmbh2YWu8QtEA9/mGsLroCfl/BL0MOJ6sG70mIQKr2gVt4Y99jrHRKJAfWkXrkbNvR/wjwy/B5CHSAZ78I/AK/a6oR3MIbW8LFfLqF8AuioKqXroYF7o3gvSnd/uPwvHLAA+YXDrjQLepPI53D0L26vTo035PJFmq3JsPZGMvKW0lhiwkiisb4hf3NOTI+gF844quIIJACAsn8QlNoXqrkLAIVMK+18IKkDnqHEKR885ZKfFaC9f9ls0Dwh2KPrWQSXqb2gJhXkMLGe2pdjuvjC00UsfBTLp2Jf0RHkVWGl1zVRooDLzQ+h5fJgC87kdotifWTyg9Du/gKNGCQPVntgM+EFn6Bfhj/UOqitBRehn3gcdtu6cRLepf2BYiVnPpkuXWlfZ+KoJyoeR+CvwLbWLSuATYGLfgn3AQcogjf8zLgWH40xov7Ql34CeAfTCvG2rAwdk5lM9AH7Z8h36uupihXkDKCACaieMFDlGL8QL1oBCnfvKUSn5VPxcTySEx28VJaia0Mz83BXXgO+FnAb5n3jbAESYZfKsEr3O9BR9kTVQ68UPcUJrz47acqHEk11s/Zdj8HVtmTS1aAcf/23A9exJfW3kpRLdpF227prAd3uV4wOa+Cn+0KdykbL/4/UDyCaMR54AZgSZgw8AS4BUqBxsXAYaG3TtAZ8wvfj+pjsWeehvVQbKyvY/nJI/Z55WFoXpvMNy1BXzUuDLqGpAsC/YFAK55Z3nY92vurswJs53/srbetsaUZK/qyUUafgwASJ/t7tul2WJuA/3QZ+xE9xT5n3EUEgXxGoBm/cd62PKrblSU/alaAbQK/YAtRo0Vrly3SWNGXjTL5HLJGn+LrmeJgCLDU08Wa+lE9yT5n3EUEgRQQECVbCqAVRBWrFJMpTFKbX/UMN3QZqadkwAnatcZ8B19jLjIXGHRK3LVvy+ukNn0akzB8WQmT8iPImoiXsuJxnlLw/GQLlExqwwXOWfQ9Iqha434G5R1PKv0Sa58n6fvvJLUdY9IVYv4qgSnWIQ/6J7d7f09q2zWeOta0p7sVaPFktfHjUCIAg+GXoY3yeAaOejBoepHUjutwPzEhDhL42ovhWDTUU6KnjebXSG1B1KMp/8QkGJN2l6itX8M/2j+6UuRQEAhBgB1vVx2Nyd8L3kK99cfG7U79MdHoz3jbdc5qFzhHUBq/DEuP8zExXh9PMx1xtNTD/oFnbKIp11Yyvflec15YKkdQnfkH8Oz04FLTf0O0/TYsF7nKrxALruXPmQMlO1uGuGXrz+Ew/YvuFEQagwIypqB3JS99PxSLc4gmfNXPUU6x+kVYhnElMH3JSfHvWYF62L3g6eH+PE458CKsbi5G9MOFKOPlIFr9OeAALEQEAUEgfxAY/naiyZ/3j2fwMbDoOxvvft0fGNiJ+szricZf6C/LFoPNb/nTJUUQEAQKGgFr7DuIZvn5xRp2DCz63gcDjDi/WHNvIJpm4BdYDFKD8EtB/5B6MfgBvagrVfMJAbb20v1nVGASqIse9IAtnKIKlFXW1IeCFWx6O+WwSpv6OKyzztRz4ueDPwSlz798CrZ4ARyxEm7KfZ6k0BNMMq2RX7fbDVCw9dRnC7ohHydr2hPow+ie5OQPelRZrqqGNLYe0cQaeQ36iwmupmDzFKs8jqzJf4fF4HhPcs9JDMd7YDauTW57CuCAlY6T/upTsNlFDH1115XjwkaArb10fqmZ78dEjyzaCAunqMJWWEdDaRekYNPbYau0Y17DkokP6jnx85F46ZrzTLCCjUuyAuqohfE6iY5YiTUZSvmjoJgKU7BxO8wvYz4L5RdwKB2bqOXgfMvwfBrT/PxCk28imvRt8Itm4ea+Gt/L2Y8Bp0nu1Pgx43jk4+DIAAUbl2Sl4xH4/6Ar2DjP1FdOFxEEBIHcRWAH3t1MMgQK+XduJDrpWaJT8aH3vZjoTvu6qSQcmv8ZHyBazHmSKggIAgWLgNrwgHnso95G1gWbyDr7ObLOeY2sTzTgfSyAX9aCX9innoggkAIChjfqFFqRKrmPAC8paFvhGYdViUmoW9h6SVc6Nb3iLhF8jLrWITBP5iWXycjAarIm3IYJ2Lv8tSpPIGv8zzH5g/VKItH7HVaerexGXOG36AirUzIBVmB/CFd0hdXvTR4v34wiWI5qjfupv+Sgk20cefleIglS0iWqJ/mFjQAv9eMlmm7RAxywcoUVZW458Lz7LPiY67K1Fi+9TEaKavClE8rnofiqqcvgU2A98cdoz3QiZZm77dFQmk34RnL8UjaZ6PD7wxVd7muk85iXb0YRXo4643Z/ydrTu3Es9efpKUFKOr2cnAsCgkDuI7BnIf4vrDGPgy1vh5yAj6z4iMHL6k3C761v4R1QRBAQBAQBHYHtC7HsPIBf2CfbSPDLMPDLwAB+wVJYtfRneqtyLghERkCUbJGhKoCCusJM979WMRcgWB4gVHM0JZs14ssgMkxoUxRr1LW4NKw6XGKNvMp1lqZDVgam2i4vrx18Xpo6kqFmoJikopGexq0RX/Gcy4kgkBEEDkAJ5hZ9aWg1fpsav1BUJdvEb+J3jY8AqcqU7/v4hSZdn2prwfVYGTg5xXZ52eoofADIZmHFZMlobw8nfst7LmeCgCAgCDACHAxi0WlYco+VFMkKW6+9+AHUhU9aEUFAEBAEdAQQDEL969TgiKt6efc5rNfUI3CVUSf84oZFjpNDQJRsyeGV16V9CjN2pF86pWfMPn9s7RthRru7Jz/woGQSLEUuNmc3PEZqzWn4WjCO1CpYzu36Mcopf9nSqUS1F8TTYX1FlcfHz91HzS+R2noVqY0Xw3H4b9HcQXdu6LE1CibDHIRAF/YPt+Z0Um+OQXQaTHb3/00vETu3as81pmc8Eb7h1I6bSK1FGOrVJ5LaCaVBkLit+irfBhyPM5eE/za140b4xfsMcPw1cOwwl5NUQSAKArr/NXakXz4tXlO3bGt9Cz55dsbzg47YEf+Yz5lz9/4bkf9mEz0NK80XwWUbb0Q5A79UzMQy00vjbbD1VQ04xiT1WMK0Bn4+lmGCt+X/kuIXmoRlokVD/K2yf7hXwStPFxG9MJFoxx3+Mpwy8mPm9Eyn8rO//hr08Riil2bgGB89gsRtjTgYE2jTsmCuy/7b3roafvE+Ahx/JPwShKekCwL5jABHIV0Erl2NZekcETWRsGKOl4j+91Ci3Y8nKi35goAgUMgIcBTSB04iWgx+iRIllKO0rvkzqbvxTrhV+KWQfzrpGDve6EUEgW4ETFZpbM3Whskui27Z1oyJYQSxhkFJw1HldKm7j9Tmy5DaZee0I1T1zpsRBXAHWWOx18Qa/gWErP5DLNUKU9pt/CQmbO2xcoqjf8LpvzXxd1prAaeDDUoyKOnUhougUNxlVzoI0t7yPwiuV+n3F8fWfqyYdDALuEy6k9V2THr33h5vdhcm/2yxNvQT8TTniJVs3dFGraEfd1K9e1awvYUldN0KSlV/PxyTP0bW5L/5LX68NeVMEDAjYLJKY2f4LWvs8npk0XrN8s3cKtG4K/CbhBJNl113IWT7x/Ab7uaX1g1EG74FxR0mddN+qZeGU+2vEW2DMpklTGm3HBzBEz0Wjv7JTv8Pgz/DKGJSkvEztvRs9Kt7gtm2GQEALoGyfxD8xX3I2ypb+7Fi0sHMm5u5s7VfAja/iLe/CS+spaOAE/O3Jrx0tm6hnTgG3G8SVrAtPrmHp2k3eGXvg/Db9ojwiwkvSRME8hmBNrxbrcA7zKob8M5yCt41J4PnxsC9CDal8E64zw6CwBFH94FvxQdbPv8aZGyCQHoRaNlF6uVv4iPh9fiYCn6pmkxW5VgYGHTzCwIgqNa94Bbwyw7wi/hgSy/+BdyaKNkK+Ob7ht6+AeSyB8oZWLB1iwUrJ8VWW6wkQyACt/gs39yZ7mOTHzY4QY8p1BwFm7v8/j9jcvl5LDua6E61nfYPgN+frgYcQ1Hkky5YsF0dn7g5+QcweWMlUQ0msmHCSimTc29W1DkKNld9tetHZBmCMliDz8HYfuAqmeFDjr7qVrB1X041PU+WScnGvpMccVu1OWmsVNz0KeCIyb9bmp7F5BnKhNrz3alyLAhEQ6BlHSZLmEyxBZsjrFhjqy3mlyooqN1iUsq5853jSliq6cJBFlih5ijY3Pnbb4VC7UpM4KAMd0vZJCi2qjGBOwCug6LIJ1DWrb08rmBz8vfcC4sKcOTwDzsp5j0vo9QjfHLJPf+MK9jcNdnqTleycf7Ij2JseFnsK+Hoq24Fm3PdumfMSjb2c+dIOazedGFeWQ6suj+E9GTXPUm0809YEmv4MNBTSA4EAUEgbxHoAjeIdVre3l4ZmCDQrwgwv3Rbp6l+7YhcvFAQECVbodzpqONka7bqM+KlnWiiiNDpCzDAPtzColE6rZROc47ie7aCY6WeSXiCXPcPBB/4sj+3bCpMfhfbCjc9t+EpTOK36Kmxc7X391CIJVCylU421qWas8g65N/+PM1HXE+BUsPEsiczAwdtq8yNcsTYRFIyyV+iHZPqIBz33UmWKNn8mElKNATqn4ejWddz6EQTrcJSST06LivZwqJROlfkpZ66HIBCmJV6JmF+2Xkn0cRr/bncFltZscJNl32PEbVu1FPt862wjEukZHMvjXW3MhyWcXPGuVPs4yB+qZjlL5vJlKZl5tY5Ymwi4aW8urAVXhCO238nSjYdLzkXBAQBQUAQEAQEAUFAEMgpBETJllO3K/OdZes0y61kY19oHFXUUbY5XehqsqORFs13Usx7rmvyQcTWVyGisHTUMuWzwg55RouztpWmGnZalOWbJQFKNm4hFvQhuHlPTi8CPHjaiXrSGqBk62oOb4EtFnnJqy6tIco59sMnIgikigD7ZXMr2VipxcEAHGWb064TjXTw250U857rFuN3rAtbX4VJkJKH+9O6wWxx1rw0uMWWkGfGqVUOLg2SWNCHoEwtvTcBHrSmIp02ByjZOLJfmLDFIi951aVphZ4SP2c/fCKCgCAgCAgCgoAgIAgIAoJADiMwIIf7Ll3PBAImv2yV87B+fZ73as2vYbkPLEISSdFwc4nOOnO6k9pZ7xz598Vj/GlIUR37jemxRA7QoNqC8zmnGMu50iFBFijpaNvQhuqEv5JUZOAQcy1eMhwkYfclqI6kCwIOAqYloBzwQI80euDFaPxSjCXeJjkYwgVcPowrysabWrT9AplzoPjfiWWkrUG5dnrp2PD8qLl9zC8xf0hR++YuZ1J+cv5BYBUkHQn+LwTVk3RBQBAQBAQBQUAQEAQEAUEgSxAQJVuW3Iis6QaiaOpRJK2K4wxBD7BUNIogSIBRXH7fkspnPz66L5/uBixTVFCncfb5xFuYRImUGlbfyetMMMF3yvX3viNgsls6KbhnAQrO4AqSIwi4EOAomnqUWvbLpkcWNSnjXM30HHKQAJOUwIoqTNx+4dzlmFucoAbudD4uGqynxM858MIAbGESJVJqWH0nryNFpbpTv6/27dvNVwqz6Cs1LJs1tyKpgoAgIAgIAoKAICAICAKCQFYiIMtFs/K29GOn2BqjFcuDymfHO1H7IUwwvZNWFTGyKHU1wnJhB6zERsXb4yOOwBkiVpCip3UtlqnyUjA4ISdNRxzkU42vE1sKqpXndLe0oW2DqPXnwg8clANRRVciRK3X1+XYKo0tCnXlZNnhwT0pPyw4T3IEgUQIdLUQNUKR7w5ywBE3SzR+iKpk60QQFI4WWqJZtwb5P3P6Z/IVxnnNK+HLjXnAwC9hbcYURwn4pSVgWfeSBQjM8pzTs8R7PSBJ4hr9U4KtBVkhqLsLGHRUcH/C8oJrSY4gIAgIAoKAICAICAKCgCCQNQgkmBVkTT+lI32JgL5klKNuekRhMvqqJyX0xKS84kilHEzBJAPKiAafZ8jBddvXwRIGyz5NFnJVp2NCZ16eag29yNCeltSGtk3C0VFZ+ejb0A+r1L+Z2sjWtJjCUuscWxnWflhL5FOLrBFXGNIlSRBIAgFdgcZRNz2C55x9t0UVVozpUjWPaBCCKZiEAyyMMvEB89pq+zlvNVjIDX0PlHk6F3ZfYMynTVfypjUHKNkqj8Q1oXz0beAc5kJ987aa3WcxhaXWRbYiHHWxlsin8MI54RpDuiQJAoKAICAICAKCgCAgCAgCuYOAKNly5171WU8TWqmx0iwZ31wtS4x9t0Z9GxNITHg1sUZ8BcoyKHp04evyRJTFpBDDclBr1LXI1H7WFcdAafTRWLXQPx270D4sYzSJKZZKJmqpOB3+ObJmrfJtNORCf9lsTQmITGqN/V+iyuPjvR5QQda4nyDqYoiVW7y0HAkCwQjoSja9JCvNwnym6eUbAhT+h+A3jN+tTziqqGm5KF/XCRZiCmTAS0Kn3AxdkMYv1XhORn3SdxlfQjssejsP+JJjiqWyKf708VcSvW2vfxv9KX/ZbE0Jikw67Zfww3dyvNcDK4lm3g7FaIiVW7y0HAkCgoAgIAgIAoKAICAICAJZi4AsF83aW9OPHWtK4G8tmaWTGIba82uyhn4cE15MpNwyaD5Zh/yb1M4fwUINUSuLhpI1BMqwmrPdpXqO1c5b4sf7/0rWoFN6znsOas8jC+2o/XcjqRPLUqeSNRzWV2wNEkUaFuL6Z3lLIkKqNekuUntvI2r4f/a+A06usmr/3O297yabbDa76ZWEJIQOkSYdVOAP0qxg9/MTP1GUosKnYvtARVEURUWQXgQEMUCAJJCQ3rdks733vnv/z5nZ2Z3y3pk7daec88vN3Hn7+7x3zt773POe82/rg3LetaTN+KZjOdu3gZ22s7D/1Ft+RVoOtsNq8Y5jhYWeNu8ZWAzCrxJHkgWmliizjqXkmyDgPQKeSLZuL7ZOcu+1Pyea9XnXSJYcmfT4t4mOfh9b4CtBrBUSFX8K5Pj/U4+5+q6p9MaHQcxjG6ezzIAFHDv0b3wEOaOwxl1CNBfWV4qXBc5VLd/bX0H/+L3ZC0dIPe4lorr7idr+aX2BMfMzROV247Evb0Qq2pcJl/NjPyFizJz1C+vj1RvxsqQW8+21rg3jICIIeIPAHLzQmvdl8zVGOrFd/TBRXwVRJ+5z2t4yrrv+Kfy+nYKVVD8IffKQcZ1YyjkHOCZDp9pLBXTxAQO9ZV9OziMfgTi81L7oNdwbOr0ob95C+tte/CYjEAntvKfxEtpRN+j7f4trX3RDBC5nyIesXX0EBgtOunP3z0nfdmfIxyIdBhcBIdmCi29ktj6CBx92iu+yTdQ6Hb3vPe/mBQsxveXXIKW+4VovZTlpc038YeJopl3PTdXvBAGUjy1aacdPpdnOMs8mDYcvotd/G+Tdaa6EEnzIabPu8dxk/1ZsOdvhuVy4lBjCjXLHo2RofReoiKvhMl8Zx/QjMAhCnZ3iu2wTnRha17vejZEtxJjMKbvTtV7GKqLlT7imO6dwNNMWJuYnpPnvRCVfhe+49baUqc+8C/F7weGLHPkKtsKD/HMmlNjf24L7rIe7drtAGnLwiEiR/v0gJP8AcvOz6hFLoAM1LpJqDoGMRfg9nWCurK1UoR153gKSYC/uS7oUL8byT4eOciJ+M96wtSKfKdjmH5/miEOSYgeCYwn5Fi0IcKCf4jNcZ6PrrmnRljITuiHFUTdoDW9QDMw8vFcyAYYcRU5/D8aGiZreCf64vek7DbozwUl3pojuDP4ihb6HuNB3KT1GBALuiDRnn21mJtT6AB6sj5kp6VoGjr71hjud0nXSG53TnIr48hURRvW6b/pS02Lhph/7EupG1p9avRkEhcrHnW8oSC1BwDMC7hz9e7J0U7Ve+1NYq1WrcjyncSCBylucyuE3XKF4KeBUyuuvHGH08Be9rmapMNqFN+WwCosw/UJsIWgUBdY3JKSWIBAYBArPITpzGyxhrwxMe9KKICAICAKCwPQgMPdi0i7+j+NxGV5MOhGiQRncdPYdlAlJo4FAQEi2QKAYhW3oRoENOBqlKpCBJwzg60g/ch4cmv/LU0nH/OFq0isuhnXYVsd0/tYHs/Sam6b8KLmWmEoZrgGRVDf13d0ZLOb0xh+g3QF3pRzzsEVUr7gARCL6iTRB9Ff9MCz/el73PHJYJIoIAn4jYBTYgKNRqgIZeOpwrI9oO95gtj3vqaRj/kAF0QenwpIFN2LO0vUW0b6rQZ6jbU8yWAW9aPK3zxZzld8yp7ds/fa8j/mdCCIR/USacPTXbWuI2l/yPPJj93ouIyUEgUAiwD4WV+HvWvLMQLYqbQkCgoAgIAgIAoJADCOAuwuRmEOAfWw5i3OakbWahXyDlYdNbI7Cbd9tn6r0sQ7Sj94Aq7Tb8YA5aCtp8DkOnylPg/zB1g53Ps6YEKu4EA+4eFhWiT5mIY/0iotAgGEbrJPoqnFymZZfkn6IH77ttqg61bV81UdR9j4rEagag6p9ZZpqTfpde3ReJy6hao/TdZhJ8/ydRVWe16b6WljxwaKHt+Ja5jKxzkys9r5JetVV8Ev3B+fWrN9V41KXlNRoR4B9bDmLc5qRtZqFfLPTL0YElyp9pI1oz2WwQPtvEwQ59EsztklvWwv9AALLSJgQ++Bk6KBD6hL8+2p/GWVOAQGmINnGFL9hbunYj4i2LnXcoqrqgfVLzf9aiUDVGFS/O1WaM/7clwpDs+W4/viQWr+o2uC12Y2XJYduBu7YimuZy8Q6M7HagW17u/ASpt6AxFe1yWMQEQQCgQBvCz0O27VFzCOgurdQpZlvUUoKAoKAIBD9CKj0pCot+pGI+hkmRP0MZYIuCOg1n3FJc0lAcAN9t4k3u2bL2XfQ+iDImofg76QMZrxLSUtZMhEUQSN98AAeVveD5MFDrVlLMtSxEGJJ5fDRtpa01BXglrphEfMeDvhym3jo1CvxAO6NYAulxVIu4buWcRLGqcE3Gzvq1nmMtnEymWUg+gE8xJsQff8KE6XwTLt3galylkJsobZntvnyvA2t/S+k47CIJTIjePhxO9Ik8yx1exyZVUQQYAT2XekZBw5u8AauLU9itpx9O7W/sAYRSMVvJX0ljuUTQRE0WL/uxbEbxz5c1wYEmH1bfN63B4QYdBS3x5FEOQImb93ksbEvNxsBtOMM55ruv/MWSraUS/raxDihA9IWom3oLu6Tx8k+zZjMMpLNZUY5junvmNDlXGNTtmM9d9/YQu3NRHclnPKgXxp+Zz04hyOKciTosZ6pcnkXTJ3bn7HfPRFBwCwC+78DPzwv2pXGdZYyC74UQZjP+xL84WTZ5U2c8tZREfMIvM56Nc2x/GCD43f5JggIAoKAIOCAgP74MlefbP2iOx1AipIvCVEyD5lGpCHArD1bS+HQu14IzOiHq2CtVkV65xOBac/WCgeB6OVjY6R5Q7LNwPgz6yIEesCDh5Po7Y+CRAQh4SRazkedUia+MkYigkC4IMD6pf+g9WgJkD4YOAILLBxNfwnsLDkIBB8d/wpsu+HQWgH0RY6CfGz8I/Spwtl80TXqUTM+IoKAWQR6QKI7BzPo+sBKvNXBOvXMreB3kxxbS8yxbhkd8oPQZcf/mUtBxIOU56AMaaVwUwHSfLAOugNHC37j/Ucd+7X/lrHYlbjqAeE+PoKxFcF33FVod/5EtF4QhxwllefVutG+FdfzYLSbmIsHxUzHvkbw8mHUjjTn3GD0bd8rolxSJl6m5K7HSxC8qCBYKQ9AX3TvgNXsK3gzie+ZIAQTnV4gdO/CWHvtW5LzYCGQh/WJs3vc5OAIbaz/8Zm9kGjOhaRl4bpOAvkNskHvxMv2SvxORwccR5ReQjTzVNIK1+F3kopyeAnV8h7WGb9npeDFWhGuC/vo1vxb4josGXOISnEPnI3fKvSB3ocXXy3b8HvCMdRhLROo/+OTQfIfh4Btq0jjz6RM/H7SrfNtw7Va/Sz6bHff27Th6DQsf+eSAz3n7Pi/fULPpULPzbsKa7LAum7Yzq934b6rDXqufqPTQCa+coRb1gOJuH5UkoTfPq8764IRxW+egw7kQG/nwJCCx5YBvT0Mvd1fR3pvLSLYQ2/3GuhtX/pOhu5MxPrbyzB054iT7rTP5/MsYJJ/nPX64WuBfzMDzTCO2A3jCLyUtRz4XY2POtec+h5o7KdaljMFAnZaT5ErSYKAIBDVCGgZp0Npf8Jljlrqcdg+egOsTDqteRrCtc/4H/wRusKlLI3jD8OwwR8g19KSIggIArGCQO5ZIAa+4DrbjLXWrb28VZQF+oXK7iKacZ31u/3/bJU8UGmfIueCgO8IMLnS8DTR7P/n2kYmyDFfSDZ+iF/0HaLFt+FadndbzeTCJmyb/l8QAy+79n8WHjTtCQEuseVyEBHHEy38hisBZ2uB29x7C4h6A7IhGO2e8Q7GA5LAXqp+iW3fX7FPIQpG37Ye8k4lWv8UCMhCW4rjZ8cW+LL8BNFpG0Fq5Dvm7fw8iI3fOqbJt8AjkD6btCvwm3MS/bkzSFt0PX4zn3K55kGNEZ30E9Jfvhi/E6xh/mrSzvoriNRlDq1YynHKoT+TvulzrqQckyaXb3aow1/0v5WStuK/EHn8i7iGkyfzJ9sbGyR9C+5399w/mefXSdGJpH3oz/gdg8xTiKXf00GMHPi9tV8V2TKdONqPOQBz0a7EC3wnPae/chlRwfGkrQLuTgTc5Lo0biJ989ddSFXtmmrsNAA5ZyDa1XgZwQKSTX9kBl56tFq/8xjWfIe046G77Ulga67lf2vf0Nvc9wf3wNWHo972pW/t8netBKtdP7QXLore/rJ9ytR5fAppp/yCaOnNU2n2ZyXn0iRGIJD11/C3rafKvsTkeaCxn2xYTpQI4FWYiCAgCMQqAnoP3vSqJG09aUu2kzb/BdIWvEracvyRKjT4A9DxJN6cDKpakTRBQBCIZQSMAlFk4+H4pKNEx79NtHYbHoJBpJXeqkaKLQfNug5QtyCpgoAjAmzVoBK3BJmqAtJSYfVw+ltES+7wQLBxfTwK5ePF1knPqSOachAGZ1l2t7Vt562Z9uXyTyM65VVYzpXZp06dB6Xdyce6qX6mHvWm0oLSN5qfcx3Rqa8ZE2w8gtwTiU5+yZVgs4xONX5LhvwXUATUOGsbHsZ1/VkXsmWya1gXaWf9DZZrp5N2GQhdJ4JtshyfLLoBZBrIOLYMMyHaaQ/AB+N/OxBsDtUspMZ9pJ3/Aq6dHIcsr76AxNFO+AHGj79zBgTbZHtM8iz7HAhJWCKBUHOVacYxkHNR6ARt/T2krb3ThWBzwGHmaaRdhN98ZplDsj1R6pjh9I37ZYs3FliraZdtsvZpQLBZC/L/wJ6vww8/Dyu7K6eS+cyOpHXMcPpm37dKTyrT0AYsz7SP4No2IticuqHCE0j7GKz+yj/mnGP9Hmjs1b1I6gQCir/ogo0gIAjEDAK9+OM/ZGAlwj7Z0tbhIWIl/sYkqSGBXyu97ffqPEkVBASB2EagcyOs0A6rMWArmKyTcbMLK524KWsCh8IcnKEO1jEigkAgEVA8aFia5y2j3sqqX4EAOMm7WkzmrQOBkL7Qcz3e6mhGeOvm8X80U9JaJljtmhmBv32z/7w1fzbWG/ZjMCIe7cvIeegRyJrnuU+U0S59E8RLqueyvH1u8Sc9l+MS2CJqSngr6fq7TRVVFgJpRsffZkwkqiplloPMAQnvZM2lKmpJCxWOwZ5Lrkk9h22WFoLWEBBzGdppv8ZWYi/1Nsg47exHQZia0NvmhuG+VEo+iEBYvfH2Ym8E22O1c58gmnupuVohxt7coKKjlJBs0bGOMgtBwDcEELRBr/ooiLYJc2pvWoH1mn70E6h7xJtaUlYQEARiBQEO2rDjQyDaDnk/Y7Ze2/sR+EU54H1dqSEIGCGQjof7YmxNUom3jvtz8BJqhsEDO/v/cefzi7cq5Z2iGoXvaQVnIsBDse/1jWoGq12j/uzTVX0vvt2+hJwLAhYEtJVfxafa4stniNiCyCwJYd8JEyTrvmefYv68YI3FOs98hcCWdMEx3OZSDD2XZqfnRvvNAcC+ysaHsSsHetuIaDXy22brgfX2DDu97W3ftnZMfGprvgtL3VwTJdVFtBN/ZLgNVl3DRKoz9iaqxHIRIdliefVl7oIAI8BRSDnyajP2/JuJEsrRVBFcwhLRtfdNwVAQEAQEAWMEOArpB2cQ1cAiwEyUUCbmeIvo1qXwMYWtISKCgL8IsOUab+vkLYan4Jpy9iXG7Y+B1O1837ue8nFdq6T6QaJ/wiruxSyil2cRHfy+qhQe3k9Qpzun6ng43Pdtoo1riV5bTLQfD19GwoEGzEqw2jXTv699F4C05+2xKmGfdPu+RfT+NUQVP4MPJuAmEr4IIMCA/p8brL7X9sGyyJ00vQNfU1eR/uK5REf+qi7JjuGVWy0VxZlMqXmR9He/Bn9uX8D5C4pCSOJtkifdq85zk6qt+wEIkjzXEuwz68njSf9dvMU3HB162LUMUrSFNyjTlYlBxjFkcwEJpm/9FulPrSH9sUWkv/cd5XQtiezAf0L0v5YAzwTSX7/WluTwyX7YLPkPJcMfWxteshjo7f0Pkv5wNul/zCT9LyDxtqv1tsbBNCbE675tFT19clCDZZ9Xl8K1qj8Bv9m/TyT90XKME9eaKiwffBLSks+o23BO9RF752bkuyMCCY5f5ZsgIAjEJAKjraQ3/RBE209xk3Iy/FDAX0HiTJis42DljQAI+miHNeJo/xbxwRaTF4lMWhDwEYGRZqIqEAPVeLOfw9Y2uDFMBvmQhIP1y0g7CH4cHHG0a5P4YPMRZqk2gQA7w/dWOt7FdTfkXS1LNEunKiP4O7nna1bSjrM4kMKhe2CZ8i08OTvdcqfhd2BGdqO9KmxLtckhENYp+Ntc/kVbytQnRzVt3Tj13d1ZsNp116ctz9e+y262teD4yQTbJjw8s6UKS91jcFb+IkjVV1xxt5aQ/6cTgZ5q0l84yxrFEePQQXhp7P9swcddR9V9hPSXYDE63GnJ0+tft0YjVW33g9UV9dW6tuGcAif2+vtTZLW+7wGrc/kVbA3nJMUbkKDhwN8qs8JBHZwFviD1Vy6FdTZ0AkvvMdI3fhJqIQO+vq6wptn+n4H7cN6W2GXgbsFWLhQ4hmgu+rv/Bet1Oz33AfQcW6xxgApnYR939RutqUyYsnBUeZVwul2exluLnQXRZC392yLaYo109K+tht529tmGLb2T4mXfk/U8nGgrofOdI2BznSOPgpi+DvOZmDOvP1/HiIRq8TXo1K626puk7/uNU6rrV5+xd21KUuwQcPqLb5cjp4KAIBB7COgj+MNvtU7z4nYi9nCSGQsCgoD3CLB+Ees073GTGsFHoOI+7/tg4osjWNpLf/UUwcakWtZx8I3zCTXRo/GDuwfpr3Ik2GzF295Sk2wJ2bYS7j+D1a77Xq25/vStstTjQBbv/78pgs02htb/IBrgI9ga9klbinyGCwKwTKPhbofR6NXPkKYi2apAmk8QbJYKTDDUv6H2qaUiJhx6wZemd0nfdqdzKiJX3kIaO7ZP45c/djOM3LMAAEAASURBVMI+4dKR1ldnl+jmlIkhVRAGzG+SYLOrrsNiSnMm2ZCvLbhWOU67qphLkHEM1Vx6oOfsCbaJSeoNb5KmItngd8xX0ff8ErhtdqwOsopsBBuTavCDprGPP2eCzVLLhN52bN37b/mrXOuAKLQQajaCzb7E/t8hmMc38Pdmnn2qNUhEUpbLb82hUAixd+g3Br4IyRYDiyxTFAQEAUFAEBAEBAFBQBBQIFDxc1g9PafI8JDUuQ1bTHGw8JZU3j464wIr+cW+39hSLR4P6P5I91517Z596nSzqcFq10z//vSdjm1UztJ3GOTFUedU6/ejDwnJpkZmWlP1DsV1PdiiHJPettMlXe89qva+ZoK41nlrqJ1l02Tj7LPr4MMIVvDtyaTJE96+Z5ZkM3KMDwLPEil1stGJEyWRgzx3EVUnqgYdx1DNRXU98Bw7/dRzEzg5fGB7LfHBwnq7+AzS5lxItOJLIKWgt9lSzUywDWsLwfmft3o6S+PbRN0VzqnW73w98zZq9uPmLNxWMyx9jSSU2BuNIUrThWSL0oWVaQkCgoAgIAgIAoKAICAIGCAwcMy6lZOJGF+FSbQl34O/t2uxBZrdKwRYehRkBHcx2udfR8Fq18yofO07uQgPv9ha5yw9+51Tpr73VU6dy1n4IDDS4zqWsSHXNE5hP1ou4sdei65DLq3ZEpjQU9opMckGqypTwr7hjIS3gZoVM07vg41jqObSbqDnRvzUc0ZYg0TT1n0f25Oht9OCoLeN+jWTzlueUwpcS7LFmRvRYY2nvHY9kWyhxt7NHKItS0i2aFtRmY8gIAgIAoKAICAICAKxjMCo41Y0iw8bjh7K2zn56Npu3Upo8+HlC1YJmUSnbYTvpON9qW2uznC7uXLelgpWu2bG4WvfSYoHT+5vqMm41xGrHy/jApITVQjoJsi3bjfEa1y8Go74FHW6KtVs8AVVXfs0Zx+O9nnBPrfhGKK56EMqIjVIk0zMJO2SN4gKgqi3/Rl66gx1bfiNcyue8g0qhxR7gzFEa7KQbNG6sjIvQUAQEAQEAUFAEBAEYg2BrR+F1Qn8HwVblv7APcE22ovtPTuJ2jYRlcBiIrXEcUS2B1nHVPlmhACTpCpJX6BKtaY5Y25cUnKiAgETJJvKX9rk3JW2QJYgBZNFPJ0MuCF9PdW1zx8KEsFu34fh+QSOUTEXx0lqJyCggjuCbQR6m7coN0JvL4TeTnfS294EwHDs2tw3BMRQSiosed2JUf7YsLtakhdEBBKC2LY0LQgIAoKAICAICAKCgCAgCEQfAnOuV8+p6pdER/8Agm3XVBS4GfD5I4SPGi+zqRy5la3gkvIca2Svdvxu/81dnn05OY8dBHj7XONbyvlqRn7QPGzVc2is86DDV9sX/cVzrIEKbAmePjmgx3RLNM3FhqUqWirn7f0l6QfgOqB9Sm9rpdDbLiSbraEgffIW4P561wAcRv7xJoahZRu8bOg8EKSBSrOeEIDHPxFBQBAQBAQBQUAQEAQEAUFAEDCFQGopUWKOa9GKnxHt+gq2o+6YItjiEolUUTFNOGl37SDGU/qOuALAvtpKP+Gazh6KFimc2CtKSlKUIGDCOlSbe4l6svw7XfwpdV5PtTpdldqlJtk4YqUlgiVHsXQ4BhEgBdtRnQ9V26FKs+EYDXOxxywDejtJobd3/Yz0t78MCzYnvZ2z2L72xLmBtaOipM9JKmKs8ARY4K1RN8mBGhbeoMiDRaIbH4SKCpIUQASEZAsgmNKUICAICAKCgCAgCAgCgkCUI5AJaxiV9FW4ps66iiguyTVdUrxHwChowqpfW6O72lqMT0ekvT9iO+9qW4p8xgQCJraLMsm25LMuaGgn/ADWQ8Uu6dTf6F2gES4/3O3Sjnb8bURZ81zSadUtpN3Y7nKoxuhaOVgpEzhGw1zsdS9bMSpE71aQ9/MCoLft+1b0a5jUsk2ZpZ10L4K/pLnkaWtuh6U0XjY4C5N1o/3OqfI9RAgIyRYioKUbQUAQEAQEAUFAEBAEBIEoQMDIof6sK4k0u1vrmXigX/WAesKagZN1dWlJZQSO/AQWgmOuWMSlWINQnFdDdPY+ovOqEfFVZdnhWlVSogkBEyQbpqud9ivSzn+BaOnNiDD5cdLO+Qd+p/+jBmL/b9Xp7lJrX3HNRdRI7YKXiZZ/yUq2cRTJ1d8kC7nnWpqoVU20qIoGPs0Ox0ifC5OqjDVbCg53KqHSmFCz19uoo53+G2VZ8kZv2/etbk2Zqu+GRTT7hnOWWWeRdtk7ROUfxUsFvEAoOZe0s/+O6+hW55KW7/r7dyrTJTE0CIhPttDgLL0IAoKAICAICAKCgCAgCEQDAt17MQt+EHXaOlSwAQQPHFd3boUvn4VEmcuMZ6the5qIdwj07Ceq+QPRXFdLJEtD4vfOOzxjtTRvDS29iDQcbmWwjSyEh9tCrpm89VADIWIhd+yz4VdLO/V+pPDhRhrfJmp+z02B0GVFzFzGR5WgaKeDJOVjbJD0x3j7p0Jvz9pA2rW1wBx6m32fGfnm4x742nEWM33/dQ7RYKtzTfV3WBDqO+8lbd1drvn5q0g790nXdOeU5i1ElY87p8r3ECJg97othL1KV4KAICAICAKCgCAgCAgCgkAkIjDWB/89eBBWSUox0czL3BNsXE/lp03VnqQ5InAAD54DBhH4HEvKt1hDwOZLLEDz1nf8ULn102PziMqpb/qCx2LKAsNdpP/nemTZWZMpCwYx0R7HSJlL71H3gLAlGweTYAJTJbxVuAx62x3BxvVUftrM9K0i51TjsKXt+imRN74AbfX4E/PUN3/dPkXOpwEBIdmmAXTpUhAQBAQBQUAQEAQEAUEgghH44FPwd6PY0uM8paFmbP3a6JwKKxc81C1Ub/NxLSwpkwgMIvLeRjgAb3ppMsnw5Ah8GInEEAImiKkObCf2JPo46dvuJOJte74KrIj0rfh9e+MTq+V90p9eD3KlytdeA1TPCcdImAsHLehgC2P3om/8pHorpnO1Aejt+o3OqVa/fc7bM0327dqYm5TRPlwL6xCp+nk3hRRZ3RWkP3uKMZmoqCJJwUFASLbg4CqtCgKCgCAgCAgCgoAgIAgECwGjh1c8nPgtbKnmLM5pHOnynXOwNdTNtq6W14jeOAG+xAzInvzTp3pREXbOfdpKjw+pfZONKUi/YLSralOFu6pcIOY03Ea0+WKiHfCpVQefRL2HgMwEMTDcTsS4v3MeUdWvbYg5fqpwciwh39whwH7xsP3ORZzXewzXqWorncrflOHvWXFNjyh+ny6DUSfo73yVCFvxLBE+VUX66kh/6XyibbCYBNnmIqrr3Gg8O35E+uNLPG/bY4x2/K+VHFFFgwwHHAM1F9XaG+HH81b5YFS1AQz1F6GPLdaHXS7LNpmAIAf6i2dDR7jR23WvWQgufeePJ6vZn2jFZ9h/tVzjpvrmWqqxq64pLsvblV+5lPR3v2Z8vXI5Fr5WjzxK+lN4AQGyVimqvgOBvbIzSdSiHQJd1+/EHO8wnGfzT0hv+olhtmQIAoKAIGCEgDbvKfjdwRsjIzmKm7RqHCKCgCAgCHiLwOr/wD/Mmca1DkK38NY5kWlGQCMqwDplLsffg3nWLUkDNbBew/qxDzGR0CDAEUXZefloz1R/My4gOunFqe+2MybgmIiLZTkN12e+G/0CkslizRWpGOUsJe0qV6s1/YWzYKGEuafOICrG/BHxU0tIJb19t5Wc6KkOzox5O2LeShwrSMteZNmGaumT++2EnmBCKVIk3OeSAF3AkVw54AFBJzAhPDZAxFhPkr7Q27Ow/rnLScuab9Hbes9R67XB6+GrmOrbh8Y54EL2Ass1pOWuIErMQCMa6R17rPNiC00jotqH7vytoq29k2jtHe6auUvTNBSKXkmI3qnJzAQBQUAQEAQEAUFAEBAEBIFgIqBbt4OqtoQGs9tYbLsYUfUKnKxIGIeaPxJ17XRFZPY1rmmcMtigTpfU2EEAvsZsjuHxCw6+9OOa46P2Xzaby+D3Gawewn0ubBnGhJpbwarXb7QcAV1/U327HZg6ky36Og9aDp2eUJeR1LBCQEi2sFoOGYwgIAgIAoKAICAICAKCgCAgCLggUAgrpPIvuCRTzlqiLXBazltFWdjJ+BJYec65zvrd/v/RbpAdlfYpci4ICAKCgCAgCAQUASHZAgqnNCYICAKCgCAgCAgCgoAgIAgIAgFHoPF5NcmWdyrRedjq1bWLiKMIZi4D0Zas7v7YX6xbx9S5kioICAKCgCAgCPiNgJBsfkMoDQgCgoAgIAgIAoKAICAICAKCQFAR4C25fYfh+26hazfsky3vZNd0+xQOulD5S/sUORcEBAFBQBAQBAKOALwBiggCgoAgIAgIAoKAICAICAKCgCAQxghwVNVNH5qIJurlONnx+ZaPoO4BLytKcUFAEBAEBAFBwDsEhGTzDi8pLQgIAoKAICAICAKCgCAgCAgC04HAYD2INgQ/OHQ30VCj5xEwMcdbRP+9VCKKekZLSggCgoAgIAgEAAHZLhoAEKUJQUAQEAQEAUFAEBAEBAFBQBAIAQJDzUT7v0t08HtE+WcSpZUTpc4iSsGhI1bgCAIgcBAEjjjavkl8sIVgScKui+7DpL/6MSLNyZ6keUvYDVUGJAgIAtGHgJBs0bemMiNBQBAQBAQBQUAQEAQEAUEguhEYHxHrtOheYd9nNz5KVPWU7/WlpiAgCAgCfiDgRO/70ZJUFQQEAUFAEBAEBAFBQBAQBAQBQUAQEAQEAUFAEBAEYhQBIdlidOFl2oKAICAICAKCgCAgCAgCgoAgIAgIAoKAICAICAKBQ0BItsBhKS0JAoKAICAICAKCgCAgCAgCgoAgIAgIAoKAICAIxCgCQrLF6MLLtAUBQUAQEAQEAUFAEBAEBAFBQBAQBAQBQUAQEAQCh4CQbIHDUloSBAQBQUAQEAQEAUFAEBAEBAFBQBAQBAQBQUAQiFEEJLqovwuffgppGaf424rUFwQEgWlAQO99h6gPR7hKzgainDPDdXQyLkFAEHCHQOcbRJ0b3ZWY3ryCDUQFol+mdxGkd0HARwRaoV9aN/pYOQTVZm0grXhDCDqSLgQBQSDQCOgNG4nqcYj4jICQbD5DZ61oIdiKbvGzFakuCAgC04GARj8hPaxJNjwAz71jOqCRPgUBQcBvBO4Kc5IN+mWx6Be/l1kaEASmBQHolzAm2SwE21rRL9NyaUingoCfCGjbiPT6jX62EtvVhWTzc/3ZEoYf1EUEAUEg8hCwWLKF87DZEoZwIy0iCAgCkYeA5fcbxsNmSxjRL2G8QDI0QcANApbfr5v8ac5iSxh+UBcRBASByEPAYskWecMOqxELyebvcsAKJqwtYfydn9QXBASB6UOAt5qF83az6UNGehYEBAF/EWArmDC2hPF3elJfEBAEphGB+o1iCTON8EvXgoAgML0ISOCD6cVfehcEBAFBQBAQBAQBQUAQEAQEAUFAEBAEBAFBQBCIAgSEZIuCRZQpCAKCgCAgCAgCgoAgIAgIAoKAICAICAKCgCAgCEwvAkKyTS/+0rsgIAgIAoKAICAICAKCgCAgCAgCgoAgIAgIAoJAFCAgJFsULKJMQRAQBAQBQUAQEAQEAUFAEBAEBAFBQBAQBAQBQWB6ERCSbXrxl94FAUFAEBAEBAFBQBAQBAQBQUAQEAQEAUFAEBAEogCBqIwuqut6KtamFEcxjmVu1yn1OKLsS4hG23A0EY3UE40PuK0imYKAIBDDCMRBvSTOIkqYgSPfPRAZa4kKr4ReaSEabiAarBH94h4xyRUEYhsB1i8puH1Jwu1LYqF7LHKgX2ZBvwxDvwxCvwxAv4zJ/Yt70CRXEIhhBOKhX1KhX1KgX5I86JcC6Jd50C+D0C990C990C+jol9i+OqRqQsC7hFIgH5Jh35Jh37JdU+/oKG14GugYAgKhqBgqEbTtKhSMBomFdGCBcJfAeIDbJmFUFuEz9k4fJeRRty0VuAPyyHSB/fhxnUXjp2+tyc1BQFBIDIRSF2FG9LjSEvBH4sUqJak+XjwnenfXIZA5A8cIurfS9QL3dK7nahnm39tSm1BQBCIPAQyceuSsQYHbl/SlkPXQMckg8D3RwahX3qhX3qgX7qhXzqhXzpFv/gDqdQVBCISASbhc6BfsqBfMqFfMqBfUvzUL311RF3QLx37SG+HfmmFbmkR/RKR14cMWhDwB4FC6BcQ8Voe9AsTatnQL+n+0S8YDhQMQcEQyBeCgqFtIN4iVsFEHMkGUu1EgH4OjjNxnIojDUfwha3b+reS3vcubmDfxDluXEUEAUEguhBIww1pxhmkpZ8MzbKeiK1KQiHj/bhxfRsPw2/g+DcejreEolfpQxAQBEKJQBZuX3LOxoHbl2zcvsSF5vaFxqBf2qFfWqFfWqBfOkS/hHLZpS9BICQI5EK/FEK/FEC/5EG/xIdIv4xCvzS+TXoD9Evda0TNol9Cst7SiSAQSgSKoF9mn0NaMfTLTOiXhBDpFzAumCZuYAgKhl4D6RYxCkYL5fr42heItfNR93IcF+OY7Ws7Aa3H1m49r5Le/RI+Xw9o09KYICAIhBCBzLNIy7oAb3rP9d9KLVDDZmu39hfwUPwMPl8OVKvSjiAgCIQagTzcvhTg9iUPty/+WqkFauxs7dYI/dIA/dIs+iVQsEo7gkDIESiCfimGfpkJ/eKvlVqgBs/WbjUvkF4N/XJM9EugYJV2BIGQIzDnfNLKoF9KoV/8t1IL1PChYAg3MPQMCLewVjBhS7KBWMM+Lboex9U4woNYw0CUwoRb19OkdzyBLabYoiEiCAgC4Y1AynLScq+ANclHwodYM0KMCbeWR4ma/gIrWtm2bgSTpAsCYYNABm5fZlwHq5JrwodYMwKHCbda6Jda6Jcu0S9GMEm6IBA2CGRDv5RAv5RAv4QLsWYEDhNuFX8n/fAjRG2iX4xgknRBIGwQyF9F2kLQL/NBv4QPsWYEDxNuf8fxCAi3sFMwYUeygVxjJ3ifxXEujsiT3jfgp4BvVp+PvLHLiAWBaEcAQU60PNycZvBu8wiUjldhffJ7kG7/iMDBy5AFgShHgIOcFH8G/kki8/aFWqBfqqFf6kW/RPmVKtOLRAQ4yEkZ9EthhOqXWuz+OfA7okrRL5F4+cmYoxwBBDnRloB+KYlQ/UKEGxj6Hci2sFEwYUOygVy7CeB8GceKQFzGQwP9NDQ4QMNDgzQyMkxjoyM0NjZGuj5uaV7T4ig+Pp7iExIpMTGJkpJTKDkllZJTA7THePAA6W0PYasX3t6ICAKCwPQikHc9afmfxlvfJQEaRy/a6cMxgGMQxwiOURxW/QJnSzhPwJGIIwVHKo50HBk4AiB9e+H75D4QbrhhFREEBIHpRaAYN6azv4Kf+PKAjGO8t5XGe9tJ7+9E8KUe0ocHSB8dhnphHQOJSyAtIYm0pFQEZckkLS2H4jLycBRY8/39n4MmVEK/VIt+8RdKqS8I+I1AGfTLPOgXDl4QAOkYbKOOwQ7qGe6i3uFeGkRE4pExPCfpY5bW47V4SoxPohREIs1IyqDMpGzKTcnFkR+A3tFExx7S99xPtP/BwLQnrQgCgoDvCCy9ibQVoF9yA0K/0FB7Hw119NJwN/RK3xACnkO3DIN/GZvgX+LBvySBf0lNosT0ZErKAveSm0HJefyMFBDZg1buB9k27Qpm2kk2kGufBBjfxLHYF2hHQZ51d7RRT1cH9XV3Ul9vN/X34aZ03Paw612rWlwcpaVnUnpGFqVn5VBmdi5l5eZTAsg4n2ToCOktv8IfFWzHEBEEBIHQIpB7DWmFX8SWrQU+9osHW2rG0YKjDUcHji4cvukXK/mWjfq5OPiGtRBHEY4kHD5I/0H4PPkx/Cv90YfKUkUQEAT8QmAmbl/m/A+CpPh0+wLyrJ/GGg/RaHMljbVW03j7MRrrbJgi07wdHMi3+JxiisubQ/EFZZRQNI/iZy4CGefjy8Ne6JfD0C81ol+8XQopLwj4jUAp9MtC6JcM3/TLAAISVHVWUE13FdX21FBDbx019zfSqI2s93KACdAvRWkzqThjNpVkllJpVjmV58ynVF8doHceJH3nj4gOin7xcimkuCDgPwKLP0naKtAvOb7pl1GQZ92VzdRT3Up9tW3UV99B/U1deCHo2/ORlgD+ZUY2pc/KpfSSfMosK6CseUWUADLOR8ENDP0IZNu0KZhpI9lArp2Pyd+B4yRvwetoa6aOlkbiz57Odm+r+1Q+MyePcvOLKLdwpuXT60b6t5He/FMJkuA1cFJBEPABAQ5mUPR1PPyu9aEyfBTRMRz8yeRaKITJtlk45kx8etln92aio9+TIAlewibFBQGfEOBgBnNvJ8ry+vaFRmt300jNTnzuobHmIz51722l+KIFlFCyghJLV+FzpbfV8W4B+uUA9IsESfAeO6khCHiLAAczWAL9kuu9fjnYvo/2te4m/jzaVeltzz6Vn5s9jxbnLaNlBSstn1430ryZ9G13SZAEr4GTCoKADwhwMIO1oF+KvNcvHfvrqWNfLfFnT3Vono8yywopd+ksyl1WYvn0Yca4gaG7QLa97ENdv6qEnGQDucZPkv+L4wZvRt4OUq2loZZam+poZHjIm6oBL5uYlEwFM2ZTYXEJ5YF080o6Hie96R7sLmv0qpoUFgQEARMIJM4kbca3cXN6lYnC9kVq8YVvSKtxDOKYTklB52U45uEoweGFNP0Z08D8h5kgFBEEBIGAIpCE25d5+Ps9w6vbFxqt2UHDR96lkcr3sP2zO6BD8rYxLSWLEuedQEkLTqaE0tXeVT8G/bIP+oWDJYgIAoJAYBHgIAbLoF/meKdfmFTb3rSVdjZvw/bPnsCOycvWMpIyaVXRWlozY72FdPOq+qE/k771W0T9ol+8wk0KCwJmEEibRdp60C+LvNMv7XtrqeX9Kmr9oJpGeqf3+SgxI4UKji+jwnXllLfcy+cjItzA0LdAtoVMwYSUZJvwu3YvJpll5npgv2oNtVXUVHuUBvrZB1L4SWpaBs0omUvFJeXm/bmNYztrw/fEX1v4LaeMKJIRYL9rxbdjR2amyVmwTmFr4sM4pvfB13jArCoX4mBzbpP+3MYwl4pviL82Y1AlRxDwHgH2uzYfty/xpm5f4FOtlYb3vU7DB96g8e4m7/sLQY24rBmUtORMSlp2lnl/bqPQL3uhX8RfWwhWSLqIGQTY79py6JcEc/qF/aq9U/cmba7fRK397NIi/KQgrYhOmnUanTL7DPP+3Ia7Sd8C/SL+2sJvQWVEkYsA+107EfolyZx+Yb9qDZsOUtO7h2mgJTyfj1ILs2jGyQup+LTF3vhz48l8A0Tbg6FYzJCQbCDX2OnQ/ThMmZf0dLVTXfURaqytDgUGAetjZkkZzS5bAD9ueeba7HqO9Hq8FR5tNVdeSgkCgoArAgkFpM3C29/sS13zlCktSN2L45AyN3wTF2Foy3EUmhsiRyA9/GVYzYbnDbi5SUgpQWCaEUjE7ctC3L5w5FATMtZcQUO7XgK5ttFE6fApkrRkAyUfdwHFF803N6g66Jfd0C9Dol/MASalBAEFAsnQLyuhX2ab0y9Hu6po47FXaXPdW4rGwjfppNmn04Y559Lc7HJzg6zErp+3oV8GRL+YA0xKCQIKBFKLSDsV+mWeKfrFsgW07vV91PhOZD0fzTxlEc0+axn8uJl8PiJ6HGh9GWRbUBVM0Ek2EGwXYyK/wTFbsfwOSUyuHas4SM0N7A8pcqWoeA7Nmb/YHNmGbaN63f/AV9u/InfCMnJBYLoQyDyPtNk/RhBPM9u2mVzbiaNyukYboH7noZ1VOEz8MRmCVfThzyFmwwsB6luaEQRiCIF83L4sxO1L8iyPk2ZybXD7szRy5B2PZcO5QOKCUyhlzWXmyDbeNroT+qVR9Es4r6mMLUwRmAn9sgr6hbeJehAm116tfpG2NW7xUDK8s9fOPJHOLbvIHNnWV0f6JuiXo6JfwntVZXRhicDci0k7Dfol3SP9YiHXjr2yi5rfi+zno6IT5tGcDx9nlmyrw7p9DkRb0BRMUEk2EGy3YQI/8HTx8bbQ6sP7qOFYZC+u8zyL58yjsoXLTG0j1Zt+CKfCv3BuQr4LAoKAEQJF/wX/a7ca5dql9+J8O44DdmnRcLoEk1iDI8PzZKq+gwiB93guJyUEAUHAikDpt4nKPd6+WLaFDm79B7aG/juqkEtadjalrL/S3DbS/dAvh0S/RNUFIJMJLgKLoF+WetYvvC30xYpn6O3ajcEdT4hbP7VkA100/3JT20j196BfPrg7xCOU7gSBCEbg+NtIO8GzfuFtodXPb6eGt6Lr+aj49CVUdskas9tIvwOiLSgKJmgkGwi2P+HyvMHTJVpTcYCqDu0hfXzcU9GIzNfi4qh80Qoqnc8PxB6EgyLUfsVDIckWBAQBreQ+k8EN2HLtPRzRqV/ggA5zOwEHW7Z5EA6KcOATHgpJtiAgCNCSh00FNxiC5drA5kehXkajE7S4BEo96RpKhmWbR+GgCNs/4bGYFBAEYh6BNQ+bCm7wr6oX6fkjT9BolOqXBOiXSxZcQeeVX+T5kuCgCBtv9FxOSggCMY6AtgH0i4ngBjUv76SqZ94nfTQ6n4+0BPAvl6+j0vNNPB8hKAKItoArmICTbBP+1/6Oa/xD7q7z7o42OrJ/B/FnLEhWbj4tWLqa+NOt9L1Nes3N4qfNLUiSGbMIsP+10t/C/PlUDxCwo/HNOMLT4biHwfuQPQN1TsLBn26kcyOiA14tftrcQCRZMYwA+19bhtuXnA1uQRhtPESDm/5Eo40cOCX6JWHmYko57UZKmLnI/WRbNxK9D/0iftrc4yS5sYkA+19bB/1SsMHt/Cs7j9CTB/9GlZ2H3ZaLlsx5OQvpY4s/TvNyFrifUv1/SP839Iv4aXOPk+TGJgLsf+1s6JdZbukX6q5ooiOPb7F8xgJQWfNn0IKrTiT+9CD/Qf7VgfTTFlCSDQQbh8B7AscKdxM5emQ/VR3c7a5I1OaVL15JcxcsdT+/wQMg2j6NG9UK9+UkVxCIJQSS54Ngewj+S5Z4mPUHyGfrtVgUtmo73v3E+/aCaLuCqD82CAL3YEiuIDCBQBpuX5bh9iV9uVtIBt9/igY3/81tmWjNTDnp45Sy7qPup9cD/bIV+qVX9It7oCQ3phDIgH5ZD/2S6V6/vFz5HD17+B8xBY1tspctvJLOn+chgFUHdj79C/qlS/SLDTf5FAQoezFp50G/5LqlX+joizuo6unYfD4q/8gJNPei1Z4ulj0ocAWItoAomICRbCDY2B7vWRxzjWYwPDRIB3e/T21N9UZFYiI9f8YsWrxyHSUlpxjPd6SW9GpYLg7ihlVEEIh1BFKWk1b2JwQ4KHGDRD/yOOLWUTdlYiGLVfDpONKMJzsIjPZejgdh3k4rIgjEOAIZuH1Z/gwIfMPbFxrv76SB139DI9XvxzRYiWXrKPWsz1FcWo4xDv3QL1uhX7pEvxiDJDkxg0A29Mt66Jc0Y/3SPdRJf9n7B9rdwi8JY1dWFh5P1y3/FGUlu9EvvUdJf+UyBHQS/RK7V4rMfBKB/FWkfRj0S4axfhnu6qeDf34LP5mayWqxeJK/qpQW33A6JWW7eT6yPkReBqLNbwWjBQLkCYLtRbQ126i9jrZmOrBzK3GQAxEEK0tNoyWr1lNuPszHjYQjj1ZfK0SbET6SHhsIWAi2v3qIIMrE/UYcvbGBicdZZqDEBhxuopZx5NE9FwnR5hFLKRDVCDDBtgK3L24iiI7W7qb+135lCXIQ1ViYnFxcRgGlnfNFSihZaVyDI49uhn4Ros0YI8mJfgSYYDsJ+sVNBNGD7fvoT7sfJA5yIAJjnJR8unHlTbQ4b5kxHBx59GXoFyHajDGSnOhHgAm286Ff3EQQ7dhfTwf++AYNtcvzEV8QyXkZtOSTZ1LuUjfPR0QcefQif4k2v0m2iS2ir2AwhhRqw7EqOrgrNs0TeUHdyeLjTqDiOeXGRdiirer/ydZRY4QkJ5oR4C2i5Y95sGA7AATejGYU/JjbGajrZnstW7TtPl+2jvqBsFSNYAR4i+jKl91asHHU0P7XH4jgSQZv6GlnfZ44CqmhsEXbu9AvsnXUECLJiGIEeIvoydAvbizY3q59AxZsv49iEHyf2nXLP0Onlpxp3ABbtL34Ydk6aoyQ5EQzArxF9CLQL24s2Bo2HaSDD8vzkeoyWPyJM6j4NOhoY8ENDH3Yn62jmnHbnnNAsLEZFsetN9wEHMv+1zwjaC3h0U8b+2irgg+C0VazTUo5QSDyEeAgB+VPePDBxlsrhMB3v9gnIPt44yLso20nHpRHmo3LSI4gEG0IcJCDVbh9ceODLZb9r5ldbo9+2thH29vQLxIMwSykUi4aEOAgB6dCv7jxwRbL/tfMLrFHP23so+0F6BcJhmAWUikXDQhwkIOLoV/c+GCLZf9rZpfYhJ829tF2Nog2nx6Q/CXZXkfnHzKaTOWBXVRTwVYmIp4QKJ2/hOYtOc64GEcdrfyYcb7kCAJRhoA270kPUUS3YMZ+b5mPMtSMpoMtK3SiUSZR50ZAeZZxvuQIAtGGwCrcvriJIjrwzl9oaDv8KIl4RCB5zeWUesp1xuVaN4JoE/1iDJDkRB0Cp0K/FGwwnNbThx6jf1W9YJgvGVMInFd+MX1kEXb0GAlHHX1B9IsRPJIefQhoF0O/uIkiWvnkVqp5SZ6PzKx86QWraN7H1rsr+h+QbD4pmHh3rbrLgxXbn5APz7Zqqdi/g45VBiQ4g7qDKEvt6milsbERyiucqZ5ZUilpOKj7JXW+pAoCUYSAVnIfUdYFbma0GXm73OQHLquxa5huffII3fFsFdXjfF1ZFiUlxPnUwdDIOP3y9Vq66/kqqm4dpLVzM31uy7sBNKH4CA6DwBEpZUSp5UStQip4h6uUjkgEljyMB+DLDIc+sOlPNPTBc4b5kuGIwFgDrO2HByixdLVjhu1bWhlemEC/NIh+sUEin1GMwJqHiYqN9cuTB/9Gr1b/M4oBCOzUKjoP0dDYIC0rMPABmVlOWuY8omrRL4FFXloLRwS0DaBfyi43HFrF45vp2CuheT4yHEQEZXQdaaKxQfAvyw2ej4jK77zzznl33XWX1wrGJ5INBNttwO9rRhiyBZsQbEboGKd3d7TR+PgY5RbMUBdKXY70UaI+JhhEBIEoRaDov0gruNnN5NiCLfh/QMbGdfrdm/V040P7aNvRHuroH6Utld302HvNNDsnmZYUp7sZo2vWK3va6eO/20vP7mihuo4hereiy9LWnNwUWjwzzbVCwFOYaIP+MCLa2AG8DiKu662A9ywNCgJhg0Dpt/ETMLx9IYsFmxBsXi/XWOMh0keHKXGOgUU+O4Bn/dIm+sVrcKVC5CCwCPplvrF+YQs2Idi8X87KziM0Mj5CS/MNvBPBATyN4/6mUfSL9+hKjYhB4PjbSDvOWL+wBZsQbN6vZndFM42PgH9ZNtuo8ioQbaMg2rxSMJpRa0bpINguRt7zRvnig80IGfPpnny06dU3EPX8y3yDUlIQiBQEMs8jrezPbkb7AfKC74ONSbWvP3aYdtUaR+P50JJc+vGVC2h+Yaqb8RJVtQ7Qt5+qICbZjOScZXn0oyvmU3mB+7aM6nuX7sFH255L8SAs21i8w1RKRwQC+bh9WWFsoSY+2PxfRY8+2rZAvzSKfvEfaWkh7BCYCf1yorF+ER9s/q+YJx9t+iuXEB0V/eI/0tJC2CEw92LSPmxIv5D4YPN/xUz4aLsEW0dNKxivSLaJQAfbMQ0l1SdRRP1fYFsLbqOOjjSSfuQcCYRgA0s+owMBDnSw4DVEEjXYMk3s3/HNoM6VrdW+j62cf36ngWDI5iA5aQnUiXx7Sca20a+cU0JfO7eUUhIdt5AODI/Tz1+tofuxPZS3idpLXnoitffBqsNOuD63w+1xu8GVM9D8EnUXQ/VE29ZIIAQ1OpIaqQhwoIO1uH1JVodtj9oooqyyEkK7aG6jjg5Cv2yEfpFACKFdFOktuAhwoIMN0C8pav0iUUQDB7/bqKN9daQ/Bf0igRACB7i0NP0IcKCDj0K/pCvpF5IoooFbIg9RR+vQ0xqzgRDivRkWTOX+gPInq+p0tDXT3m3vqLIkzQcE2prqKTu/kFLTFFvS4jPgn60E27qMGW0fupQqgsC0IqCV/AKh7tcajAEPZvSqQZ7/yToItb+/10TXYTvnO0e6yJ5fm5GVRL+4eiHdf+1iykxJoPeru2l4zFqCt5Ry+Se3NVMZrNAWFFkt0Z7f0WrZGvrynjbiMjZhcu2ej82nB29cQrxNdGtVNw1MEHCjKLfpcCc980ELLZ6RZmnPVi/wn0fRZDGOTNemE5CWMpeo5QnXPEkRBCIVgSW4fck6STn60drd1PfST5R5EZ/IXH4LSP5Mr96p+jXtkar3KWHWUorLUri+YP2SCv1SL/rFL5ClcnghcDz0S55avxxs30cP7rgvvMYbwaPZ1bKdFuYtoYLUQtdZJGXBPxv0S6XoF1dwJCVSEdA2QL/MUNIv1LG/nvY+AAMFkYAg0LbjKGUvLKbUQsXzEe4i0clcbBs1pWBM33XBiu0mNPxb1QyGhwZp29uv0dBAvyp7mtJ0SoCjzIRRPgZwjgPnifgkfZxGE1JpND6VRvjTdsSnYKymIQn6vJJT02jtqedQUjKPy1X0um8QtT/imiEpgkCkIZB3PWmz7zUYNesV9jfZa5DvX/KBhn665R+HLWSZfUvxcRp99oxZ9K0Ly0CuTb2PaOgaotufqaKntjcTk3P2cuHKfOoHabbxQId9MqEpuuGUYvrOxWXERJtN2Jrtrueq6K+bG10s5z66ppDu/uh8YpIvOJKBZtl5qoE/uEPwi9fwu+B0La0KAqFEoPizRIuUty803t9JvY/fSuO9raEcUUj70vaMkb4MOizYBrJ2s4rLKKCMq35IcWk5dql2pzuhX6pFv9ghIqeRikAZ9MsqtX7pHuqkH26+kzoG2yJ1dmE57tyUfLr1pDspK1mtX/S3oF/2PxiWY5dBCQJeIbD0JtJOV+uX4a5+2nb3szTUHpznI6/GGUWFk/MyaO1tl1FStsHzEdHNsGbzqGBMMUog2Nj+eT8OZvBcZPf7m4gtr6ZbUvFHLKsXDGTPUXweozg4yfRGxuKSqAtvQHoySqkbx0BKnjfVg1I2f8YsWrnuNHXb4z2kHzod27oa1fmSKghEAgLYHqotegsPgMq3BpjBKziOBnwm/cNj9OOXa+iB/9TSyIRlmq2TE8qz6CdXLaCVs5mIUgtbnX3ziQra39CnLjCRyhFE2Xfb8aVG84OXOVi03fL4Edpd5/iHMis1ASTfXPrM6bOISb/AC9740ofVzY51E21dRjQ8/bpdPUBJFQRMIJCE25f1+4jilbcv1PfCD2mk+n0TDQW4SO04aR1g6flnDd5dT8EJG65ngQkzy6uPonwDrNRmo44bAk3bDZItF+2XuCkU4Olxc4ll6yj94lvVLY9Cv/wb+oW3j4oIApGKAG8PPRv6JUGtX369/We0u4V9yYoEGoGVhcfTF9b8t7rZ4W7SH19K1C/6RQ2QpEYEAmmzSLsK9AssNFWy+/5XqG1njSpL0vxEIH9VKa38ssHzERFuYGgpiDa3CmbKPMPNYLBN9JfIXq8qwoEO6o9WqLJCkpY+0EQzWz+g8tpXaVbzFsrpqaaUoQ7SYK3mrcTpY5Q61I42qmhG2w4q6NhHiaP9NJqYBos3QzbT2268Kj/Q10NaXBzl5CnMorVk0uLzsNQvedWmFBYEwgkBbdY9MKZaYzAkvjnFDWyA5Z+72+jq3+6hV/e1O1iQsZXZD69YgCAEC2imBwuy0vwUuvHUYspJTaT3eAvpqKNZW0EG2vrYAhBsC2kWopG6k9m5yXT9KTMpJw1tgXCztTU0Ok7/3t9B/9rbTitLMjy2464PdV4XkvnBu9g1Ow5jTiogamUrQhFBIEIRWHg/tkoqb1+IAx0M72ESfxokC6RXdhxpndAbIMu0IRzg2LW2CeItndk3N9Kuk1YJoo7VToEb8mzY2qbG7xwL3ZRz05WvWeOduP+MS7BsHXVpg/VLMvRLg+gXF2wkIXIQOA76JVetXzjQwZvH/h05c4mwkTb3N1IC9MuC3MWuI4/H81EKnpuqRb+4giMpkYKAduoviYrU+oUDHdRvZPsnkWAgMNDUBY4lnnIWzVQ1jxsYKsS2UbcKxsNdHN6u6vr5aEjJ4nR3tNH2d6bjD4hOeZ2HqLj5PWKSLRTSmz6L6macBEu38lB059LHmlPOpqzcfJd0TtCrP45oo68r8yRREAhrBDLPIq3sbwZD5N/2swZ5viXXtA/SrbA+Y19p9qJBE1570ky649Jyyrfbzmlfxt15c/cwXXL/Ljrc1G8ptq4six7/3AqQZt57HG/sGqbbnq6gp7e3OHTJhmxM6n334nKf2nVozOXLZUiZ4ZJqSdh9Ibalv6zOk1RBIJwRyMPty8p/Kkc42niIep/4tjIv1Ina4TFYdDn2qufjBz/LgBSD8axWiToQna3Y8lDWSJpBxDVZXwDoi/FeNcmoYPDSM664hxJmLlJ38C70S7PoFzU4khrWCBRBv5ys1i+VnUfo3i13hfXwo2Vw3zjxDpqXs0A5Hf2lC4iOiX5RgiOJ4Y3AnPNJu0BJv1B3RRNt/9/nvB7/m8Ul9FbxbK/rRUOF0xvq6IyGWq+nsuZbl1LWfIPnI6ILYM1mqGAM7uAcxnCHwze7L0f277D7FppT3ga6/NBfaQFCNIeKYOOZZfTV0+LKp2jZkUcps9f7RfIXHXdYa0Vf97d5qW+EQDyITW0ankqMxhNl6e6v3c0Bmy0HKvj5q8fo5HvedyHYVsxOp5f+azXdd80inwg2HmQRrN7YGs0m8wpTfCbCZmYn0UOfWEpPfWElzZ8IpMDtcvyEP25qoBPvfo/+vrXJxR+crW/fPt1gPfd235qUWp4RSMSbdrboEQkOAm6u3cFNfwpOnz60qi90Jb8sFm1Naot87aiVYLN05Y5gQwHLllTbmLrU7dmyg/XpFuslol+ChTsli34JGrbcsJtr98mDRi8PgzqimGzcHdbaWsNH2JjEKqCTRsRLipfno4BiateYu2v3yONb7ErKaTAR8IC1WwXj1swCVmyfxMBPUg2+puIAsSVbqCQJ++tL6zdSXtfhUHWp7IfJtqUVj1FH9gKqmXUmDSXlKMsFOpGxZsxL5y9xbZojMuZeQ9TxqGuepPiHwHgfaTPvJr3rCfh2EKXmH5hOtfmaNYwmuhOF2ZLNf3kLvtO+AX9nhyaszGwtcjCDWxHUgIMbJATF35mtJ/OffUNjlJ5s3cW/YUkubbp1Ld3/71r62b9qaHAiCmlLzwh94S8HLcES7sVW1CXFgdjKzlgz5qtcB8sRGWfiT0HjH13zJMU/BMawP3DBr3Cpg/Dpesu/tqS2IwJ8zRpEEx3a/iyNNh50LB+Kb8xxGbza1OfGk8WizW4cWrNOOrtytP+JN6IRG8dmVRV2NZxOYfFG2C46KUOTZyE9YawZ8+Q1bDHrJLnQL6VYqxrRL07I+P91FPrleOiXo9AvraJf/AfUrgW+ZvnaVci/ql6kyk7vnlU6d3RRw3MNitZiK6n4UrjgWJ3t1aQZa8b8vPKLXOsVYY0WY60Oin5xBcfPlBG4M/rQA6Tvh36pe9PPxqS6AwJ8zfK1q5Cal3daLNkUWZIUBATYapAxLz1f8XwEjoy5MlizKRWMwe3e5Ci/OXlmd8JRRKsO7bFLCeapTjPgc23lwYennWCzn2Vu1xFaeeBPFj9wvvh/s2/L7DljbhTBVSv8otlmpJw3COiDpPe8SlrR7TjugHPbmd7UlrJuEDC+ZvFgQO+5qWkuiy2/OJjA5b/c5UKwceTOLbedQJ/fMHvaCbZeEGsPv91AH7p3O835xtt0Fj75O6cnJ8TRLR8upXe+vY7OXQb/i3by9pEuOvPH2+jXCNwQGGHMGXuFzPkfRaIk+Y3A+ABR2/NE839mPZJj04zfbxxVDRhcsxxFdGDzNL2QqndjSZaCSShee2rHbIyadZIOlmke7uCc65Kb7ichbDVTaLK06RPG3DCC60LRL6aB9KbgGPRLA/TLcdAvfKSKfvEGPrdlDa5ZjiL6/BG8lBUJKQKMuVEEV22V8lE2pOOLys5GB0iveo60M36G4+fY8iX6JVDrbHTNDrX3UdUz0xCoKVATi9B2GHPG3kAMFYzils7aBJi5m3C2WNVg9eF9pI8H50bMvr/EkT6af+wlykK0UE+iJWdQyqfApgdQBh+6nvThfsMW4/RRKmnYREy4HZl7UdCt2hhzxn7xcetcx5S8AH5ZrofvpEdc8yTFPwR6X4NFBN7Ap60nLXU1LE6egGXbP+AMx95EwL8uYq42X6t8zSplO1L91y/vHOmkP2yqd+hhAbZf3otIn2cuznVIn64v3QOjdMEvdjpEKN1xrJd2PHaYfv9WvWUbK1vclSHIwmPw8fbCrlb69pMVVNthNUnhqKjffaaSrlw3gwozEaLQL2HMGfszXFtJw5+C4s/ige13rnmS4h8C7XgILroaTvBPh4P+E61WbWzZNj5NZkf+zSY8avO1ytesQga3QnePc1jOEMsgtm52wzLNTbc6giFoCGjgIPxnhi+F5IlUs0Ovw+95xKElJYnnVMISeEFnPt8Dgedcz+N3YM7Yp531edeiGVirMqxZtegXV3D8TGGSrQT6pQD6JW89rNr+bLVsE/3iO7B8rfI1q5AXK56hUT/0S1J+Es3/4jxFy9GdVPGrShpu8/2emjFn7K9b/mlXoHKwVkvxSLv/Qdc8SfEPgUrol0XXIML16dj1cyLp+x4GzjjGfF9L/wYUBbX5WuVrViHVz28nHQHRREKLAGPO2C++EX9HXWUxc2awZnNRMO5uo77s2g7863e1U8OxSlVWQNMy+upoxaFHTBFslo4RgVPLLQnogbCepuaUjgg3Kw79hbIRlTTYwtjzGqhEy1f8cVEVlDQvERgnveMhax32z5bzcdJmP4CHODwQi/iEgPG12oL2DvjUpnMl3lZpL9+6sIzewvbLcCHYeGx3v1jtQLDZj3dffR/dg3x7ufi4Atp82zqLBZ4tXcczeVuv41xted5/Mva8BgqZ/RVFoiT5jQBHwq67z9pMHPQLE0RLH7OSbn43HqMNGFyrY80VNLzv39MDCvtX83RvnGVwz9E5UdG5/pjBVDjyqDNZx0XTNIMKE8lM5vGzkVkiz31rLrmMPa+BUuaJflHi4m8i65cjNv2STFQO/XIi9AuTbiK+IWBwrR7tqqK3azf61qbU8hsBxp7XQCXaCuUjraqopHmDAPSLvuP/rDXgn01beRNpF+JF1uwzvGlFytohYHSt9lS3UMNbgXk+sutOTk0iwNjzGhiIUsEoLdnAyF2JRlaoGjpWcVCVHNA09rs2/+iLCE1vdAcZ0O4C0lj82BAtqnqaqhANpDV3WUDaNGqE12DZmpNds1Pgry37Elha4c2CSGARGICFDx+pa6ztYtsobyGl/q2kt/8WDyWNge0vmlvja5SvVaWwX7DgyFfOLrFsvzTbev/wGG072kPbcbA1GRNcHOAgUDKK/ayPvdc82RwHOfjM6bMsFmwVzQOW9Mfea6IffGQexdv5jEtLiqfPYZvrAxvrJusG9oTX4BzXJtOXI2A1/jS04AZKJLAIdL9LxEfWhF7nbaO8hZT9tNX+FJZMwVrrwE4jLFrja5SvVYUMwi/YdInWDzYc/4h/2qkGo0hXp1sIs27cDznfEjHpVov/MkCewQrOYn3WBYKNrdhUwmXciFY70QGPM0jCa5B+/n+7tp6JNZuFtasX/eIKjp8p7dAtfORN6BfeNsrbR9lP22HolwHRL6YR5muUr1WFvFr9oiLVu6SRzhFiq65YE553IITX4DOrvuTaVC4eaedh7SpFv7iC42dKA3QLH8UT+gXbRnkLKdW9Rfr2n8ALiegX0wjzNcrXqkKOvbJLkSpJoUSA12DZzWerulzB3Bms2RwUjJJkQ+3PqlpgC6rmhmOqrIClWQm250GwBfEuL2CjdWyIxzyv5mUa1+Kp3cDU07GGb994DeZ0LabM7DyXBrS867CVUUg2F2ACkMDWbJbtovb7aGQLqdfI8jWqlhYkh8fN5fvV3XT1b/dSe9/Ujd9tT1fS7ZeU0+fOxA2E+2dV9fScUo+1DxJvF7XJ7ReX0yWrC2hWdjLd+Id9luTO/lHL1tC52C4aOuE14LUodO2y+DNCsrmiEpgUtmbj7aL2FtSyhdR7bPkaVQhbUI0ceUeRE6IkG0HGgQvKDSzWjIbCamJKVTiUsvho68D9EiulOHza+nEohS/8fsBdt2z5ZvOOkehcOXDfeQ3Gmi+j+KL5ro2WYe2EZHPFJRApbM12gpN+kS2k3iPL16hC2IJqW+MWRY53STpcQPizbdK73qKvNK/BuWUX0dzscpfJaUs+S7qQbC64BCKBrdl4u6jD/YtsIfUaWr5GVcIWVM3vhcfzkWp8gUwry0uh7NQE2lnn6COaA9SxccJ0Cq/BnA8fR5lliucjK3fmnmQDE8fhE85VTaKu+ogqOWBpHLnTasE2vSD6NyGd5te8RCOJ6dSTXuJfU25q81osWQX/Gs6ScSashJYTDe51zpHv/iIwXI03Mq/BauA8x5ZsW0gzzoJVG7ZkSxRSR3zsv/G1ydeoUsLjmmXy64oH9jgQYDzcIUT3vO2pCkqK1+jTsDjzVwozkyyWdUMT/hW+/XQF7anvpb9taZpsOjkxjgoygvjEO9mT8wmvxQbnRLxhw5+GDPyJ6A2exaFrpzGSMoC/r+yfLR/+H+3FtoU070KrVZtEIbVHx/Gcr02+RhUytOslRWrok7Re+GUbQL/21myDeDapBzs2GO/7gPjFpBHBhlb1QjcMG+5lJ63f+AWCm6K+D3CqJq9F2jkKa5NCrF021rBL9MsUWgE664V+Yf9ss5z1S7J1C+lM6Be2apMopMaA87XJ16hCNh57VZFqPimtNJU4smasC+Pgr/Ba3Jh9k2szJVi7fKxhm+gXV3D8TOmEfmH/bPOd9MvEFlIqvwhWbdAvEoXUGGi+NvkaVUjd69YX74qsqElaPzeTbjqlmObmplA/nrc+8+hBaplwhXMd/E6ftySXHsHunn8f6qTxaTTE4rVY8inlc+y5zKHBmm1SwSQoVud6RZolqmVjbbUqKyBpSQgFvLD62YjaImo0cd7murD6Odq78DoEQ8gyKuZXOq9F+aIVlJya5tKOlnsF6Q3hQVi4DC7CE/SOR0hLPwNPJArLItlC6nF1+dpUC7+xOKTOClDqzY8ccNh2adTswcb+SYKNt2keX5pJe0F+DQzDAgVy7ys1dOOpxX5HJc1IjqcvfGg2/fzVY5Z26xDM4N6Xayzntv+++KESSke50AuvxTocGa5dz7hOSDZXVAKTUv8bkEQg8eMUDxqyhdQzxnxtKoSjWg4f2KjICWES/4xHrf1pVWOkL0ECVIpWA2ZsAKyWRb24Ycn8GSrf6eUZmN92Ynspbzm1SaLtJHifvBYpJ11NcRkFrp2UYA2FZHPFJRApVb8lmgH9Eq/QL7KF1DPCfG0qhKNabsbWOH8kKS+J+BDxHwFei0sXfIxyU/JdGtMWIqCdkGwuuAQiQd/9AGlzoV8SFPpFtpB6hJivTZVwVMvGd4L7fKTqN9RpJTnJFoKN+02DgcGXTp9Nd7xUTecgUN0N62cQ38H8z9lz6JTyLLrr5aOhHt5kf7wW5Zevo+S89Mk0uxNeRLck29V2hSdPG2qrJs8DfaLBceKCoy9Q4qhtr0Kgewh9ewkIbcyk4b4F19B4nIp86wfyAABAAElEQVTL9H9MvCZlC2EZ5CzZH8Eby7ucU+V7IBAYa8cDwFOW4AeGzckWUkNoiK9NpRxUpgYy8bkdrV43d8XaInrg+sX0G/g/+zas2Fiau4fpSNMALSl2Jbi97eBbF5VRXecQPW7nm83WxtX4o3LrhXNtX6fhk9dkrWu/hdcQVXzDNV1S/EdgBNdo01+swQ+MWpMtpEbIwMoE16ZChve9rkgNbZKOoAMcXdQi4NK0g/hv3Eau2ZFcwRjWGG5Pa9BHqZ2J2rCN4HPsUM/mW9ngC69JyvqrXDsqwRruFf3iCkwAUoZacB1Av3DwAyORLaRGyMDKRK1f3gmgdc740Dh17++xjCFndbbxWHzI6dzR5UMtxyrBGlPW0kyKS7bTT47dev2N1+Si+Yr7zfl4xN18i9ftSQUTCAy0kr4fhggIfmAosoXUEBria1MhDZsOKlKjL6lnEPdEdsJk2hexa+ji5fkWgs2W1eQU1M6WHspPXpOyS9eouuRFnFQwDuwPzNzORyY8orpKU23wWMOShreIt4pGm6QNNFNp/X+o2sD809/58pooSbbEmfDtcxZCwU7/g4W/cwzH+nrXk6Rl4qcS7+oTb3K8soV0EorJE74m+dpUymFl6nQnJiVYHziTExxv/rDhKyBDYx8DD1y3hMoLUulHL03pWCbXvvHhuRY3SwHpyKdGeE0UJFvyLFjF4Ppvf9mnVqWSBwSaHkHkPzwcJCqsfGxVZQupDYmpT74m+dpUyPCBNxSpIU4qhg7h4AU2sVi1BZlcs/WFrRUaP1/vhwVdAcg+9r8Gkk0pRY66TlkmAIm8JkqSLQVrWIS1bBb9EgCYXZuogX6ZdTl+K4WuebaUONlCaoNi8pOvSb42FbK5fpMi1bek0d5RaniuwVI50ISWrV3fRmatFawxpc1JpaTkwFny8ZooSbZ0POIiQB0dE/3iz3VgWPcA9MuCj8Idgpv7F9lC6gofX5N8bSqk6d3wfD5SDNWrJPa7tm5OJu1v6qOGrmHqGbK7P5po6fKVrtfR3oY+r/oJRmFeEwOSbTZzadgyalEwzndT+MvrKu0tjTTQ3+uaEYCUrN4aKm7ZFoCWwrOJorZdlItoqcEQXhNeG5VoWReokiUtEAjog8TbRk3JxBZSregOmFDPNFUlWgsZX5O1mHJ30Kd95qIcOndZHh1X4rgF8uyleZZ0zuNjfuGUqfvftzbRR361m+56vmpyfOwjbUGR/1ZstgbZX/mFxzlua7gIkUwDEVzB1odvn7wmvDYKKVD+qVAUlCSvERiHwy7eNmpGbFtIORIpn8eyGFyTozU7aLy7afqRwfOjzlFAp1NA7GmNxgSbxYrN+a4wSOPlNeG1UUqx6BclLoFIHIN+4W2jZsS2hZQjkfJ5LIvBNbmvdTe19jdHFDIlRYnk7RFRE8RgeU14bVSilYl+UeESkDTs4uJto6ZkYgupdsbP4ZkktvWL0TXZvreWBlqC/3xkar0CXOjK1YV06zlz6E/XLqF/fHIZfXK9uWfkw60DFn/W2SkJVJAeAv8WinnzmvDaGMikgklwKnCx03fL15YGw4ZUxU2nxY+PUPmxV1AeN31RLGW1r1mCIIyq9qn7OW9em7xCxYWZqXae6Gd35qszoZS6Go6YO+CHpg2f2GY51on6IXpzb36kvpXkAAhZlyFiW5m5+rKFFNaVRtdkpTkM/Sz1wPVLaGZ2Ej29vYU+/fD+ydb+dtNySkQwA5tUtgzQGT/aTv3DYzSCSF9vHMQ1bCdfO7fUobxd1uTplspu+hx8wJmVjj6LWYvZ4iEsx2tT4tpfnvJPhWu5YKUwoZSJwC+8vdJ2sJ6B64GoEA6AUHQ1dOgCc9ORLaSwrlRfk8NH3jWHoT+l+LLrwX0MghpYLMRS8D0DbFWmXaMoow16d6+jJadQ0lkXwWra+VbNrt2J0+E3Xia9x4/tYHyvWhIihs02ZqxNQinuE5xlJtZyp3NiCL8zoZQL/TIM/TKEgz+Ho0i/cACEEuiXDJP6RbaQEvE1qZDtTVsVqeGd9JfbSr0e4IavVnhdZ7or8NosK1jpOoxS9Vq6FgxSChNKHIkT2yvBoFg/4dcvau5fOADCImytzjGpX2QLKVw5qK/JlvergnQRTm+zTJBduiJ/chBs1caHTfj5ax/8Y7Nf7GUz0yykmi3vz9j9Y3tiG0O00Wv+vJ86+kP/DMVrk7dc8XxENLmYkzOCeRt+8eqtoq1Ndba5BfRzduM7lDwcnQytPVDsa660fiNVlgbeuozXZrHFQbl9jzjnbXlpaxDpcrtTRoi+jjYhNgBuntNPt+sQTxlMtDHhNsqkm/XQx/DHJeLIuHFYsz1E2ozv283Pw2ksbyHla9Fwq2i1B+BCmz0PlmyP3rycrn1wL/XamS+zsudtnDdv8PzG7WjbIPER+VKNKZzhOg3elpeFPxndW1zzQpEyBPcCs/AQnHvOVG9MsLFeGcFNq414s3w6fY8EMo7nUncftl3gMCuxvIWUr0WDraIjle+ZRdC3cm3YitmA9bLnz9jwvxVbH3AnqBfhP2zB1A7ju5f3gUkfupBSLr/O1Lji8bKt/4//Z6qsSyEY7+rz4oMeVdS5X8vanPV552TrtrxcrGnHNOmXAeiX+dAvRU76ZQT6hf2a2Yg3/uTvkUbGsX45At2y2hv9EsNbSPlaNNgqurN5m+v1KylhgQCvzXXLP+06Ft6WV4Q1bZ4m/dJbj2eHE0Cs2L145t/kIPSLjXTjz0H4OLMQcRFGxmEu+o7/I23D/a7YG6XE8hZSvhYNtoq2flBthFhEp/OOIPBOyjm8sLeNfvN2Aw2N4jcB4SBxtyAI3Knzsi3fbQQbf+HnsjPn59Azu/EbCbHw2iy+0Z7jmBwAbxk9EVtGt0ySbMiyu5uYLEgdbc00Mjw0lRCgs1Qokxmt2wPUWvg3U9Cxj1ryV1os2gI5Wl4bXqPc/CLXZjPOmD6SDU8ceuvPSWOLtuSFE2PDW3L2Y8aHnesF+x+MtSB+WJFAxg3g+uUjdY0r9u5SgIlWdDvWZivp7b/Fg5d6y6+7JiIuj69FpeBhhoJDRvXZEWTKrt0knr4wh3Z/70TaWtVN7+FgJX/5mkIqzWMTleBKEqzq5uTigcYL6cNbn+AIrw2vkcIXTc7Z00eyMaNx9C7rFsm0pdapa9Av7MfMnS8zLsk3s5FAxnXDAouPrJOt8zP7v20Laddb2O37U5AAwXlJZnY4ISnH16JCRmt3kz7YrcgJUBKCCViCGcSjPTYC45+h/U8Rl6nWhP+akai+n3Q7kMTVuPk2KQkr12IMGMQ4rm8vRC/EX+CZPPjQC68Nr1FCyUrXzguxptNFsvFi7Yd+YYu2TDv9kgT9wkem63AnU1i/RAIZ1w7dwkeel/rFtoW0FfrlMPTLQAzoF74WFXKwfR/1DvcociQpHBDgteE1Wpy3zHU4s/HIO10kGz8fbb6LNLZos42N71/Yj5mTLzOX56NIIeMaoFv4KPZSv0xsISVEiNW3/wTW4TGgX/haVEjH/noa6Q3O85Giu5AmVWDL538/U0n3XFxGeWmJk33vru+j+96oc7hdYmOHe16tod9dvZhmYTeSs6yenT4tJBuvDa9R7lLF85GVU3Mg2c50Hjh/7zDw+aUq603anIY3iaOKBkr0sREaO4w/+h4kfp71pnWs0vMbDH3c/m7ZQ8Mmskvr36C9C681UdK7IrxGKpJNSz8ZF+ovvGsskKX1IdKbv0/arJ+DWJsyC/XcBf7YRAgZZ7Fm422xlicszzNzKBFDW0j5WlTLMXWyH6ntfSP045dq6I9vMznku7Dpss1Pm7etzMhKoqWz0h2q9SJyzvvVUw/868qyKCMl3qFMJsi860+eSVl2ZtMOBQy+fOSXu+ir586hL+JtTwpCXwdWeI0Uf0Ry8Cej5p7AduVNa+O4+aj4OtGSP4FYc+PE27nNSCLj2JotE3+zeMzeSixtIeVrUSEjNUHcc8i3L9heqauW5hjIt04QNTaxO7UlefrUsnMpvmyhp2KT+Vp6JiXMX0Kjh/dNppk50foDFcbFTG+uZXiNlCRbAdb00DTqlzHol13QL+ugX9wFCXCeEv9WI4WMY2u2E3zUL7G0hZSvRYUY+fxSFJWkaUKA10hFsmnFZ5L+wd3TNCp0C/2iv3kLaR9+GMSawkjCaGSsXyKEjLNYs/G2WF/uX2JoCylfiyrp2FerSo6aNCbavvJkBf308nk0I9NKnj0PKzbV7dIwXPe8uK+NPnty8eT82RDu6V2t9Ict02eowmtkQLLxot6dMDlaolPtzidP2Uoq0JLR30A53RWBbXZ4gIb+cYvHNlO/+pKljJmyHhvzskB6P8gwBEHoyDZ/42ymC8M1Aokz7YKtoBaibeaPoGiTAzwc/LGZbjJuuBpvWl6DPet5vs0tVraQGl6L9b7hpqjF/tMeeque7n35qMv+/NVzMqgIxFeo5MzFOfQb+ICzl911vXQmfL3Z5OdXL6TlTkScLc/TZ3FOMi1D3X1468PCb3rufqGaHoaJ9XcvLqcr1xUFMHCCwRplK/9keBp6YPN5aygTbYseBM8dYCtDvjGcbsu4gSOwNnmeKB/+H32RWNlCanAtjtbu8QU1c3VweRjKHJBvCSDaWlW3i4a1HDISV+Hvt5fRTxKOO8Frko2gQrQDE5Z24Pz1JNhO8E8pCxNMcxhSUL4YrlFeGOgX3grKRNsa6Jf4IOiX6SbjeqFf2D/bLF/1C+7pyj8LS8gLrVZtbN0WjWJwLbKVVCRKJPpX8xVnwzWaGQb6ZaDZSrSdEyT9Mt1kXCf0C/tnm++jfomVLaQG1yJbSUWzJPBWzwXZxP7ZbNI1MGo7dfls6R2ZTOuG0cLt/6yivfDbNp3iZo0sCsYyM+wdXYtButxOjY6OUE9ne8DHP6vJsxVZwDsNkwZ57oEm2XiNeK0SEhIdZxmXijceq2DOH8S3+Y49qr8NHbZuHS38JvJdjJ/VdQKaGlwyjiONaulnYGp+3IRH8xZSvgb5WnSRYaTgISYA8vKeNrodpsdHmgccWoMOB+E0g+68rJz4PFqE/zg9dvMK+i7m/OyOFvg2sM6srmPIEnDhtzC3/sFH5tHJ87MDMGVeI14rJ5IyDn8yMvGno2dbAPrwo4n+/dato+X3oJFpWORgk3EcaTT3PIPfkEnconkLKV+DfC06iT7cT2PNuMmfLinG3512kFc+GuxbSDYvx54Ikm3wyT95WQvFbfeuuL/VhqBMepDWgrGDQ9FLwbz58afN02B4jXittCSnNYzH9xysbec065ce6BfeOrpiGvVLMMk4jjQ6A/olXvU32tPqTeRH8xZSvgb5WnSSAfhaPtpV6ZQqX8MNAV4jXqvUBKc15O+FWNuWadYvIGotW0dPnUb9EkQyjiONanOhX/wJ/BfNW0j5GnS+NvEjGh0Ypp7qwDwfhdtvksezsjidvnLmbCpzcsGzanYGba/tVQ556Yyp33ByggY3PlPknLJCCBJ5jXitElKTnHtLY27NNkKssqt0d7S5JvqZkjLUASu22P3DlD7QRJl9tQH3zcZrpYwymnrc9JNsfM30YX994hzScq718woKZnU/yDgEeqDEuf4PLhq3kPI1qJRmZao3iWzJddvTlS4RQLkNJpiYaDq+NNObJiOm7Gz4bfvDJ5fCb9xsuu2pCtp2tGdy7B/U9NBF/7eTLlldQHdeWk7lBX48QFla5bUqmWx/8iRjzfSTbDyYjtdABJTD/8dNk0MLuxN/yLjhBsxvnv9TisYtpHwNKmSs8ZAi1Y8kjh6a6QWJy0am41x+ggH3omstJZUSlqz0ooa1aNzM2RRXVEzjzbheAiHg1rWKMdIXgmhzuYcMRAfWNnitlFFGc7C2002y8RCboV+q8Ptjq61wFdYvvpJxg7he0gOgX6JxCylfgwqp6qxQpIZ30tLblxgOsOG5Burc0UU5q7Op+NKpLVmGFSIog9dKGWW0IAxINsax5lWibNy/rAjz+xdfybg+6JfsAOiXaNxCytegQror/X8+UjQbNkmXrcx3Idh4cJcfV0CvHuyg2s4hh7EyGXfhsrzJtOSEOLrrgrl035t19M99gTcGm+zIxAmvlUGU0UmSTfkU3NPVYaJ574oUtu9GBe9vOr3rJbxLF7XtCjjJxmulItm0lGXhg3bnoyCiSp0ijob3WqlHh5tZxTZVdVkfUqNsCylfg2rx/S0Nbw39ztMV9IdNDf+fve+Ab6u6/j/PsuW994hjO3tDFmGHDWWUDii0rC6g7Y+Wll/3hF93S/ek9F9GS1ughTLKhrBJSEJC9nIc2/Hee7//98iWLUv3Sk/Sk/Rk3/PJy5PuvudeH933fWcQh3B2JY4O+m0AS5eughPZIImb3lnTTY1drMnlnVq7neog4nK1bdN/NFjrLFBzUdce1pen0bNfOJH+vb2J7ni8imraphylPr6jhZ7Z1Uq3nDOHvnpxWRDafLxWIpBN+NPhOrzwfa6/exyIco04Gr7ezevJKBgXaI8zzYQ0RbwHR5rMfZmnNSFimg1gU5Ixxmt10ATzh2JjyZZXRDEFJRS7DH4+3TXTDbaV8L5raHj7WzRWX0NjjXWkD/uWXZNNA0jTkwEMZuE3zuA8J+sG8YHXSgiypYnXNoiuAq969E84u+BB2DXiaOCtRa6mUTAu0BHGxM8sE1LJHqzuOhooh1S9MHOA10oEsmlZKy3zfKTv+hNpaZAvrhFHw8wnU7pj+SIA40xpmxuZYSakvAdF1F0V/miZonGEKu2VI50wFc3waD4JPqV//YH59OKhDnpmfxvF2WLo/EWZDrNSBtZciSOLfn5jCVXhmWdvBM1Gea0kINtKpyab8Cm4t6vDdT5Bf9Zg05TdDtX7WU7sl802NkSj/LBjEknXKmGhST2Y0Ywo4qgZ7c7QNmaKCal0DwauKfvwtib60yt10xY+IymW/veCUvrEGcXEETplxL7RXGkXVJNXzxVru33nP5X0mxdrXYsH9PkfWxrp1r9P16y5/s976ZdXL6Qr1+UF1KZrJXbd9IE1eXQx3gL9ftNx+vmz1Q4/bVyGHYbeie8nVaTRuS5vglzr+/4sWaukZb6rhq0EEFH3iKNh6zsKO5opJqSSPTjaUmXuouBvTKuCVtdSAG2+aAQFBlkGTX8BIKoWu2QV2c++mOKWAFiLc3P5IKrgIy1u9SnEl4NGR2nk4G4aevlpGt6xGcPxPh49F4fYLLns9NF1wNnStUq1mHxxjzga8IxnQcWZYkIq2YO13dWzYBFnxhSla5UpfPSN0KQFEUcjNJKo6HammJBK9mBvreTMbcHF4RPDCSUpVJweT08gcIGMCuAXuwnKCGM4h2yG5U1b3wgNjoxR58AIDQyP0QkwFWVKQQC4y5ZnOy5ZW870Gmi87W+c7ibImReuu5e1WuqEBYVITG9Pl6ljTOk7Tvbh6Q+4pnYQJY3FjI1QuslvwaRrZZ9nLa5MRBwlBERQZJADbEJaDL8GbGrLWm7RRtI9GLim7KHGKWeX7J/sJtj2b/3mOvo0omvKALYRqKXd8sBB+sVzNdM4yGaVj2xnTS1PevLd4Pcpa5N95m8HHGCXaw/84/Kpv+4nM/pwtsuRRT+PKKPbvrWOrj+lkPhNj5PewJujwEmyVonCn47Auwm2pjPiKAdEUGSMA2xCuuSf46a2rIUSbSTZg2Nt0//Og52WnoS/JSinaQcMaKgdH/MJaPF44taeRsm3fofYl5oZAJvHHKF5xyBe0s1fpvhzLvXIdk/QWjBuJr6x4i2LWQYMQ0zStUqxmHxxRhzlgAiKjHGATUhPgnwpvxG+E6NQvkj2YH3PcWPzV6UizgHpWqVbT75wxFFCQARFBjnAJqTveWjc1BZablFHkj3YWyc5c1togqxZxiacd121kH58WQV9FgoOKyXB3IrS7fSHKxfQPR9ZRB9clQsNNY0+dM9eug7PQLc8fJh+91qdoZm9fLiDXqvsJGcQhAegcMGgXSTJy1otjIVjNnbWUywaYF/vlI8fUb6/aRkmAUtaeiH8jsz3t/vx8rbxN8W2BfjhD4BGj7yBA6iBQ7aPtjO6j1JbxiIfpYxnS9cqrmDcYfZYZJHeaTMJacTRaT3NnC/RakLKAQ94DwopGNBnqkE2D/3BB3yDyRwY4W9vNUxVnPjEYNeN9+2n7JQ4OmPhdPXlYIU3m7V+CT8gzt8ABgTXlqXR1qouYtCP07/00GG6YHkWcZ5ZlItw2By99FWoXFc2m/G3L1mr+CLryZdQRhw1a4Gs1g4//BbC31TWe4hq7yTqfNVqIxSPh+UL70EBjXbUC1KDSMrGO0kOBjAEoG037jjP6+yjjaNw9gGV4iidA/iDZlDK4Jlv+J03qffOb8A8dDWuE8lWUoZGzJMDYw3HaXjPdhrZ845Do83n7AGsOebmPn4eEo5Oeho+5GO+ztezPhs0VkC6VglYW3bIP2qGDDM2Fp+lQhlx1GfnUVogWk1Iee/xHhRQU5/nWUJQTCVZgAPStUrGoy875B+xkHwBwMZAmxaKiKMWWIuQDCFaTUh57/EeFFBfo+TMLSgbiaSNMPW8BaBaWoJtsns+unzx7Dl00z8PUh8005zEig/fvGAuJdttjuumUwvpuvX59Dx8rz28s5nqOofINaiBs57o/iT8r70zERghC9ZLnYgyGmnyslbFbC5aKhrgYH8f6WNTTBKV8TcttcecN8u2+aeS/YIv+tv9tPLxV/x02nejX/p/epYjEpbR8rJyZvHC2T6vFa9ZfGKSM2nqHodDwuCRqe9W+BTxiKNWYEIAY4g2E1Lee0JijVZz5Yuwm4nEatjsc8RNJ5VlJ9AKqDf/F/7K2KcbX9+GaehLXxQ7OeZ6t0JD7NZz5zib8Lhfe/deB6jlmsH9uvpz+/J75tJt55fSj58+Rj/87zFH0frOQaqFfzYek3WJ14rXbFyde9o4E/AT0ndgWlLEv0Q64mjEGRDgAKLNhJT3noDGeuDPBBrjptIEyKR1AYFiEIoBKY7E2RLEIc9hzrkHANgeokcQpTohiexnXkAJ77+ORuuqaXjr66TFx0OBGbLBcZ/4DEBeHxzEBf+LQ+N3fWgAwRJWUuyCZTS06SkaeOwB0nv5b9ZPcgfYuDqnDWG+LfjQCpPZIqBsZpqVYq14zWJScjwHm4g17rGYfIl0xFFPLkVHSrSZkPLeE1D7QCtekpksXwT9mJFUfb/3566i9xZSbJrTc9BUjyNdI1T3H+8vKkqvlZ+HplqK/CdeK16zzIRsz8EkY407LSZfIh1x1JNL0ZESbSakvPcENNjWSzpe/luZspNjpwFszrGySehNpxbRzzdNudn51GlFNN8t+FoirG4uhUloLZ5//r2zhZYWJDubcNz31PfSb16to1+8fx65+mJLAlDnJDY3tQLxWvGaxWdNnwOPjSVroWiQgwPmIvuaPkrJJqvAjla9Dce+B0XDNz0tdvlFpCVPRbYItoP4oS6KxduTkWDCGrsNgtdMCLLF5lsPZOOxR0XEUTcmW+VrtEQh5b0nJKh9hJH21eGlgcvD4wM3LqfFhUn0PzDjfGBzo2MkHKnUG7GgT0v0PIw669gEfuD4B4fVolmjjemFve10wbJsenHflCo4v+XJh+aZ9Yn5IwDZ7PgJsRrIxsyMhoijVl10RxTS9USN9+G6F4DVoDVHyntPQGM9bYJUE5LmAlyqBKjmXVQE3JE+0Afn1+PatCO7t9PgM/+mlK/+hDTbuNwZgwuP3l98G5pdo5T4oY8DVFvl6Kv/gT84gDq9pdkBssXkFwUGsHkbOd5SE18QZRrMYfUefCk1T6WN10wIsiVgja0GsjGfoiHiKI/TihQtUUh57wmofWDq91uQbamk3qPehdWYi8aJ68A53Vdd1/JW/8xrJgbZsMZWA9mYmdEQcdSqi84mpAUnkb73HqJ9uEbxhsiKlCyWL4PtAbwcC/P8GrwEersIJqSvH+2kLfC7dvaCDLoEzzwyqoGCAVPv4KjD7DMG6nBtfcN0xzPVjvv9bzfSJ06e4lOy3bwzh2xMgaTzmslAtlxRg0P8htREShhsJwbazKTRA5toZNvDZjYpbcs2d42pIBt3lDTQQl0p5r0Jkq5ZrHyDSyccrowZE3E0XAxz6ScaTEile89cEN+FK8KP8/Oglu1Cf4XZ6PtW59KmA1PBXea5lXEpHvDHZDjw3IjIOM9NhJh+C74EzvjRtmntnb0kixIt+sMxbaAkWbM44U/I9KqR+jZTIo5Ggn/RYEIq2Xt639Tftdms0yvwJrVVJ60Zb5qHzW4dlpjZE4FQoJ2uxdjGTUgnuuHjpYaoo1pKGtnPuniycy1x/A2qPjr+ZjcmR/ZyY7KK7w/A9fQMAGkcDEH0bsHkF+3SNbNbWL7MlIijvneD+SWiwYRUsve6h6xtyiVarNwzBVqiKGhLGtcMSVmUSnHpcRRfMK5Rz+myOs0vQ1M4yki6ZgnWlS8zJuJoJPZKNJiQSvbeUJfkrB0JPkr6bOiSA5f8Lu4LiPr5S1gP3Yq7N6qeANl+/3odPY6gCVeemIuoou0OgI3rPQwtt40A6oZGdEQcbac3j5obK8Db2PzJk60ZH50yRQ0N+xP2XdSAW1rCYOgOvW5dRc3XeMcPtXkgm3TNbONvxq3JGBVxNOh1sbIJqXTvmQvi++IhA2ir5qTQzprxN0S/e6mW+HKl96+eeLh1TTTh8x2XVxAHHeA3Ne7EUXRuf2+5e7JFv0vWLNba8kVFHA1yO1nZhFSy9/SB7iAn7aN6Nsw1s/FwyphWH1S72BcbnzlxunSYkwZjxTAyVdkBmo0AyQOw5iDk6fydI5eyau6E/zbd/bzm0sZ4RT/+56bnY26+rNdNfqEsXTO7xeWLijjqx+YSFLWyCalk7/UMWV/TxJ3TORKQzVkudVEK8eUkW6KNZHWiEWSTrlm88BHYyYYI31XE0aAXwMompJK9N9w7rt0V9NxD2EBjtxxk426zk+PojveUeR0B+8Nu6plqpxaRQn/m9lzGrnw4MAL7sLYyydaMQbYpqeoyg1E+yJlIcSqqqAc3Y0c4dJd5JF2zGE87YfN6NaGliYijWtHP8VrNwlp3Jkw1pE1Y0YRUuvfMlS9G+PqzDy0gjiTKoaLdaQVCR3/6rGL3ZFO+LypIooc+tZw+9/dD5BoVldN/efVCWpDv6UeRn5+3V3dPKx/IYLoRGts8kqyZLdW8LkLRkjPi6OJ74bzdum+tQzF1U9u0ogmpZO/pQ2F6E8wnKI46ymCXBrnCf25BngVH62s4xgA5tNFgFtrzw69Q3JpTkACz820IvOQA2kao95e3U+zSE+Ayo45G9r/rWOqY/HGzitHjVY7vAf/nC2ALuGF5RemaSdZY3lKYc5wRR9dCvsQr+RIw961oQirZewNWCsThg+HJ5eaf/0PRpo9pBJ0tXbM44SNw0P2Z1gDkiyMQwgX3ECWG5kWwaWO1ckNWNCGV7L3R/ingyaos7YHSAF+sKBAoMajm6sZH1o7VATYet2zN+Ig43Y5qYpajONyZSbFW9eli5iT9bMtmsp24dM1iInBi9pMXpCKO+ssxcXmrmZBK956Z4I+YFe6pJ5am0hOfXUXfe7KKXoI6MlMCnG9ef0oh3XZBKbk61HSvG+z3DRXp9ObX1tLhpj462NhHiwCszctL4udmIf0FqtP/++BhYV7kEiVrJl3jyI3Uo2cVcdSDJQElWM2EVLL39JEQH1K5+XqYc/YAUfPE7ANiLVdiYM1WNK7dHnfCSZR49Y3EoNvAk/+Eaep0kHtk307ii2BSaj/pTLLNnUdx68909M3mpBypdLS2yvE9Gv6TrpktCs4vKuKoOVvMaiakkr03bPLZ3RzmiVsJRXCCULQpHr15qdI14wiyVicVcdScFbKaCalk740OmYu/BMO8yxCcYBGeVeq6Bh1RQDkSaB2CFXQDYGuCX7ZgQDanqajr+FIB2pVlJUDDbZh8acu51ov0Z9maMcjGlwfpuoknR7SujVln03hMNkIJMDgxtWfZmmlYYnN7MnXYU42piKNTvAj2k0VMSHnviclc+SLuwzN19dxU+tenV1Azfhzq8BaFtckYaAsHMaC2EOAaX77oeQRIsB5J1kyTrbHFZqAijpq3IFYxIZXtvVBG/uuAP7Za/C2E4Ec1+bb/o5isCW2o2Fiyb7zIsWZaSioNPvGgcP3sp5xNidd+eloeRxlN/vIPqfsL15GHKem0koIvIZiXoBfPJNmaydbYs4XIpqiIo+bx3yompJK9N2qyf+lgGKdzUKUg/2Y1Dtrk+sKPm5wI1hTw2LhJbtciJFszLSZKno9UxFHzdpJFTEh574lIH5WctUWFQ5jGwd6uW59P6Qme42SQLdggBBzwjYMklGUmUFk2rqx4ykoad43x3IF2+vELNSGcnblNy9bMk3Pm9jvZmhGVwMnCEx9sizaSFuf5liGmaKmjBN9jB8cPoa519aFeGj34imuSoc8awsfbytYJy2oJaY5029LzYK7h+ZZ8rGE/jbUcFdaVJepaeB7uZf1bMh0RRynlHOhXitfBkmO28qDYhDRhKen1X4AmxHErjzSsY8tNjSO+rErwxGHVoUX3uDjiaNYlROmnRvc8rDJ6NiFNWUW0/6PwE1ZtlVGFbhwc8KAudAfgmAyxuwRZOk9USxf7FNLs8TBlhakY3jz7Tay0Kjod8tSr8R9HFVXHF0+2csTRVsiXbCVfPJkTQAqbkGZAvmyFfOmbBfIlABbVPFAbdBRQ1kxzNQHtreql6vuDe8Dl9qJR4y2AJQhfFY44Wg75UqTkiylMZxPS3FWkP3sDUbeSL+48PXthhhBg43KscRYsLYWSA18iOnN+Bv0BFj1dA9GtoMXHKKENkGYyABTIQ6P93M/jAFkg4r8jLXbFxUR8uZHeXkv9AYBsMXnzyX7Zd9xam/7V/p6vTU+Y+Db84q/9BtlGp706EjbrV6JszXTxEvvVdtgKJ+NQlbg2bN3N+I76tpDe9kf8lTdEZKq898TvMtUTmtEFYXPWn1+1wGjxaeUWfPVNau0dnpYW+BfJmunCn5DAuwllzcxzAbCdEsoeZlfbnXgpUnsnALYIAfiyvSd5QxzU4sCFqgNgw9lST4FUS8aVjosxrC6YjnIABPZXHMCfAwNiDq21iUAGQY3TpXL8OZfS4NP/Jr3PP0ft2j4cbHE61BMwP3ZZxOAaz78Xc4T1pi4RBS5d+/9RtmayNfa/h9DXyIN8yVbyxTRGt0C+HIJ86beWfLFpwT9gmsYj1ZAhDsjWTJdp0BpqNcyFSs8DwKbki2lcP/4q6dt/StQTGfnCew+/sB6k2ULxA+vRjdcEHtf7V+Z4LSPKbMHzBkcAPdDU74gQWgENtXk5iXRyWZpfVkN2aMFeuCSLHnynWdSN5dJka8Ygm9BDsM1mkR8R+D4YfuVuwwyNO+tThsvKCo7V7qTRQ6/LsqelxxQtIduis6alGf0ypov+vIzW9iwnXTN2/B0NFL+AtJzPY6Tm8iUapm76GAGq6W134cFos+lN+9WgdO+x6FEUXRyQrJl0jS02u6QlRHO/jUEp+RL0yjCoxuAag2yRJMne02Ltpo9KqxklnUE11uJyJf6zSIqZ0j2tAeAGk1J/KOEjN5F9w1nSKjGFcxz+2sZaGqeVicnIIltpxbQ01y/xF7yPYucvoZ4ff9U12dhngIUOn3Nu+Jw+JzRnQ+macWCBaKBUyJclSr6YslQMqjG4xiBbJEmy9+Lg28lqdMOFmXTDRVl+Dev8/62koWG5rLLHafTsT+XyRdTZPU+10T1PW8/dhXTNoiWIRdZS0jYo+SLac36nAVTTt0O+HH/F76qmVpDsPZs9NL+x/oz9xJIUh280f+o8va+Nfvta3bTgcm8jgBtTXkocffncUlpZBO16g3Tx0mx6aEezoeAIBpsMWTHZmvHx0O0INT4GmzNkfMiGZKxhDmE//Oa9xgqjVNzGmw2XlRUcq9tnuM/YVZcFDLLFmKwtKF2zsV7ZVK2TjqiiWt43caqHiYuiwDmgQ62i82HSOx+CugE+R5qkey8u0iPz2T8HR2DfbU7i7x87rRBmptY7YDvHGNq7ZM1Gx39EQ9t3kK1zVNF5OFRJHOUH2frsqc4BjBrvw4XfZCsEM5LsPc2eaPqaOLS63AE2US8cbdRPkC1uxVpRS5NpDJSlfvf3pHd30sjeHaQP9FPsqvXEIJsjsulkSc8PtnmLHeXGOto8M/1M0UtiEEHTz0oGi0vXTLLGBpsNTzGOKroS8kXiKD88g5gBvbBMOQb5csza8iVB4rB8BqzAjJ2CdM2GhY/A1uIDoopqZ0DjSsmX4NYFSjv63nuI9uGyQvASyd6zJUb+GaN3aIxYKy0nWXLud1uJR95tod8BYJMRBzL40mOV9OPLKgwDbflw6VOakUDH2q3/ok22ZgyyCV85xMWZu8jDFnHkJ9sAkUgfm3r3bUr30jUb7TCl/ZA1AmDNAbABaFMUBAcibBoqHLl071k7Yty9b9TTbf88RGMuL3m3QAX63Dt30KP/s4LKof4cKHHYazyGU7IJPg0CHUNg9SRrNmJx+cLAGgNsDLQpCpwDkTYNFY1csve0hFRR6cDT2FxyDgAmI8TabnX8F+4iPHzVs0m0RF3rwZRUS8twAGxjrU0Uk+nH72WwL03xYl2fi/+Mv4R2Hbmhz9I1G7K4fOEHXwbYGGhTFDgHIm0aKhq5ZO+l2NmG2pq07UA/3fY7+cMuj3rTL+f5PfiNnzvitc6dny6iNYsCPxd5bdyETOmaDQofgU3o0aQmIF8cABuANkVBcCDCpqHCkUv2XlxyiN5kCQchTjzQ1Ec3P3iIvgrtszVzvMu7mvZBugvPTL5oFA9UP3mxhv589SJic1BvxKDcD56rjgqAjechWzM+2QkNXu3xkgcqb1zxkjc44seB00s7MykLz9qmknTNRlpN7cfcxvDgwCaiMBVVFCAHrGIaKhq+dO9Z9zD22qEOD4DNObWatgG6+o976OUvraZ4P6OSvnG4k+565Tj9991Wx+P3mYsy6MYziun8Zf6ZeDjHEv67ZM2GhT8h4R+esEf8kLOJKJuKKgqMA1YxDRWNXrL3tKQMUenA0wzia44O+FTF5RmYi0bi96s4runx+NvhP/lkTMZkzFLEFumaDVlcvrCJKJuKKgqMA1YxDRWNXrL3Uu3potIqzcIckK7ZgLXli8NEFKaiigLkgFVMQ0XDl+w9e5rkrC1qI4Rpnf0j9NUnKumatfl0LS6Zy9h/vNNEI64aCV7G1NA1RC/hGeuCxeKATVz1dSg03AkwjiOYRgvJ1oyPg0L4MT7B3EWO8gARIVnnAd1cu2vpmo00hmT8pjSacTUO8aeb0tSsa8RqpqGiBZDuvWRRaUuk/fL52kkNNg5h/T9nl9Cu4z307J5xc6uDjX305K5Wev9q45oLP3u2mr77RNW0+b24r53YBPW3H1lEVyFMtvVJsmZDwp8Qa0yn8BNEHOxAkf8csJppqGgGkr0XkxJi4Jo92cqOSJwXSDh10fzCncYaa4vMPZcYnYJ0zQYsLF/KPwlnM0q+GF3jaeWsZho6bXATXyR7LzNB/oAoaibYtH137DfcBGuTBaKp5qsDf9vsPdpL3sa95FuLfXVpar50zXqtK1+0FZAvHOxAkf8csJppqGgGkr0Xn+ldc0zUVKjS+Chz/9uNtLehl74CrbaMRIaNptPWav9MrrfCT5sIZBsa1emPiCj6+O5xRYTpvVj7m2zNmFvVoqHHJyaRFgNnvmPmvI4dgEkgI52xMd5VBEVjmYlpDPr2w7mJWdzgteI1E9Kwd9VxYZ1wJAJc0zI+HI6eZl4fVjQNFXFZuvf4R8QcdY+B4THafqxb1LuhtER7DC3MTyLbhGxq7IJfmAk6qSKNvn5JmcORZ9FtrzmTqbHTuL87BuV+8N9jk3VdP/AP2G1Qyc6BU1A7AD0ntfUGEKLQWTkkdx6b5Id/QPgTEpJR+NUog2uFOKQq8p8DVjQNFc1CsvdiUnIgXnC8CVXkuDYEN2jHHy+0vnT2wcbRRhFd1BEoYEp8iEZs7TRzDRiMzxVr5VgzUY1+i8oXBtfKPyEasUrzxQErmoaKxizZe5kJ2XiWicUzjdV+p0WTUGm8VrxmQuq1qHxhcG25Or8I18xXohVNQ0Vjluy9+Kxk0vA8oI+Yg7+IuvY3bXtND71ypJMuW+75d9TeP+W72ki77dCQE9EPYR76amWnKMvSabxWvGYiitU0rV/X9ePILHYvkJScSr1wtGsGxSRmUEfDKJzo4eCraFwNMsm8t2G8VkIabsCDhjCArLB42BJVJNHAWG1l01DRjHjv8R6MKxDksslF8P4wqmHCee6d7wjaN5506vx0+s8tq4hxtpWIqrP7eK+j8taqbmIttF0T350trigRC1Rnvuv9ke3NxL4ImNgPwe2XV9DR5gGH6Sin9cPB6JV/2M0fTaOOvhH6ydPHqEPyY+Z/RxLzmEEA+FaULyqSqP9LzDWsbBoqmhHvPd6D8UUeubaMQhptq/FINyWhGKBzL0wZAKhpg/jbZsBtJhDEnrYHUVQLML9sCMMwEa+VkAawtpIIbMLy4UpUkUQD47SVTUNFM+K9x3swwVO+5CUVUF1PrahWyNIWf22RR9s1D9RQb1XfZPo7h/rpy3+sx0s7jZ74YbkjnaOIupK/EUO5rqyNS75ylIbgDuhHNxXSiQum1HuTy5JozofnuHbr+Lz/+wc80kKdwGslpF48+o5Y8PlIRRIVLpfPRCubhooGz3uP92CyB/xCSfnpyAr++UjUrb9puVACuO2sEvhmE+MMqfAv3eWHuWKixNXO+1bl0F4oJbQi4EI0Ea+VhI47Ea+DKOCxyskpaaaBbFp6HrXhwU8KssXGU9xpH5s+zoQU0mxxiBj6qWnpI5sfIL2/k7TkLIpd96FpeQ6j4cR0jzrDr/7ZI5pITOmJZKvYMFk/JmOcBTElK6bV13FQH3n3CUc527xTKGbOqqk6eQscn2MqTqY4F2fLY40HaXTfC5Pl3D+0ghdamnmOLHmthDR0RJgc0UQVSdR/9keDaahsVrwHhSAbg8yB/YjMzTZX5eJ1+Es71trvCGhwzckF9MDmcRPrvqFRDzPP+XmJtGGeVKh6cKEFDjyddMqCDLrpzGKHNdm9b9bTILTwfBGbrBqlYahb/wXq1j9+qpra3H6o8tPsRpsRlJO8EOjnnw6LkYok6v+CRINpqGxWvAcFIFtM1pzQgWwYi74QZpUN0GhrAcA2QzA2B4shkrQ6hGUaBsjGYFsYiNdKSD0WlC8qkqhwqbwmRoNpqGwCvAcFIFthSnHYQTYNwJkHuTlKYuOjoeHpAsn9u0cbBhJkbTDAxnkeRk8cqEU0XgN9mV2E10pInRaULyqSqHCpvCZGg2mobAK8BwUgW3JRpiVAtrPxzHILfEeneAnUtrIohV7zQwNteaFYSWEF0v9w5QJHwIPttf6ZoMrYG450XisJHXSCbHtR4Cz3QsmIZEX1Jr0JhtZWyxDMstw7mfiuxQFkO+UGYa57+sjOx6H+AZANzo3d87gBjlLlnj7yxr2ku4XstRWv9CjH9WOKljku/sw0enTLFMhWfhLFrr9qPMPlf1vZWuLLSSO7n/IKsrXp2GQAFs0ix1qJGhuw2I+IiiQqWiXvadFiGiqbBe/B5FMFuax2PP0Nq6CQMIl9mL0N55h/39Jomvsj5yFxQ0U6ff68OfTz5zxlH0cEvev6JX6ZvZe5AIKvw+HnVx4+Qsfa+g0BbIXp8fSRk/OFPHBPZJ9x33y0kg7hTZA7XbIyh64FeBg4eaqIO9rq2xN4k6GoqSKJ+s/VaDENlc2M92DGRo9cW04ZDR9+wyPd1ASAUDq/K+M/uT483eLFtIaHTp0fLuPwuQsg1fCoqV2GqzEGD/VgRIYfA+W1ElK3xeSLiiQqXCavidFiGiqbBO/BnI0euSWppbStYbNHeqQTFsyJJ470CQ8yk8TfgyVZG6zBxmcn7teqxGslpPa9wuSIJapIov6zPlpMQ2Uz4z1Y5AG/UHIJztxvB/Z8JOvKn/S0BBt9FuDamfN9B5H64Am59DpAtunQvrg3BusuWiL3mcs+335waTn9dWsTLvOe78SjMSfVsVbipvY6QbZ3Rfmp6VJ0TlTcZ9oAbOJ7hzopGT6QZjNxpNW++GwyUxdHtlb6gJV+RFQkUb/2fbSZhkomx3tQ8P4VpXMlNXwns3bXbxAw4IZTC+nrj1Q6ADf3WsuLk+lbENblOVMmDK5lOJjBx/6yzzVp8vM3Ue+iFdkOjTY29yzKiKerT8qnK9fmUZ6fGmEfWJNH33uyyuHXjTXNOMKoK+Wm2um5206AKel0ucgvqLOhpu3Lj+Xeul76BsC1TQii4E5Li5LpuzBP3eglko97HfF3yVr1CH86xE2EPBUMU5FEjXM52kxDZTOT7MHYvApZDXPT+c+W3RWmjP/9Th408eBJHdEBsOkZ+NspxPjZ11wnZjCAsfNEuvBfmlh6I9c0kq5Vl8Xki4okanzNo800VDYzyR4sTSuX1YhoelpSDHHwA1dy/+6aZ/SzrA1XE1GjbYW7nGyt9DZryRcVSdSPnRFtpqGSqfEeFP3CppblSGqEJ/k7F5bRCjw/GKFlBUn0fph6/mtni9fiPM8vbCwhBvC8UQwefq5bl0/LCpLp209V0aCFfNOJxu1lrd51gmzbRBXTMiXaC6LCBtLic0qprnkbLcgxE14y0LHFihxHCNvYormmjkq6Vv0W+hGZMZFE8fQ02oEL0SZHcPE9YQk0F0xa02g2DRXtaukezBOV9ittbVkaPX3rCfTv7U10+2NHqbYdTpImiP2qXXv3XvrEGUX0pQvnUqqbYG/vmzLjdNZxvXPbfP0U6svBxGspSLfTr65eSDffv38yaqmznyS7jf7y0SVUmuW/TGS/Bd97ooruf7Nh0uebs10G7r528Vy6ZkPBZEAHZ15gd8la9WwPrLlQ1JopkUR1yBeWK8PNuHBo4SsFLgoSTAKNxoaIGu8dv9iMK9pJsgdtBTK9+fBMWKsEwGYQY9N7u6GBP/3B2LRRIrqK3tMtb47Pu3PGAULKm9DMawbY1gCADcEcwgGySdeqw0LyZaZEEmX5Mgz5Mgj5MgjZMoQrHfIl2Sz5Aply7D5ckDEzQb5I9mB5xjz531QEcnYcHqB7nsK6+kGjPuQT5/vbJo/DaiRdqxbho29Ehj9jIomyfBnAPuyHfOmHbOF77gmQMSbJl2g2DRXtLMkeTKuQnLlFbYQgbdPhDsMgG3f/yZMLARZqANqahRpt7Iftc3CVc7ofrnbYF9yQxQE2nruXtdrmANkQ/GAbgh/0oey08JSxsXGUmpFF3R3+CW7uVES2wgVUe/hNmg/zKTc3AqLiMzattmOQ4tcuNm1+vEa8Vh7ETqH7d3okRyQhKiKJCsAzAGj6aCselqAlNMJ3/C0wwEYo6yRbFmklf3J+C+4e7aahotnzHuS9GOP+EMk+wlhDCj/CQRDLEtYWuxgmkb95sZZ++TwcAQ+Onx75DchvkcYmlP+4aXlAvQQDsDk7/CA04BYVJtGdz1TTm0e6qCQz3qEp974Tc2kefLz5SxxI4SoES9jmFlU1Hj9kn95YTLeeV+oBKvrbx1R5XiNeKzcaw09Gt0UOqdEQSVQEnjlANOx/J5jGd5YzXNZJcXijuezfzm/B3aPdNFQ0e96DvBdjph1fSLMjYnDefBptOiyqFdq0VoBTEHlGaei15ynhvR82WtyvcsNbXiF9gI93YtKz+P2yG+UCbOvBHnS+hnXLNvMrrxGvlQeNYswdFpEv0RBJVASeMYjGYBoDaU5AbchNvrCPuQ3/8mB/QAnRbhoqmjTvQd6Ltul7NDE2ieYCODjWWSmqFfa0HYf7iS8zic8Z9zztqSFvZh+hbovXiNfKg0awplD6sARFQyRREXg20AL/6JAtTjCN7wNu8iUxh7RLHjGHzdFuGiriAu9B3otuezQ20U6pZbnUXRXc85GoSyNpzx1op4+eVODVF5trOzY8KN0Ey6IzEETuJbjFOdjcT03dQ1QOBYJF+Un0nqVZ8MkvwClcG3H7/J9d2F9uaVb7ymvEayWgPsbWXI9Qr6PQee4FM7PzTAPZtJxyGoJPrgYwvtBPkyv3cUXr92ZonwzFp1NCqsT8KoCJ8RoJCYCNJSjikUTxsOCueWYEPDPIPC3zWnYEaLC0pNgMMQ2VzA4aEdiLKWcKstlXiDk/IgkAmP73glKH9habZ/59c8Ok5hj7K+MgAwxCRYpWFKfQPR9bakr3dQDqXQE2BhoZsPv2ZeU0JwCtOO+Dkvhz6eSfDAtQpCOJBgqeGWVd0c0CgNpo5YlyM8U0VDZt3ouZHscXii1ZHhGQTUNAhGnE2mIxcQBTxdqzg089TCMHdlHsfMgHV2dK0xoZ/zJafQQPNr008OjfBLmuSTqNVh2mkYO7XRM9P494JjlSSiArBfibpHTAybxGQmrDmlqBIh1JNFDwzCjvym8CgOT/i55pzc8U09Bpk3L5wnsx9zyXhPGPixAFMtIgW0Jh8L7QbG5a/vw9uTzZY77+JJgxLn/6k5XlNRJSg0XkS6QjiQYKngmZ6pmorfgUAKQg5csMMQ315M5ECu/FEk/5krmkKGIgWz+el57e10bsb80fWgJAja9gqRdB5xjoszrxGknIIWBcQbaXUdBjlTNzC6j6yH5JG/4la1oMJZUsoCN1e2YtyHa4ZZASy1b6xzgfpXmNRKT3vilKDm9aSCOJhhY8M8QoexnAo3MNFRUWmmmmocJJQjEHe1ETgmxzUMNcbUs2z/z1hxfS6tJUuu3BQ5IRWTsZFl7EQBq/xWGtN1/0u2sW0YfgwyA0xGskoA7+yYgwhTKSaKjBMyOsS5xPlHWpkZLiMjPNNFQ8S2g8YS8KQLa40lU0uP1RWa3QpLfhr9YFY9OzgVQVAbCCfzatAW88h4c8+8Uf/CjOWXwZpdHKg0aLei2nDcCcVFQiTpRofhqvkZBaLCBfQhlJNNTgmZCpbokpkC+FwciXGWYa6saeya+8FwUg29KcFfTs0Scmi0XiQ965kpfsQQwmoTCBSq+V/O4H0W4kqvIaiUivt4B8CWUk0RCDZyKeeqRlQL5UBCFfZpppqAeDxhN4L2oikG1pCVU/Ze7zkWQIwuRHd7U6fK2xj7QRaLU2QkHqeOcQ1eNiC59LlwfnUowtjeCmmpIEyg/P7GsnBvqsTplYIwk5BEysS+bz+Pxdl++Oj6wlFWePx7nQHN8tcYjA2Vb5LhZrmPJTw3SKc59UhL639I5Qe/8IZblEIQ12KLw2Uk22nleCbT64+gFHErUAeGZw5lrmx1EyQO2omWgaKuMb78X8rwhy+S0AawEOCPKCS8pIchVvwbUVrtr4HaM/ITDCXS/X0dGWcdOPNXNT6csXzaVzoW4to2IEZggN8dpI3tR0vBCaLo22GmgkUSuAZ0bnWPxZaBMFKF9mommojG+OvehxfIEm2wooGafBXLJLVtP0dK1j4mCIQ6heDhU2p0IIggvo2gjFNMSTbtJ5KqDBs9oro/hOMudo52zNrzuvDa+RkJojLF8CjSRqBfBMyFBB4vwg5MtMNA0VsMiRxHtxiad8YS2pFHsq9Qx58XkoazNM6ToCrTFpHPHYJApFmyYNbVozvDZSTbbj/MgbQQo0kqgVwDODbNNO+Fzg55eZaBoq4xvvxXWe8oW1pOJSEmi4x/znI9lQXNMZVPvcv49QJ3CLpp7hab6fOdhBsCDbn99qoEfebaGspDgqybDjip+8/rMbpscWJ14bL5psDgEz+RQK29HN8Mt2HHMqdp9XTn4x1ddUuicH9D0mt5zsadl0sKWd8uDUjs97s4H4TLuvqZ8ScoopJs28N0+8kt2kdwAAQABJREFUNkIaboCJ3nZhVngSRZFEowc8M8SjxNVEfPlLM900VMQP3ou8J+MKBLllSNsvSJ99Sd989Aj9/iUWw1PEZqFXwv/a998/j26Gv7XwUpm4u8E6RB7cLM4LSyp+ONwjiUYTeGaER2knw6MqLn9pppuGivjBe5H3ZLwnIBxXsY6G9oYRsGHQinGsBQDY3LHvdI3GeoZIaxNNIjxpOl4+O/qfwAIdWncdOKBwhNEwE6+NkAawlu0Rli/ukUSjCTwTMtUtMQuyhS9/aaabhor4wXuR92SCp3xZlbeGXq/dJKplibT93z/gGMeSby02bTyhaNO0wbk0xGsjpF6csZoiK188IolGEXgm5Kl7YiFkC1/+0kw3DRXxg/ci78lkz/N9zollVP9q5J6P9sOftYiK0t0PN6JS3tOcUUbbEISOr3frer1XsFgur42EjjOmxnmTINtEQdZ7vmni8+Qtt7DENJCNG02av446tj9N1TCHmmvAFGpyIFH8gefaDWfsmSeeZOoseG2E1P2cMDlsibH50B7YAcHxkjxgQNgGE4qOYmhci82PtmeJaaiUI7wns64VZFcgLXI/IoIBhTSJnQkzcNaIKMOu1AAVbHeAzTX/+09W0YfW51NmWDX0eG0E1BZZExkHmNK9hajtv1NBA9wDBgiGHTVJrL3GWmz+0GwxDZXxhPdk4Y0eufb5J4cXZMMIdPZnJjmDsnlmJEnrhnloPl6C1U+NQzs+RnoaQEEMO5zEayOkhgjLl0SAKW2QLw2QL7KAAcKBR0kiyxfWYvOHOFLoTIoa6s/cuSzvyTJP+bI6f72lQTZ/pzmTyvPaCKk6wvIlpYj0xreJqp4aj74pChggHHiUJEK+OLTY/BnuLDENlbKE9+QSD/iFcteWRxRkk423CG55gqXCNMkhKdiGw1Sf10ZCkwLGHWRj5yUeq5wFn1+JSSnU39cjac+/5Nh5J1Hs3lcRfaKPClLtFM9qzKMj8EfyhrGGhgcc5fShPsN19LFRj7bHOmoN1R9rODBZd6zlqKE6euOhyToDsDs+2DwAtc8MipH5H5ksbfwDrwmvjYj0LgjvSBK0taj76UiOILR9sx82e5nxPmaTaaiEK7wnNSHIxkBxGq7wmXRJhuiRzIDYzpoe2gQHnEegibq2LI04Umiqm6Ngj4peEr76ryN096t1XkrghTl8FLCfterWAfrOY0cdZXsA0j+/t42uQP/hIV4TCYjfwj8VESTW1ho0KWJVBKch7Zr9sLE/NqM0m0xDZTzhPSkA2WJLT4D2eD6NdTXKapqarqfgPONNK2zcCnyqT44MPjI89d3sTxxIYcyptobGgZVQPKKHpo4RA24OQra2d5QckUYLUD4MYBuvCa+NkOojLF9YW6t/BssX9sPG/tiM0mwyDZXxhPekAGRjn185SXnU0tckq2mJ9H13iF9kzvtMBdmz7XTpNjudUGWjHWWj9PiaIRpqHaIjv620xNgDGQSvidQfW1WE5Qu0tejwvwOZVnTUYT9s7I/NKM0m01AJT3TsSU0AsmUtK6HE3DTqb7bW85EvTbYXEWGUzUzftzJHMmMc16I4ACavCa+NhCYFTKxrAai3PS0zGc0vmUtVB/e4Fg/8c0wspSw9Ddpsz9AeqCKuLk6Gj5I+Gvzn5/1qU+9s8LuOawej+14gvvyhkR2PEl/+0O6GfhrGw3rW8rNgHmve6ZXXREhsltf9ojBLJZrAAUQSdUQUNdLUbDQNlfGF96TUZHQBam2T1YxIeh+i21z35730IhxwOunvWxrph08do799cqkDcHOm+3N/anerz+IrS1LockQLZR9t3N/AhAPQZvhICB/xmgiIzfLaZjCALphyWJNiEuEG72ZjXc5G01AZZ3hPSkxG7YvPpIEtD8pqmpte6OU3vh5o1gSu5egUeJw+D2DXQf7gmmHSkBLjSJ+D9o+iPVccrwXjKAfQhiANWhs+DyA/DhcPYQRX8C+p0Yh34jUREpvlNSn5IuSNGYkcSZQjihqh2WgaKuML70mJyeiGotPoiZkMmsh4YuF0XhMhsVlejZIvQt6YkYhIoo6Iokbamo2moTK+8J6UmIzmn7yAqh6z1vORN022w/AnfeeLNQ7coywrgU7E84yIohlk4zWREJuKTgqYaSDbRIV/4H6be+XCknLzQDY0HjvvFLIf3kYNXS2OaBXFJqgeuo/ZCt/ZTJQdBsZnF1HM3AD8d3mZBK+JkDpn8BtY4YTDm6ilfwAh77O8dzrbTUNl3OG9mfMpQe4ipFnrR+SLDx6eBrA5B81A1xW/301bvrGWcqGJ6y8ZeZZ+u6qLrv9/e6kJJqVOgI37WWBCaGzj4+U1EVDz3wWJKsk0DuTDpDpO/vbP0c9sNw2VMZv3ZonH8YXsS88OH8gmOlXxeAegLdY6HUjTSwHI9SDNiFCQzdlb+iiQtXgb6QttDk01J8A3GVE0C8EYsmAmGgHiNRFSrZIvQr6YlVgK+cJRU73RbDcNlfGG9+Z8T/lySvEZlgXZAvXFxtptgdaVsS+c6bwmQjrCj7iKQsaBxZAviT7OL7PdNFTGfN6bKz3lS+FpiywHshVLfLL1Qjnh/545RkMcNhT0oxdq6I8fWkDpCZ4HIw5OlwirnWiIIuq+ZLwmEpomYESvXO8XVYxPTKKCkjJRVmBpMGFIXf9enDo12tvYT31REKrV34myedc+zE2LsVHKusv9re61PK8Fr4mI9PaHRckqzQwOMLiW/n7vLbFp6PFPkd7xNzw8hVPzyPuwrJAr35v8pmNhRId47Z/30Nk/2T55/ePtKfMyjvB53SmFZOO41SBWg/7zq/VBj5ejhlb/5FTHtfWb6xxmotwoP3M/vqOFNld2TfZRkZtIGxdlTn4P7QdeC/HbJ2r8a2i7ns2tM7iWf413DrBp6L4riervghkg2/4pmuSAZG/GpOSQffHGyWJh/1ALbbJDo+OaYtw5zpv6fIBbafCN5oxG6jooFjP58RRTlA/A1SCQbweYxqCdKzm115Ds8BPnzIPyWiSJ14LXREi1Sr4I+WJGIoNrpT7kC5uGbv4Q0VElXzxYLtmbmQnZtKH4dI/iKiEyHOC14DURkX5I+IgrKqrS/OUAwDVtybXea7Fp6H+vINoN+QKwTdEUB2R7Mz4rmQpOiezz0dQoxz/96Y16qoQ7G1diWO0nL9ZSHfxLO6m1d5h+9lKt8/2eM9nxjLO9pptiJ56pJjOi4AOvBa+JhKYJGLcTGWNe2k5UfE5Uubhsvig54DQtu4zSF53kUCl853ivwzQq4MYsVnEEdl7bMScGc1NhGqulF5o6Qula9LyMN+YmmfWaOuKZ0ZjDTBTmokJi09CmO3DdDpObBmGRWZ/Ie5P3qJCWCVPDlbi/vo92wP+a83JVLvnLx5bSL65aQGctngK5OHhBsBQfG0Mp0DThi0G0u65fTHE2fsKeTsnI/z18tInyppc065tkLdrx09DDPxGKQsIBNhNlc1ERsWnokS+MX/xZkScHeG/yHhVQ/MqLBKkhTmoGuAZfZxpH7wRWpgNU04thprkEAJtzmaefUx0DYrBMz4Of2uwW0hOdSNn4WNnnG9fXK9CGK40CxEP0Uh3XJPGpl80/mdhPXNz4x0j/L12LZqxdp5IvIVsfNhNlc1ERsWnou5AvfPFnRZ4c4L3Je1RAG+ecJ0hVSZHggHQtarF2rUq+hGpNHGaiMBcVEpuGvvIFXJ/HGVLJFyGPeG/yHhVQ8dlLBamRS3pqXxvd/M+D9MX/VNKbsLzh56V/7Wym1ys7PQb1xtEuemLCTU7nwAg9tKOZbnhgP33l8aOOgJAeFSye4GUtnpvA0CZngPepQvoTUj1+MVLTsyivcA411dcIKwWSGLfiQkpoPkadrfW0p6GPVhSKtbMCaTtSdXiz7ajro56hMUrMK6U4mVlEgAPkNeC1EJHept4Ci/hiSpq9DMo953o2pUxDPXniJYX3qJZypqAE3rJTBa5KQZ75SQthesngFmuc+qJdtT2UkxJHh13CWSfEuTzM+mrAYP4lcBL62lfW0OM7W+ipXa0OjTn2zfbR0wqpUKKebbBpP4rxGvBaCKj+bkGiSjKFAxzogAMeuJMyDXXniPfvvEczPY4vZMubR3HzT6Hhw294r29mbi7AMsmf0mQ3blplDMSxhtsksY+3rikZpeHNnc4nN764GANpTM52OLJp51R5B8jGZUF6JjTnmlABRSJFvAa8FkKqUvJFyBczEjnQAQc8cCdlGurOEe/feY/mesqXuenltKbgJNrWsNl7fQvmFnZoVNoyLhT4zt/rM5yCxYID9jIkXgNeCxHp+/nRVlFIOMCBDjjggTsp01B3jnj9zntUK/GUL6lluZS3roKa3g7P85HXQU5ksoTYcRyKCbjYR1tT97C02h+h+barvtcBwjlNSaWFLZzBa8BrISEPATNx9JpeHEjcQwiAsBupy6fnEM2Zt8hUkI3YlPLUa2jk2d9RTWcvJdljaF62RFPIfTAW/b6/ud/hhy02MZWSTrkK2oHmnmh5DYQ0sB+H68eFWSoxeA5omR9HI25rqaKG+s9Y3qO8VxMWC+quQlpofkT+32v1dOOZRZMmn2mJsfTsF06kh7Y2Uh8AcXe6Bz8KgxNm7NfevQeyaTogFyrTTfa79oXzSx2X+5j4+yCiFd/3Rig1JXkNBNS7B2/xHxJkqCRTOFD8WYAmbvJFRQ31n7W8R3u/RZTsqY2ZsPq94QXZjIze/Vl2jtsegAbcNDDNBT8jVmYbmejEWY3vfIRyasi5nvLSkNmEBuIm6kTgxmsgpG7IlzolX4S8MSNxvkC+qKih/nOW92g35Euqp3w5r+zisINsjLNfttVOi+tstL9olB5bOzSJuxuZnDOqqLNsVo9Gn3ghYTLKqDPd1z3Ycfhq32g+r4GQ2vFIW6nki5A3JiRqJ3zO8/yioob6z1neo7xXMz3gF5pzwUpLgWyuk3M1EXVNd37m55aXEHE02onXQEK7GTtzz3M9frnn/RoJf3RPZA2qwjkVVF9j4oNwYhqln/5han/xHjrQPEAx8NNWnhXv3nVUfD+I8R9tGyQb/Kikn/4R0uJTTR03816qxdb6Z1P7Uo25cCBxNcx7cDlJRQ11ciKgu469qhX/RFCX3xAw+AYQLkjKhFNNV/r6I0foH4gOeueH5k9GBl0MzdlvXip+61mANzO3P3bU0QRH+XTVeJsH086PbChwbT4snzftb6cvPnyYjjT1T+svReBUdFoBw1+Y95K3NMd/ZbgVVdBPDqSdDO0lXE5SUUOdnAjsznt1ocfxxaFBZV96Dg3tfSGwdkNdiwE1J1gm64ufZp3kAtCxGamT9FRorA1MZLqKwYljlZ48VdZZJxx35r1Ui61SyZeQrUEWZAtfTlJRQ52cCOzOe3WVp3xhDapTSzbS67WbAmvXz1r8V/w/TyVQRt/43/PKYzYqbU6gX18IhN3AnzgDaqtQh2lH2ShtmTdM64/E0glVsY701xdp1JbiImQcJT3/C3Ycni0GlsK8l2qx7eZHWkUh4UAhZAtfTlJRQ52cCOiuY69qp3vKF9agKjx9MdW/GvzzUUADm+WVmPdetNiEAkZ6nAMiB6+EdEDE07IFS/HCXVpVVMVnmpZVShmnfNDR7j48QPLl6hPJZwMRLsAP4e/Cp9NhOALkQAfpJ19BWmaxqaNinjPvhTR4mKjtfmGWSgyWAzFYS9ZiA7FpaMcDjsAG1Bd9ZgHjk7DA/7xXec8KaTVSg5cvpy/MoCvX5U3rYRfUmi/8+Q669R+HqA0OOb3RZ8+ZQ1+6cC7HZplG71mRTf+5ZeVkkIJpmSH60gBHoh+/Zx+9/3e7PAC2D5+UTyslIbL9Gw7znHkvoD78FNR7aEILCqokvznA2musxcbEpqHM531wPM5abIoC4wDzkPesgBLWXwHx4oo8CQqFM8lFvuhJLl+cY+jDB5fnXD3BpczYRCFOYjNRJyVPfHafprNItvODs0IY7uC5g/eirnqwVlVKvohYE3QayxfWYmNi09Cj4DMHNmAtNkWBcYD3Ku9ZAV0873I483b/wxMUDCCp+v4a4stJF71jdwBsDIT9a8OQAxBjwO3iHYzWj5OzjuvdmccacBpkCwNsT6weokaYiD6xehjfRxzpnO8k1/rOz848f8bhrGP2nXnOvBdSB9ZqHz/SKjKdA5AvDi02bphNQ3fdNR7Y4Pgrpnc1axrkvcp7VkBll64mDb6cFYWXA8xz5r2EDkxgZh7ZvlbqRx41kMBRLcsXeqoyisr6kxZTtJQy1kNI4qmWtcE2wwn5AFQMrU4cGfVNOEGv5YgaGHsGoqbGFLJGiLnEPJdGFG3+rbmdqdamOMB+2Ngfm4oaOsUTEz7p0j3LUS3XBd0DRwL9w7WL6YEbl1FpFttPjRMD4vfBFPSk726lv72FYBUuD7DOMnxncO0r75lLB79/Mj1483JH4IOXv7ya/vrJZVSUER5NWw6g8vtNx+mk771Nj2xvdh0ezcGc7v/EMvrNRxZB+3daVoBfmOfMewHV/FiQqJJM4QD7YWN/bAyqqaihprDU0Yhkz3JUy8QNV5vXT7At2VwagAaaB7lHH82bOLbx0WhCdul5qOd6mnNqrLkGQXA2zM/NU8/OztSQ35nn0oiih5R8CdkCsB829semooaay2LJnuWolpfO/6C5fU201nu0l/hyktOP2tZ5I7S3eJT4zjRnwr8af3bWcb1zOlM+fK8x7S8aIX1C9PCdzU6ZnPn82bW+8zOnM/kzjvEa5v/PPJdGFN0pfJQ1fxCzsUX2w8b+2FTUUFNXX5fsWY5qWX75WlP7Uo355gDz3EtEUamAifXWNJC5v8A3240os8G9XOm8xdTSeJy62lvds4L6bpt7ImXBg2/7lseorW+EXq3spiX5iVQC0y0rUnXHIO1vGiB+GGZNs4x1lxHPwWxKy8wm5rmQ+rbBhvvvwiyVGCQHEElUSz3PETVUaa4FyUv36rxns64hSlrjnoPv7BesClcjruDowuXZdObCTPrx08fodwglPcwhf0EcWvqWBw7SXwG0/fTKBbSsKFnYUXZyHJ27NEuYF8rEtxGR538fPEysfedKdkQf/dRZJfTFC0sdfuJc8wL/nI+qEl9sXW8RNfwl8KZVTTkHOJJoNg6pHDVUaa7J+RRIDu/Zwk/CDNfj+ELx7JutcguCQIvfFgfSXcB1GBAbfzYGGDLxpOvSmNY/gaRxGseFcr4v4IilTAzSOYE3RwL+G39GJipwRd6QDmBOz3FLc9YJ4T22YJGD58Iu2iFfqpV8EfIm2ESOJMogG0cMVZprwXJzen3es2WQL5me8uX88otpZ9M2quw4NL1OgN9yz8wR1mQwLLcrlk45EEtp/Rotrx5H7J0gGVeS1eW86lyd5jdotBYmokcKhmgM4icGYmVt5fijIec7yVs7wY7D2Ueg94qMBcQ8F1IT5MsBJV+EvAk2EZFEtfLLHFFDSWmuBcvN6fV5zy4B/JLnKV9KL1xFLe8co64jwT8fTe9UfRNxIG1ePjHPJfQWY2WSvGnvPmVlbpdlzF9ygiwrqPSYuWso87SryWaPp2GAV2yGubm6Z5pPpKA6MKFyNyISvnmsh3Y39DsANh6rY8xlIsAg+A698VpvujP4DlQLYg7EJJPe8HVosW0W56vUoDjgfe96/rgE2lkiAqp8+7JyevlLa+iU+enTmtlc2UVn/Xg7sc82V79r0wr5+NKOFwINnYOTpapbB6nXQNTSyQouH9iM9XN/P0gX/WKHB8B22oIMevnLaxxz4UAM5pEXXh+7w7xuVEvTOWCD5uDhzyiAbTpXzPvmZe8mnHa9ef0E0ZKe6QJ6iV57OgE4PADrc13+5nt0R68OLTb3/gHM6azF5tK0owh/z0Z6mMkrr/cr+RKy5YiFfHkH8kUBbKFhsZe9+4FFHzatzxyAbK6Xs+GXlw1TXdYYpQxotOFgrOPO3zch3Umu9ZyfnXlsIjoKmTC/0UZXvW6nNZXj9/kNNkc65zvJWdf17swLZBzOumbcvfFa3yZ9hDWj69ndRlwq6S99Clpsr8xuPoRo9t727vwrTwpRr6pZdw744LVXAeNyYnNvdvz77bfffvg73/lOBb55wHhsusjaWx2tTeLKQaRqqTDpmLOMRluraLS/h/phklndMeSIrJcOJ9+x5thH+T1CNl/d19jvANf6J0xZ47MKKe3MGygmu9Tv9oxUKF+0gvKLJW23P4gD1O+MNKPKBMIBvR+1nGoBgTSg6njlwNBR0uzY24nLBMXYdBEnQKoT5AWWlJMaR1evL6BSRDDeAk0xZ1RRNiHdWtWNwAhNVJwZT4sLkw11wPVYE+6aP+2hGpi4O6m2fZD++XaTw6zUva3fvXScugfG99SZizJpw7xx0I/NVtl89Zo/7aW3APyNP0KPt5ibaqeffWgB/d/lFcRzMJfYTBTq/iJqvI+o5qeiHJVmBgfG4HBLV/LFDFYK2+g/DNlSDg0xj+MLTBezIV5iaaR2l7Bq2BITEaSgeeKvPZ/l3XRy5LEGWj7AMVdz0nZozzMAVyY4xrEfN24LVSJNCRs+TPaFp4mHUQP5cljJFzFzTEgdVfLFBC7Km+iFfEmGfEn3lC+ZCVkO32wH2vbK6wtyRvtHqf3tdkeON+0xZ9Ud5aMAxDQagxjYOXeE/rNuCmBzlpHdh3CUGIOYmNNqo5zuGFoAcC2rN4ZG0NYrS4fpcAEEj0EKdBwtL7c4eshan0m2JIEs89H/exdcQetcne67lj8I+fKuki+uLDH18whMl9X5xVSWTmus6zAsqSrwYsxTvsRnpZBms1HHfv+ej46lplE1rtlIc3u6aW5Pl19TL3/fOso/SfJ8BM9D0GLzKmAMHcFgMlqEUe3DJVyZXVtfo9ZG/xba8CzHxmh4/0vUtfc1/C3ziRLWERh1GaKPlmUmUHysoSkY7k5WcHBEp8q2AarGw/OEtRk2OFS0l55GcYvPwmEdv1QhoOz8IlqxVnJAHesm/eDpRMMNIehZNak4ECYOxBWQtvBV/A2lSjp8BunHJHmBJ7P2GUcP/eub9cRgmSudtRjmpVfMJ44iKqN3qrvpSw8dpm3wx+iNzkQAhh+hrYX5bOtFtPxbm6kOZuZM30Jk01vPm0O7j/fCNPSQA/hzZEz8x37lPnpqIX39kjJKTxSpubiWDuTzXFS6QFxxFD9GW5YSDYVItot7VamKA+ZywI7jy3o86NqExxfqfeKHNFy11dw+/W2teoy0TmifrfB8yNT2AYTFP325W14d6kCbTV/olu5v3yEsH1e2lpIv+Yq4hxHIlxcgXwaUfBEzSKVGBQcSIF/OgXyJFcuX323/Ge1qfsfwVIZah+jIbysd5Zd8a7HhesEUZFPTc3bFOXywcfCDF1YMU1ei26EomA681N13x35H7rzPVJA92+6lpGfWitwT6dOrYQotoiG8qHxwCaxQlHwRsUelRQkHkopIuxLwi10sX3b9+hlq3VkdJZOJrmFmryqlFbdIno+IGK1bApDNq4AxdDqDNls3tNna0CCcO3hSZnYeNdXX0OiI8Tconq1IUuB93JZbQYmlKyimr5WGu9scGh7teNtzDIBXBzRCWAMkCeZgMeyp3EQaxZN3Y/cwHWweoD2NfcR9On92kosXUurpHyFbMTRwTO7XOQXWFGSAzRYrfrjW674Bb6RvOIuru+JAdHJgDD7HRjtISztfMn7G+PnQOSTJDyw5MS6G2F/bRgBqO2q6qQl/606qahlAcIQG+G8bo3VlaRTLyP4EsTnn1x+pdIBiddCudaUzAKix1pkTROO8Y4g4fC8CLbAp6rryNLr71bpJTbY1aPuZPa30OfiGq4E8c6XVc1MdQRauPbkgRJFMU9Ad/4BINOMOfxZmjC+7Dkl9VhyIPg6MAgQfbh33fScYfWzJcho+9AYCR0PrJ1IEDTWtBacLd99qGI/WhnT225bl9iIvHnUAzFEkIoUa4BMHOWCATYtLEJfeBfnSouSLmDkqNWo4MDIhXwqEj0e0KGsJbWvYgiBubBXhm/zVZPPdou8SgzgC7HcEThh13Pl7uChQTTYOcvDp1Z+HooVYvuhvQL7UbwrXNFQ/igOh4cAw5MtgG2lzxfIlc3ERNW09Cou/6c8ioRnM7GmVNQVX3HI+2RKkwvCzANg2+eLI1JOjr5LIh0bbP3G7UlS0HSajO9/aJMoyNW2s+Qj1vfscDbQcn9YuW4+yGWlO8viVGaDWB/taa+4doRY8SLOmi1NrzdlZQk4JJa08n2Jyy51JIbuv2rCRGMAUUudjpFffKMxSiYoD0cgBrfQu/BFfJhk6vyx4QpIXfDIHLrnr5eP0g/8e8/ClVp6TSD/84Dw6Z0kW3Q+tt/97vIoYaHOl/DQ7ffd9FfSBNXkOrTjWjrtDUK4wPZ46+0dgpjpuIsj4vHt004ykWPrmJeV0PTTYQmsVfwmmUOQ6janPzQ8R7f3Q1Hf1SXEg2jmwFMeX3CuEs2CT0Z5HbxfmhS2xAaZZ6QDS3JVnjyKd8fBcN5CNB9aMPFF62AYt7yjl8m9TbMkKcYHjkC9blXwRM0elRiUH1kK+FIvlC5uM/uLtHxiaViQ02QwNLESFAtVku3XdVwFgQhNWRJUPkv68ki8i1qi06OSAdi7kS4UQfqH2fXW0884no3NiFh31qtsupswlkucjogcBsBkSMHjEM04A2Rjx2Y6rWFSrvuYoHXj3bVGW6Wlj9Qeob98mGmiuFbbND6cchS/OFuO482c7TEvt+M55/FDNJqBDQNEG4VuNIw7y3R1UczaekDuHkpedRVr+AmdSSO+LVq6jwjnl4j5gHqofPheTaBHnq1TFgWjkQGwOafOfh2JVgWT0bFbwiiTPnGTWQPvqv47Q4zs9/7aKMuKnaahxj+wb8hNnFNFX31NGqQnTFYM5eimbo7KfNXcgTTRaBtyuWpdP33lvBbThpG9PRFUDSDsDdSSmKIMANLethvZPUwDtqiqKAxblQByOL2twfIkXH5yG9r5AfS/+PrKDZ48Y7orrTRPgG2uzRQklnf0psi89RzxaNg/dBPkyqOSLmEEqNSo5EA/5shHyhc1HBfR67cv01z13C3KmJ7mCbNNzZvY3f8xFr1n2CTq15EwxQ3qPk/5vyJd+JV/EDFKpUcmBxDzS3g/5kiyEX6j+tQN04J7QPh9FJd8CGPSiG86gwtMWyWqyhtdqgGyGBAwe6/wjAG2s/vC4rNaxw/vo6IFdsmzT0/XOBhqp2kb9NftoqLfT1PbtqZmUWLKUYstOhClbvqlte2uMAx3Mnb9EWkSvuo6o+1lpvspQHIhaDqSeT1rZfV6Gz75NQg/kP7e3zeFvjU09ZcSmnz+9cj6tKGY1EzlxgAX2t8Z+12S0BIEWuK2TJ4IgyMqZk74OzZwob2r3ZUStodMalHeschQHQsyBbBxflj8m7WRg679p4K0HpPkRyRABbxEZiLFOOdBBwtr3ywtvhnxpUPJFziCVE7UcKIB8OUkuX56ufIz+cwhanF5IgWxemIMsDnRwYQVkiIT0Z2BWd0zJFwl7VHI0c2DuJaRdIIVf6NiTO+joI6F/PopmFvoaOwc6mHvxCd6KXQqAzbCA8Rtk454BtH0dt+/KRlG5/12qPjLuzFJWJhTpelcDjdYfggJGJfU3V9PY8JBf3djsiZSQN5fs+eUUk78QUT1y/KpvRuHSeYupYvFKaVN64w+Jmn4hzVcZigNRz4G8W6Ex+hUv09iMvJ1e8s3JGkBE458+U02/eaHGofHqbDUrOY6+fVk5fWRDgWFzTtacvfuVOpijVk36Y+P2kuNt9OWL5tJNZxZD6zYgcewclsE7Ryk6SV726DeIqr8vz1c5igPRzoHSrxGVS48v1P/GX2lw+6PRPsuIjD9+9eWUeMo18r73Qb4cVPJFziCVE/UcWAj5skQuXx45+E969qjhZ7SoZ4eZEzi//BJ630K5lZb+NuTLO98zs0vVluKAtThw4tdJWyeXL5X/2kLVT4X++chaTDFnNKUXraKKD6z31tg3ALD5JWACfqoD0HYvRgKVKjEd2beDaioPijPDkKrrMLEYgubIQA/pzgvf9cE+0jUbxcQnkRafTFpCMsxHEAo3IZU0e1IYRibvYk7FQpq3xAuC2g4/A7WflTegchQHZggHtJJfEWVe6WU2byHvXS/55mUdRNCTbyLQAUcRveyEHPrGJWXEQFsg1Ng15DAhfWFfO525KIO+jeiixZnhsgNj8H6DfNiN0CDcf4M8X+UoDswUDiy+hyhfenyh/tfupcEd8jfGM4UNZs4j/oRLKfG06+VN1kC+bL9Bnq9yFAdmCgdW30M0Ry5f/nXgAXq+6qmZMtuwzOPcsovoA4s+LO/r4H2kb/Iif+Q1VY7iQFRxQNsI+GWhXL4cefAtqnk2fBaFUcU8yWDnnL+C5l3p5fmI6D4AbH4LmIBBNh4ngLYXcTtLMmaKlEabbDxWTvelwUa9r5Ne+QErT0GNTXHAVA5oFf+CqtepXtoMj0ablwFEUZYPDbaOTVAOPDuK5qOGqjgQJAdW4fiSsVHaiNJok7LGI8OnBlvLJqLXlXzxYJxKmLkcOBXyJWejdH5Ko03KGo8MXxpsVPcS6U8o+eLBOJUwYzmgXQL5UiSFX0hptBlfegMabC8BYAtIwAQLsuVhGi/gWi6bTrh9tMnGYeV0Xz7YaGA/6Uc/qAIdWHkR1djM5wAHQih/GI6EJQ76HT2Gx0eb+ZMLZ4s+fLD17gHABiflKtBBOBdF9RVpDnAghFU4viQvk47Ekj7apKONTIZPH2zdkC+vQ76oQAeRWSDVa2Q4wIEQToV8SZXLFyM+2iIzeOv06ssHG7XvBsAG+aICHVhn0dRIQs8BDoRwCeRLphR+UT7aDKyCAR9su9HMOQDZDAU6cO8yKJCNG4M2G4dgeAbXXP4uonBGHRX1b+U0r1FEeeDDtQDY4INg8IiVp6HGpjgQGg7EzwPQhtDVcSVe2mf/j694yZ/NWWdg8l5AyoFjRLsuJOo7MJuZpOY+WzmQhOPLiqcB5EuPL2SJqKMWXR+vUUR5zH2QL29CvvQo+WLRJVTDCiUHUiBfToZ8SZLLF6NRR0M5TKu27TWKKA+65xjpT15A1Knki1XXUI0rhBxIX0TaxYBfUuTyRUUdlfPfRxRRrogDDF0AgC1gARM0yMajANDGtkhP4hLHlkVGe2sT7d+5hQb7+/BNUXxiEi1etZ4ys1kZUELDDaRXfQR+5fAmWJHiwGzlQMIy0sr+BqCtwAsH6pC3CVePlzKzKSsFk92Iq0g+6UHwbPfFYJlykipnksqZ8RxIwfFlOY4v8fK/lZHaXdT3/G9prKdlxrPDyARjUnIo6dzPUGzJCnnxAciXtyBfOpV8kTNJ5cx4DqRDvmyAfEmQy5cDbXvp3l13UftA64xnh5EJZiZk0/UrbqRFWUvlxXuPk/405Eurki9yJqmcGc+B7FWkXQj5kiyFX6h9Xx3t/8vLNNimno94P8RnpdDij55JmUvkMhnFjuO6GABbUALGFJCNBz0BtP0HH6WQ6tDgAB3YtZVaG/mBePZSdn4RLVqxluzxCXImsAZb1fUKYJNzSOXMJg44gLZ7fWi0MYD/Ki5++TCbiUXw6bi8BHJhDbY9lyuAbTZvEzX3KQ4w0LYMEUW9aLSN9XVQ/4t/oOGqrVP1ZuGnuLK1lHj2zRSTlCGfPWuwbYF8UQCbnEcqZ/ZwgIG29ZAvXjTaugY76K97/h/tan5n9vBFMNMVuSfSNcs+RmnxXuQLa7A9814FsAn4p5JmIQcYaLsA8IsXjbahzj46cN+rwKSrZyGDpqacvaqUFl13OtnTvTwfjT9EvjdYgI171aa6Dv7ThOnow2hpubfWZrOfNp/+15hx7IOt+uPKRNTbJlJ5s48DbDpa+mcfPtqYLXxIfXv28ccx43X4/0Tvc2cfbHvh41GZiHrnk8qdXRxg09GlOL548dHGDJnNftp8+l9jBrEPti2QL8pElLmhSHFgnANsOroe8sWLjzYuOJv9tPn0v8YMYh9sz0K+KBNR5oYixYFxDrDp6PmQL158tHHBY0/uoKOPzM7nIwP+15hFu3F9MBgTUW7ESaaCbNwogDa2f/wHrrP4u4y62lvp8L4dxPfZQGmZ2TR/yQnEd6/EUUSrb1JBDrwySWXOWg5wMITSP/qIOsrcacT11sSdv890yscEN+Diuxfq2ASA7SoV5MALi1TWLOYAB0NYiuOLl6ijzJ2RhoM08Nq9uAfsqiOqmBxbsIgSTrueYgsWeh93yyairZAvKsiBdz6p3NnJAQ6GsBbyJWej1/lXdhymfx14gCo7DnktN1MyKzIW0AcWfZgqMuZ7nxJHEX0B8kUFOfDOJ5U7OznAwRDOgXzxEnWUGdN1pJEOP7jZcZ8NjEqbl0/zrzyJ+O6DXkL+VQDYmnyUM5xtOsjm7Blg2734fJ3zu+xefWQ/HT2INxNjY7IiUZ2uxcRQ+cLlVDpvse95tD9Ieu1nfZdTJRQHZjkHtJJf4Y3NlQa4wOb0/NZmZsoXohjMjbXXYI7iixrvI9p/g69SKl9xQHFg8T3Aq30eX2hw+3+o/62/Q7yMzEyexcRS4oarKX41TLN8UQ3ky/YbfJVS+YoDigOr7yGa41u+PHv0SXr88MM0MkPlSyzky6XzP0jnl8O3mi86eB/pm+BCR5HigOKAVw5oGwG/LPQtX6qf3klHH91K+sjMfD7SYoG/XL6WSi808HxEdB/ANdMFTMhANt4BANq+jtt3ve4GZHIwhKpDe6m+ptJX0ajKL5xTQWULlhIHOfBFeuMPiZp+4auYylccUBxwciDvVtLyv+L85uXeg7ztuPZ7KRONWQzcr8aV4nvwR79BVP193+VUCcUBxYFxDpR+jajc5/HFEQxhYMtDjiikM4l19qXnUML6K4iDHPikfZAvB5V88cknVUBxwMmBhZAvS3zLFw6G8OSRR+n12k3OmjPifmrJRrp43uXEQQ58kf425Ms73/NVTOUrDigOODlw4tdJW+dbvgy29VLV49up/tWZ9XxUePpiKrt0NYIcJDs54u3+DQBsIREwIQXZeEYA2i7B7Q+45KEvuCCou7ONao4coKb6mvGEKP0/r3AOzZm3iFLTs3zPgCOIHv8SJv+s77KqhOKA4sB0DqSeT1rxj31EHnVWacYH1myLdjC/AnPgNzO5uHwQRxA9dDMcBD/ho6DKVhxQHPDgQDaOLwtwfPESedRZZ7TpCA1As2348BvOpKi8x80/hRKguWbLm+d7/BxBdCfkS4OSL76ZpUooDrhxoADyZRXki5fIo84axzqP0nNVT9K2hs3OpKi8ryk4ic4ru5jmppf7Hj9HEH0N8uWYki++maVKKA64cWDuJaSdBvniJfKos0Z3VTPVPPMuNb0d3c9HeesqaM4FKym1zMDz0XgE0ZsBsIVMwIQcZOMFnPDT9mt8NGLf5QDbjlcdpobaKq4eNVRQUkbFZfONgWs8q87HSK/D26yRlqiZoxqo4oDlOMB+2oqgRZF+mcGhMdgG59x00GB5qxRbiIEsw2Xox4Oo+SEAbLco/2tWWT41jujkAPtpW4DjS+4VhsbPYNvgu0/R0P5NhspbpZB98UaKX3mRMXCNB30c8mUX5Ivyv2aVJVTjiEYOsJ+2FZAvxcbkC4Ntm2qeo7eOvxpVs91QfDptnHOeMXCNZ1YJ9zmvQ74o/2tRtc5qsBbjAPtpOxXypcIQ/EIMth1/cS81vBFdz0cFpyyk4rOXGgXXeJEexHWLmf7XRCsfFpDN2THAthvx+Se40pxp3u5sRlpfe5Qaa49Rf1+Pt6IRy0tMSqH8krlUWFJuyCzUMdCxbtLr7yBquz9i41YdKw7MOA5kXUta4bfgpizV4NRYprDjcnYu3GWwTriLsahcgAuRyYyYhfLwRjGXI18kqv8Tf1OkOKA4YAYHCj9JNA/HF5uh44vDjHRo74sA216msS4OxGI9iknLJ/viM8m+9GxjZqE8hRHIlz2QL1VKvlhvRdWIopYDZZAvyyBfYo3JFzYjfeP4K/RW3WvU0tdkyWnnJOXRhqLT6JTiMwyZhTomMdRF+mbIl313WXJOalCKA1HJgSU3knYS5IvdmHxhM9L61w5Q45uHqL/Zms9HiblplH/yAio8bZFRs1BeOp7MFwGuhUXAhBVk49kBaCvC7Qe4ruPvRqmtuYGa62uppfE4DQ8NGq0WknJx9njKyS+m3MISysot8K8PDm7QCK0bmIkqUhxQHDCZA3EF8NP2NYNBEVz7rsUXVpOuwjWAK5KUgM7LcLFZaAkuP4iDG1Ri/kN1flRSRRUHFAcMccCO40sFfr8NBEVwbW+kegcNHX6ThivfJn0gsgdWLSGN4irWkX3+yRRbeoLrMH1/5uAGeyFf2ExUkeKA4oC5HGCz0aWQLwaCIrh2vLdlF21v3EI7m7ZRz1C3a1bYP6fYU2lV3hpanb+eluas8K9/Dm6w5atEfUq++Mc4VVpxwAAHkopIWw/4xUBQBNfW2vbUUvPWo9TyThUN90T2+SguJYFyTiyj3LXllLXMz+cjBDfAvL4KgC1sAibsIJtz4QC2XYjP38a1wZlm9N7e2kTtAN343t3RZrRaUOVSM7IoMzuPMgGq8d1v6ttGetOd8L32ot9VVQXFAcUBPzmQejZpebcRJa3xsyIXZ/lbM3Fv5oQwUC76wAGb5kzc/eyy6y34LbkD2rFP+1lRFVccUBzwmwNZOL7MhdZsmt/HFxqp3UXD1Ttx302jTYf97jqQCra8+RRbspziSlfh7ueDL3fYDvmyH/KlScmXQPiv6igO+MWBPMiXxZAvmf7LlwNte4lBN74f6+QXh6GnuekVtChrqQNU47vf1PQW6dtux7FLyRe/eacqKA74y4E5F5K2BvBLnv/ypX1fHbXvrSW+s2lpOIj9q2UuKaLMpSWOewB94gBDtwNcC7uAiRjI5mQSwLaP4vOXcbE9lN80MjJMXe2t8OPWTr1dHdTb00V9vTDHHBvzuy2uoMXEUFJyKiWnpFFyWgb8q2VSWmY2xcbGBdQeDR4mvfm3OKT+PbD6qpbigOJA4BzIvJq03M/Acfn8ANsYQj02xeAfk1Zc7bg6cQUmX2DLirrpuDJxZeNicI1BezuuAKgP5q41P4bj8b8EUFlVURxQHAiKAwU4vsz5EsD8gI4vpA/10WjDQRppqqTRlioaa6uh0Y56iJeRwIYVE0u2jEKKyZpDtpwyis2rIFvBQtLsSYG11wP5cgjypVrJl8AYqGopDgTBgVLIlwWQLymByZf+kT462nGEqruOUm13NdX3HKemvgYaCVC+xEK+5CUVUGFKMZWkllJpWjmVZ8yjxNgA5UvHAdJ3/gheO5R8CWKXqKqKA4FxYNFHSVsF+CUjMPky0j9EXZVQdqpqod7aVuqta6e+xk7SRwJ7PtJigb/kp1NyUSYll2TDv1oOpVXkUWxigM9H4/6AfgRwLWICJuIgm3NnTPhruwXflzvTgrmzP7fBgX4aGhyg4eEhGgUYNzo6CnPV8cXXtBiy2WxkA3gWF2cne3wCxSckGver5mtwA/tJb/2z8rvmi08qX3EgHBxgf23ZH0cUr8Um9cb+3Hpx9eMawDWMix+MnT8uDKbF4mJwPgFXIq5kXCm4TKDePXA8/ivld80EVqomFAeC5gD7ayv+LP7ElwXdFDcw1tOCq430vg6Yl+Kl4VA/Dq4A/J0Px3jY1WLtAM8SSUtIJS0pAz7Vsoz7VfM1ym7Il0rIF+V3zRenVL7iQOg5wP7aKiBfUs2RL+zPrX2gnbqHOmFe2kMDo/00PIrnJH3UMRebZqM4m50SbImUYk+hVHs6fKplGver5osj7btJ3/1r5XfNF59UvuJAODjA/tqWA37JNAV+IfbnNtjeQ0NdkCu9gzQKMG50CPjL6AT+YgP+Ygf+AvAsLjkebuKAvWSm+ONXzRdXdqPArwGu3eWrYKjzLQOyOScKsO0KfMYvCp3nTIuqe8/LpLf9Fcouj0fVsNVgFQdmBQfSLyUt6xpgXWdG53TbnwOwdvd45NDonIEateLAzOUARyAt/AQOq9F5fKFmyJcqyJe6h2buGqmZKQ5EKweKIF/KIF9yo1S+1D5H+n4ETKlU8iVat6Aa9wzmQMUVpC0G/FISpfKFCAcY+hPANcsIGMuBbM7tC7BtFT5fi+sqXMXOdEveOYhB5yOktz8MpRa8AVakOKA4YG0OJCwjLfODsNx8H5TNCqw91kH4iGv+O1EjwPuendYeqxqd4oDiAEB8HF/yAebnXg1Tdfa1aGHiIAa1kC+1/HJQyRcLr5QamuLAOAfSIV9KIF9KIF84WIKVqfc4op3/g/RD98PjhpIvVl4qNTbFAQcHsleRtgDwyzzAL8nWhl8wXggY+geu+wGuWU7AWBZkcyz0xH8A3C7Ex8txXYLLGivOwFo33sp0PaWCGUysk7opDkQlBzhIQtpFMMXA2xurAG4MrLU9QdTyqApmEJWbSg1acWCCAxwkIQfHlywcX6wCuDGw1gD5Ug/5ooIZqK2qOBC9HOAgCYWQLwWQL1YB3BhYq36C9CrIFxXMIHr3lhq54gAHSSiDfCmFfLEO4MbAGg4w9CiAtaetvEhRAbK5MhCA20n4fi4utvc6FVeAHjdR0x8ag++lvi2k974JbZJX8Hm7P7VVWcUBxYFo4EDSamihnEFa8smQLOsRp4B9qYWBxvqgRfI6UcfLuF4g6tochk5VF4oDigNh5UAaji8Z5+DC8SUdx5eY8BxfaBTypQ3ypQXypRnypV3Jl7Cuu+pMcSAcHMiEfMmFfMmBfMmCfLGFSb4gwAI1vE56PeTL8ecB3Cv5Eo7lVn0oDoSVA3mQL8XnklYI+VIA+RJowBP/Bw0BQzjAEAQMPQ9gLWoEjOb/XK1VA6DbGoyIr5W4luJaiKsYV+DEWmpDR2D6eRBOh/fCt/m7uCynhRj4/FRNxQHFAWMcSIRZRuJKOBeHaEmAaLHPC17bjbXU+g8CqIdpeQ9kSw8A++5txsajSikOKA7MHA6k4uiSwsA+ji9JcGqeCBkTrLYba6n1QL5w8IIuyJcOyJcOJV9mzqZRM1EcMMiBDMiXDMiXNMgXDpqQAvkSrLYba6l1Qr6074X/aciXFsiWZiVfDK6IKqY4MHM4kAv5krMGfq4hXzLxjJQO+RK8thsEDEHAEMAXgoChbQDVolbARD3IhgXwIABviUgsxVWIC44L6OO4xNS7GVFA70ZgwFZcjQgSiAMqa60pUhxQHFAcEHGAtdviivAWJ5+04p/goRjAm4w6X8Ob3V9DrjQDuK8HcF+t5IuMVypdcUBxYFx7NgHHFzuOLwt+D/BtkZwrrZAvlZAvQ5AvA5Av/ZAviBSoSHFAcUBxQMgBRAylRMiXBMiXVZAvKV7kS8NriAL6K8gWyJdeyJdeyJcRJV+EfFWJigOKA3gugnxJhnxJLiTtxG9A5QmatXJ6AFmwKScIGIKAoWoAajNKwMRiUjOOJhbpACZ2AIBbPu5ykG20E29lHp9xPFATUhxQHAgRBxiEH4SmK19jvd47GWnHz8dD3suoXMUBxQHFAScHHK4pcHzpwzXa40wV34chX/5/e2cCY1dVxvHvzr51Zjqd7tjp3qYUbWkpUEs7KkRSCKsBiQEEg0YwmlSRYFUCAsaoIRjFGMIi0RAJawUsgnFaSKEUgRgohS60pLTYfdpO25nO9Pr/3rx5Xea9c5e33nv+Jzl9yzn33nN+595f3/nmLnwSaHo2/JYESGAwAQ3CH4RbNPd6+KUbfuGTQAcz5DckQALpCWgQvhNu0XzGkvR1jn+7DPGaWE+Qyo73NbbvNDqaOVWdlrmMJSRAAiRgIlDeaCrFX4vbzOUsJQESIIFMBCqbM5X0f19Hv5gBsZQESCAjAS+/DKFfMrJjAQmQgJmAtz/M8Rnz2iNRGssz2U4hv+WUzyd/rJqAzxprPHby934/1c8Xp2G+39qsRwIkUEIE3IOrcAkEcqgEb1SMMi9ZO1nEQT03pF+a2/tvkm7eCktJgARKkUDiQSYd4Vqm3qjCZemmVJ+lX1rb+2+SbtoGy0iABEqTgD7IZFdHuLapX7zuz9aYpV/GtOMm6e3h2selSIAEikrA3d6BM+WRwyT1i/rDnMzxGfOykSitiEQrs2vkVix+BLkm7Wr0/krV43Hp16a0xV5fJgJsI37kVY3lJEACJUjAkd/gicEhg2zqjbL0Wkl1VZ8eWIN7th1en/oq0Bt9CmHbHYEWYWUSIIFSIXAnHjrQEa4x6g2vpxvr0wPrUK8rpF/0KYTT6JdwA8SlSKDYBOCXsEE29Yben82U9OmBjajXGc4viQDbHPrFhJhlJFCqBPRxA+62jnDNU2+Ynz6qcRmNz8Q6xT7Ihut9+3BftnUYxVkZR1KfIBgyyKZnwuhEnYkESCB6BBJnsoVttnrDTxoyN3yQTc+EEfyQZiIBEogegcTxG7LZ6g0/aSjqhQ2y6Zkw9IsfyqxDAqVHIHH8hmyWesNPGo56IYNseiZMdJ8L6AcO65BAfAkkzmQL2z31hjmt0/iMuUr0S2MfZEsO0Tt4zRhkc+rmibvvmXCjibNgQp8JE26LXIoESKAECKg3fKUmXE6+43FfVQdV0rNgwp4JM2hl/IIESCAyBNQbflIL6m0N6Rc9CybsmTB+2sY6JEACpUlAveEjOSO/KO6GkH7Z1hH+TBgfbWMVEiCB0iSg3vBIGpeJfcJFs1ak1cZeNpxnLGYhCZAACQwi4NcbzV8ZtCi/IAESIAEjAb/eGE6/GDmykARIYDABv94YS78MhsdvSIAEjAS8vWGOyxhXHp1CW4JsrxqHpHoybjDcZqzCQhIgARJIEVBfqDf8pLrpuC/bRD81WYcESIAE+n2h3vCTGlCvnn7xg4p1SIAEQEB9od7wk5pRr5F+8YOKdUiABEBAfaHeMCdzXMa8bGRKyyLT0uwa+gEW325cReNiYzELSYAESCBFIKgvWi9PLco3JEACJGAkENQXo+kXI08WkgAJHCcQ1Bfj6Zfj8PiOBEjASMDbFxqP0bhM7JMVQTbcXM/FSC43jabTfJmpmGUkQAIkkCIQ2Bcjrk4tyzckQAIkYCQQ1Bdj6RcjTxaSAAkcJxDQF86krx9flu9IgARIwEDAhy+WJ+MyhrXEo8iKIFtyqJ4zDpk+KbDG8/RG4ypYSAIkYAEB9YTfJ4sO4NAnBdbPHPjEVxIgARJIT0A94ffJogNraIZfGumXARx8JQESyEBAPaG+CJL0SYEt9EsQZKxLAlYSUE94P1nUHI+JETibgmwvYdz2m8bOabnWVMwyEiABEpDQnhh9E+mRAAmQgJlAWE+00S9msCwlARKQkJ5wpn+b8EiABEjASMCHJzQOo/EYK5I1QTacmngEI/q0cVSHXiVSNsRYhYUkQAIWE1A/qCfCpFHXi5Q3hlmSy5AACdhAQP2gngiTxmG5CvolDDouQwJWEFA/qCfCpKlYrop+CYOOy5CAFQTUD+oJc3o6GY8x14pJqTVBtuR4PWocN51AD7vBWIWFJEACFhNQP4QNxOsEeuwtFsNj10mABIwE1A9hA/E6gZ5Avxj5spAEbCagfggbiNcJ9Az6xebdh30nASMB9YN3IP5R4zpiVujErD/G7riuq/1di5z55mt9+8T98GyRvk7julhIAiRgGYHyJnGmrcYkuNnU8R4UVmWs0LtHZPVkkd59GauwgARIwEICFfDK2RswCW4xdd7slx745RX45Sj9YoLIMhKwjkAl/HI+/FKVhV+694j7+CSRHvrFuv2HHSYBE4GqZnGu2ShSbfTLOqxihi0PPVBcVp3JlhzYB0z7iU6gnRFLjFVYSAIkYB+BhBfMATaFssxIRreS6QAAAA3hSURBVCfQbT8zVmEhCZCAhQTUC+YAm0Ix+0Un0NPoFwv3HnaZBMwE1AvmAJsub/YLJtDOnJ+bt8NSEiAB6wgkvGAOsCmTB2wKsGmHrTqTTTuMs9ka8LIZeRhy+uT2irvhQpEj76Uv57ckQAJ2EaiZKc7k5TBmhanfu1F4OvL7yEa/yNvzRA6+a1oXy0iABGwh0DBL5Mw3c+eXFfBLJ/1iy+7DfpKAkUAT/LIoR345hvnRM2eJ7KZfjMxZSAK2EBg2S5zL1+C0Lc/50XgE2Q7agkX7adWZbNrh5ADfp+8zJkykndNQxanMWIUFJEAClhCAB/p9YPwPRGHcB7/8T1+NZDRQN+0h+sUIiYUkYAkB/Z2R8EEO/TIbfinj7xdL9iB2kwQyE1APqA/MfyDU5f39fsFE2ln0MP2SmThLSMAeAvBLvw98/X6xKsCmO4F1Qbbknn8/Xrcn36d/qT1DnJG3pS/jtyRAAtYQSHgAPvBI6hP1iiZvvzTMxk3K7+qvzX9JgATsJaAeUB+YUzC/NGF90+kXM1KWkoAFBNQD6gNzCuaX1tnizP2FeY0sJQESiD2BhAfgA490ol88qsaruCxe3fHXm+TZbEs9aw+/WWTI+Z7VWIEESCCmBPT4Vw94p6UDp0H79svnbsVFpRd5r5k1SIAE4klAj3/1gHcK7pfJWO9I+sUbLWuQQEwJ6PGvHvBOwf3yBax3HP3ijZY1SCCmBPT4Vw94p5RfvKvGq4Z192QbGL7kk0ZX4vOCge/SvuIpo+7GxSLdG9MW80sSIIGYEqieJM6kF/E00SavDr6GCgsRXHMHKvr2S+9ekbfPFTn80cCifCUBErCBQO1U3IftdTzsYKhXb8P75Sj8shJ+OUi/eEFmOQnEikAD/LIQfqnMo1+694r77Dm4/yP9Eqt9h50hAS8CTVPFuewNPE00uF+8Vh2ncmuDbDqImAhPx8s7yDX6OWPq3oRAGyK2ffjBykQCJBB/AuVDEWB7Af+BTPTq6xFUmI0Amz6a+qTk2y+H18NC80WO6nMTmEiABGJPoBLPRZm9SqR2ildXs/dLF/yyEn7poV+8YLOcBGJBoAp+WQi/1BfAL53rxX0Ogfwj9Ess9h12ggS8CNQME+dSBPCbwvvFaxNxKbfyctGBwUtOjG8f+JzxFRNtZ/xfcAe7uoxVWEACJBATAjjOE8e7d4BNO3x7ugCbFvj2i060Z/4dZ8zV62JMJEACcSagx7ke794BNqWQvV90on0O/RLnXYp9I4EUAfWLHu/eATZdJHu/YKLtXPg8zsjl75fUGPANCcSVAI7zxPHuHWBTAhn9Elc8p/bL6jPZFEbysi78DyG4JtQjHfi3uFuuw0JHPSqymARIIJIE9EmibY/hXoxf8tN8XEsqFyOYlrpM9NSFAvllz0si710Kv/Scuhp+JgESiAMBpwoBtudEWr7qpze59csO+GU1/HKMfvEDn3VIIHIEyuCXs+GXEUXwy9aXxF1+Cf0SuZ2GDSYBnwTgF+fCZSKn5cYvPrca6WrWB9l09DARHoaX/yC36Wdj2o//SD65iRNhIyQWkkAECWAC7Ix7UKTR138gW9DDOQiweV4jEcgvu/Ef2Nqr8UO1O4IA2WQSIIGMBMqqRWb8DQ87wUTUO+XHL5/BL2voF2/8rEECESOgfjkLfhlVRL9sWSbuK1fh1jr8/RKxvYfNJQEzgfJqcc5/AlGS3PrFvNHolzLIlhxDTIRn463eYNj7mtCuNxBou1Gkd0/09wD2gARIAJc6tCDA9jAuscBNfL3TIVRZgACb3s/RVwrkl86VIu9/Dfdo2+Vr3axEAiRQ4gQqW0VOfxL3MFnop6H59ctu+OVN+KWHfvEzGKxDAiVPoAp+mQe/DCsBv2xfKe7LV+IebfRLye83bCAJ+CFQ0yrOBU+JjM6PX/w0Iap1yqLa8Fy3OzlhvhbrPea5bkzEncn/RDhujmdVViABEihxAjiOE8ezvwCb+uHaIAE27X0gv+hE/Mw1OKPOV8CvxOGyeSRgOQE9jvV49hdgy79fdCK+CO0ZSr9Yvmey+3EgoMexHs/+Amz59wsm4s4Vb+GSVfolDrsX+2A5ARzHiePZX4AtlF/iTJhBthNGFxPhp/FxyQlfZX5beZo4E58VZ+SPMYOuzFyPJSRAAqVJQO+/huNXj2PB8ewzLUl6wmf149UC+aUGV67PWiEy/k74BfdZYSIBEogWAT1u9fjV41iPZ3+pMH6pQ3sWoF3T0T69jxMTCZBAtAjocavHrx7Hejz7S4XxS0ObOJesFGfuXfSLv3FhLRIoLQJ6/zUcv3ocC45nnym0X3yuP3LVnMi1uAANxqVd92AzP/G9qe6PxP30NpGu130vwookQAJFJFB/rjhjfyVSPTVII+5FoGxpkAXS1Q3sl0NrRdbfIrIPP6aZSIAESp9A8yKRKX/A5HdGkLYWxy8H4Jf/wi+76Jcgg8W6JFA0Aq3wy+fhlyER8MveteK+drPIdvqlaPsLN0wCQQiMXiTOggdwtnvh/RKkmVGoyyBbhlHCRBh7mHw3Q3Gar12RzufF/QzxuZ7Nacr5FQmQQNEJVI0XZxTiZE0XoymB9PdHBNjwSzE3KZRfduKeKx8j9n94Y24awbWQAAnklkDtJJEJ94oMxz3PouaXbfDLWvili37J7U7BtZFAjgjUwy8z4JcxEfTLpifFffN2kf30S472Bq6GBHJLoHGSOPN+KTKxuH7JbaeKu7ZAs8ziNrWwW8ckWC+l1UDbdwJt2T0qsuev4u68Hzcu3x5oUVYmARLIE4HK0eIM/4FIyzcw9w18efef0KqbEWTT+w3kJIX3Sw/+IvyQyCf4j7B7a07awpWQAAlkSaAal5uPwwRy9LfgF1zGFSyVjl+OwS9b4Jf18Mth+iXYMLI2CeSJQC38MgV+aYNfgl/eXVp+WfeQuO8gUNhFv+Rpb+FqSSAYgXrc/mo2/sA2vTT8EqzxpV2bQTbD+GAirHx+inwncjBWbjeCbY+Lu/tBTIb5lxsDZhaRQP4IVOMvM8NuQnDtGhzB1UG3g9NT5Q7kuxFg0/c5TVn55dgRkc8eEfn0dyKHPsxpu7gyEiABnwTqpomM/b7IqBsw+a3xuVCqWmn7ZQv8sgl+OUi/pEaMb0igkAQa4JeJ8EtbzPzSh98vHz4i7ns4GWEf/VLIXYrbIoEUgeZp4szEyQfT4Jfy0vr9kmpjxN8ECxxFvLNhm4/J8GVY9lHkpuDrwO/oQ++Ku/8FnCb9IgJum4KvgkuQAAn4J1A9EU/mXCxO40W4J9IsLBdKc51Y8JsIruGpCPlNWfvlAJ4stvMZ3FMJz205vD6/jeXaScB2ArVTRFqvwCWhl+OeSGeBRsz9shd+2Q6/bINfuugX23d/9j/PBOrhlzHwy2j4ZagFftmxRtzNcMvHyJ30S573Lq7edgJN8MuEK8QZD8eMKH2/RH24Qv06jHqnw7QfE+HxWO4x5PPCLJ9apudj/GV4lbhdq/C6QqR3V6qIb0iABEIQqGjF029wo876+XhFrpoQYiUnLfIqPl2PABsO1sKknPnl8Ab8Zbij/yEJe1/GJes7CtMBboUE4kqgcgQmuxeI6MMMmttFaidn21P1y3Xwy+ZsV+R3efhFpfhn5Ox+v3TBL7s6+h+SsBN+6aZf/I4B65FAWgLV8Mtw+EUfZtDaLlJvsV/2wy/bOsRFlk/hl8P0izCRQDYEauGXsReIM6YdwXvkxuj5JZvuF3tZp9gNiNL28UO1HO39HvLdyA3Zt90VOXYQgba9In3IvXv6X/V9n55Ik7NbQGXfVK6BBIpKALdILG9CHtqfK1qSr/hcpodiTlSGgzFxefjvMQHuK3R38+KXvgMItO0+nnuT73v3oXv0S6HHmNsrVQLwS0WzSOUwvCLr60AuH4JG0y+DRw6/X3rhlx445dR8lH4ZzIvf2EsAfqmEX6rglVNzBf2Sfr+AX3rgl2745QjywKu+74FfXP5+Sc+N31pHwIFfquCXGvhFc/UJr1Xx8EtUxzQnvxyj2vmw7cZkeByW/S2yPoKDiQRIIPoEnkQXfojg2ifF7gr9UuwR4PZJIOcE6JecI+UKSYAEkgToF+4KJEAC+SJQMn7JVwfztV4G2bIgi8lwOxb/NfLcLFbDRUmABIpH4C1s+lYE1zqK14T0W6Zf0nPhtyQQIQL0S4QGi00lgYgRoF8iNmBsLglEiEDJ+iUqDHGOIVNYAsmJ+TwsfxXyB2HXw+VIgAQKTkCPVz1u55VigE1p0C9KgYkEIkmAfonksLHRJBAJAvRLJIaJjSSBSBIoeb9EhSrPZMvRSOGsE71fm07alyKfnqPVcjUkQAK5JfA+VncP8hMIYhX8vmthu0K/hCXH5UigoATol4Li5sZIwCoC9ItVw83OkkBBCUTSLwUlFHBjDLIFBOZVHZNhZYrHBMmNyFci1yEzkQAJFI/AIWz6KeSHkVcguIY76kYz0S/RHDe2OtYE6JdYDy87RwJFJUC/FBU/N04CsSYQG7+U4igxyJbHUcGEuB6r/zLy4mTWByYwkQAJ5J+APsDgReR/IP8LgbWu/G+ysFugXwrLm1sjgRMI0C8nwOBbEiCBnBKgX3KKkysjARI4gUDs/XJCX4v6lkG2AuLHpHgKNrcQeQHyuchTkTkGgMBEAlkQ0DPTPkJ+Hfk15JUIqq3Hq1WJfrFquNnZwhGgX8CafincDsctWUWAfqFfrNrh2dmCEqBfCor75I39H+9I5e6WmnQAAAAAAElFTkSuQmCC;" parent="1" vertex="1">
          <mxGeometry x="138" y="230" width="871" height="226.7" as="geometry" />
        </mxCell>
        <mxCell id="MfFnP2DkGf9KAdTDlPXh-3" value="ESSecA" style="text;html=1;strokeColor=none;fillColor=none;align=center;verticalAlign=middle;whiteSpace=wrap;rounded=0;fontSize=16;fontStyle=1;fontColor=#66CC00;" parent="1" vertex="1">
          <mxGeometry x="380" y="180" width="92" height="30" as="geometry" />
        </mxCell>
        <mxCell id="MfFnP2DkGf9KAdTDlPXh-5" value="MAL &amp;amp; Co." style="text;html=1;strokeColor=none;fillColor=none;align=center;verticalAlign=middle;whiteSpace=wrap;rounded=0;fontSize=16;fontStyle=1;fontColor=#CC0000;" parent="1" vertex="1">
          <mxGeometry x="780" y="180" width="92" height="30" as="geometry" />
        </mxCell>
      </root>
    </mxGraphModel>
  </diagram>
</mxfile>
